<?xml version="1.0" encoding="utf-8"?>
<!DOCTYPE svg PUBLIC "-//W3C//DTD SVG 1.0//EN" "http://www.w3.org/TR/2001/REC-SVG-20010904/DTD/svg10.dtd">
<svg version="1.0" xmlns="http://www.w3.org/2000/svg" width="657px" height="728px" viewBox="0 0 657 728" preserveAspectRatio="xMidYMid meet">
 <g fill="#233746">
  <path d="M415 716 c-3.6 -3.8 -7.1 -6.9 -7.8 -6.9 -0.8 -0.1 -2.7 -1.4 -4.2 -3.1 -1.5 -1.6 -3.5 -3 -4.4 -3 -0.9 0 -1.6 -0.4 -1.6 -1 0 -0.5 -0.9 -1 -2 -1 -1.1 0 -2 -0.4 -2 -1 0 -0.5 -0.8 -1 -1.8 -1 -1 0 -2.4 -0.9 -3.2 -2 -0.8 -1.1 -2.2 -2 -3.2 -2 -1 0 -1.8 -0.4 -1.8 -1 0 -0.5 -0.8 -1 -1.8 -1 -1 0 -2.4 -0.9 -3.2 -2 -1 -1.4 -2.6 -2 -5.2 -2 -2.1 0 -3.8 -0.4 -3.8 -1 0 -0.5 -0.9 -1 -2 -1 -1.1 0 -2 0.5 -2 1 0 1.5 -3 1.2 -3.6 -0.4 -0.3 -0.8 -1.2 -1.2 -2 -0.9 -0.8 0.3 -2.3 -0.5 -3.4 -1.7 l-1.9 -2.2 -3.6 3.6 c-2 2 -3.8 3.6 -4.1 3.6 -1.1 0 3.2 -6.3 5.8 -8.5 2.6 -2.2 2.7 -2.4 1.2 -5.4 -1.5 -3 -3.4 -4.2 -3.4 -2.1 0 0.6 -0.5 1 -1 1 -0.6 0 -0.8 -1.1 -0.4 -2.5 0.4 -1.5 0.2 -2.5 -0.5 -2.5 -0.6 0 -1.1 0.5 -1.1 1 0 0.6 -0.7 1 -1.7 1 -1.5 0 -1.5 -0.1 0 -1.8 2.1 -2.3 2.2 -4.2 0.2 -4.2 -0.8 0 -1.5 -0.4 -1.5 -0.9 0 -0.5 0.7 -1.1 1.5 -1.5 0.9 -0.3 1.5 0 1.5 0.8 0 1.3 3.1 4.6 4.3 4.6 1.1 0 0.8 -4.8 -0.3 -5.5 -1.5 -0.9 -1 -8.5 0.7 -11 0.7 -1.1 1.3 -3.5 1.3 -5.3 0 -4.3 2.2 -6.6 5.6 -5.8 1.7 0.5 2.3 0.3 1.9 -0.4 -0.3 -0.5 0 -1 0.8 -1 0.8 0 2 -0.7 2.7 -1.5 0.7 -0.9 1.9 -1.4 2.6 -1.1 1.8 0.7 3.3 -1.6 2.4 -3.9 -0.5 -1.3 -0.1 -2.8 1.1 -4.4 1.1 -1.3 1.9 -3 1.9 -3.9 0 -1 0.7 -1.3 2.5 -1 1.3 0.3 2.2 0.1 1.9 -0.3 -0.3 -0.5 0.4 -0.9 1.4 -0.9 1.1 0 2.8 -1.2 3.8 -2.7 2.4 -3.8 4 -5.3 4.8 -4.6 0.3 0.4 0.6 0.2 0.6 -0.4 0 -0.6 2.5 -3.7 5.5 -6.9 7.6 -8.1 10.3 -14 11.5 -25 1.2 -10.1 3.6 -24.8 5.2 -31.2 0.9 -3.8 1.2 -4.1 2.7 -2.9 0.9 0.8 2.6 1.8 3.8 2.1 1.3 0.4 2.4 1.8 2.8 3.5 0.3 1.6 1.7 3.9 3.1 5.1 1.3 1.3 2.4 2.8 2.4 3.4 0.1 0.6 0.9 2.9 2 5.1 1.1 2.2 1.9 4.6 2 5.3 0 0.8 0.8 2.6 1.9 4 1 1.5 2.2 3.8 2.6 5.2 2 6.5 8.9 15 12.2 15 3.1 0 7.1 2.2 10.2 5.5 1.3 1.4 3.4 2.5 4.9 2.5 1.4 0 2.2 0.3 1.9 0.6 -0.4 0.4 -3.4 0.1 -6.9 -0.6 -4.4 -1 -7.2 -2.3 -9.9 -4.7 -4.1 -3.7 -4.9 -4 -4.9 -1.8 0 0.8 0.5 1.5 1.1 1.5 0.6 0 2.7 1.4 4.6 3 1.8 1.7 4.1 3 5.1 3 0.9 0 4.6 0.9 8.2 2 3.6 1.1 9.2 2.2 12.5 2.5 8.8 0.8 8 1.5 -1.8 1.5 -5.1 0 -8.7 -0.4 -8.7 -1 0 -0.5 -1.8 -1 -4 -1 -2.2 0 -4 -0.4 -4 -1 0 -1.4 -3.7 -1.2 -4.3 0.3 -0.3 0.7 -1.6 0 -3.5 -2.1 -2.4 -2.8 -3 -3.1 -3.5 -1.7 -0.4 0.9 -0.3 1.4 0.3 1 0.5 -0.3 1.5 0.7 2.2 2.2 0.7 1.5 1.7 3.2 2.3 3.6 0.7 0.6 0.6 1 -0.2 1.4 -0.7 0.2 -1.3 1.8 -1.3 3.4 0 1.6 -0.4 2.9 -0.9 2.9 -1.6 0 -2 4 -0.5 5.4 0.8 0.8 1.4 2.6 1.4 4 0 1.4 0.4 2.6 0.8 2.6 2.8 0 4.6 19.3 2 20.3 -0.9 0.3 -0.6 1.1 1 2.4 1.8 1.7 2.2 3.1 2.2 7.7 0 3.1 -0.4 5.6 -1 5.6 -0.5 0 -1 0.9 -1 2 0 1.1 -0.4 2 -1 2 -0.6 0 -1 3.7 -1 9 0 5.3 -0.4 9 -1 9 -0.5 0 -1 1.4 -1 3 0 1.7 -0.4 3 -1 3 -0.5 0 -1 0.9 -1 2 0 1.1 -0.4 2 -1 2 -0.5 0 -1 1.8 -1 4 0 2.2 -0.4 4 -1 4 -0.5 0 -1 0.8 -1 1.8 0 1 -0.9 2.4 -2 3.2 -1.1 0.8 -2 2 -2 2.8 0 0.7 -1.1 2.4 -2.5 3.7 -1.8 1.9 -3.4 2.5 -6.7 2.4 -4 0 -4.8 -0.5 -10.8 -6.9z m-58 -55.2 c0 -1 -1.2 -1 -3.4 -0.2 -2.1 0.8 -2.1 2.4 0 2.4 0.9 0 1.3 0.5 0.9 1.3 -0.4 0.6 0.1 0.3 0.9 -0.7 0.9 -1.1 1.6 -2.3 1.6 -2.8z m3.4 -12.8 c-0.7 -0.7 -1.9 -0.7 -3.5 -0.1 -2.3 0.9 -2.2 1 1.1 1 2.3 0.1 3.1 -0.2 2.4 -0.9z"/>
  <path d="M158 703 c0 -1.1 -0.4 -2 -1 -2 -0.5 0 -1 -0.7 -1 -1.5 0 -2.8 -4.7 -6.5 -8.2 -6.5 -4 0 -9.8 -5.6 -9.8 -9.5 0 -1.4 -0.4 -2.5 -0.8 -2.5 -0.4 0 -0.9 -1.7 -1 -3.7 -0.2 -2.1 -0.8 -4 -1.3 -4.4 -0.6 -0.3 -0.9 -1.2 -0.8 -2 0.5 -2.4 -1.1 -8.9 -3.5 -14.3 -3.2 -7.3 -4.2 -10.3 -5.6 -17.1 -0.6 -3.3 -2 -9.2 -3.1 -13.2 -1 -3.9 -1.9 -8.3 -1.9 -9.8 0 -1.5 -1 -3.6 -2.4 -4.8 -1.6 -1.5 -2.2 -2.8 -1.7 -3.6 0.6 -0.9 1.1 -1 1.5 -0.2 1.6 2.6 2.6 0.7 2.6 -4.8 0 -5.3 1.1 -15.8 2.6 -24.8 0.2 -1.8 1.1 -3.9 1.9 -4.7 0.9 -0.9 1.6 -3.6 1.6 -7 0.1 -4.8 0.4 -5.6 2 -5.6 1.1 0 1.9 -0.7 1.9 -1.5 0 -1.7 10.4 -12.5 12 -12.5 2.4 0 6 -4.9 6 -8.2 0 -2.2 0.7 -3.9 2 -4.8 1.1 -0.8 2 -1.9 2 -2.5 0.1 -2.6 26.2 -17.5 30.8 -17.5 1 0 4.2 -1.2 7 -2.6 5.6 -2.8 8.2 -2.6 8.2 0.5 0 5 -3.4 19.1 -5.6 23.1 -1.4 2.5 -5.3 7.1 -8.8 10.3 -7.3 6.5 -11.5 13.2 -12.3 19.7 -0.6 5.6 2.9 14.6 11.2 28.4 7.3 12.2 7.3 12.1 8 11.4 0.8 -0.8 -1.4 -5 -3.1 -6.1 -0.8 -0.4 -1.4 -1.5 -1.4 -2.3 0 -1.1 0.8 -0.8 2.7 1.1 1.5 1.4 3.3 2.5 4 2.5 0.7 0 1.3 0.5 1.3 1.1 0 0.5 0.4 0.7 1 0.4 0.6 -0.3 0.7 0.1 0.4 0.9 -0.4 1 -0.1 1.6 0.9 1.6 0.8 0 1.7 0.7 2.1 1.5 0.6 1.6 3.6 2.1 3.6 0.7 0 -0.5 -1.4 -2.1 -3.1 -3.7 l-3.2 -2.8 3.9 -1.3 c2.2 -0.8 4.7 -1.1 5.8 -0.8 1.2 0.4 1.6 0.2 1.2 -0.5 -0.4 -0.6 -1.4 -1.1 -2.2 -1.1 -0.8 0 -1.4 -0.7 -1.4 -1.6 0 -1.6 2.2 -1.6 6 0 1.1 0.5 1.6 0.1 1.6 -1.3 0 -1.4 -0.7 -1.8 -2.8 -1.7 -1.7 0.1 -2.8 -0.3 -2.8 -1.1 0 -1.1 1.9 -1.7 5.7 -1.6 0.6 0 0.9 -0.6 0.5 -1.6 -0.5 -1.4 -0.3 -1.4 2.1 0.2 3.3 2.1 4.7 2.2 4.7 0.1 0 -0.8 0.5 -1.2 1.1 -0.9 0.6 0.4 0.8 1.3 0.5 2.1 -0.7 1.7 0.6 5.1 3.1 8.1 1.3 1.7 2.2 2 3.3 1.3 1.3 -0.9 1.2 -1.2 -0.4 -2.5 -1.1 -0.8 -1.7 -1.8 -1.3 -2.1 1.1 -1.1 3.9 0.5 4.4 2.6 0.4 1.4 1.4 2 3.4 2 1.8 0 3.2 0.6 3.6 1.6 0.4 1.1 1.3 1.4 3 0.9 1.5 -0.3 2.2 -0.2 1.9 0.4 -0.4 0.5 0.1 1.6 0.9 2.4 0.8 0.9 1.5 2.1 1.5 2.7 0 0.7 1.3 2.5 3 4 2.8 2.6 3.2 2.7 6.8 1.6 2.1 -0.6 4.9 -2.1 6.2 -3.3 2.9 -2.8 4.3 -2.9 3.6 -0.5 -0.4 1.2 0.3 2.3 2.4 3.5 1.7 1 3.4 1.6 4 1.2 0.5 -0.3 1.4 0.3 2 1.4 0.7 1.3 0.7 2.2 0 2.6 -1.5 0.9 -1.2 2.5 0.5 2.5 0.8 0 1.5 -0.5 1.5 -1.1 0 -0.6 0.6 -0.9 1.3 -0.6 4.6 1.9 4.7 1.9 4.7 0.1 0.1 -1.8 0.1 -1.8 1.2 0 0.8 1.5 0.7 2.1 -0.6 2.8 -2.4 1.3 -1.9 3.3 1.2 4.8 3.9 2 6.2 4.1 6.2 5.7 0 1.8 -2.6 1.7 -3.4 -0.2 -0.3 -0.8 -1.3 -1.5 -2.2 -1.5 -2.3 0 2.4 3.7 6.6 5.1 1.6 0.6 3 1.5 3 1.9 0 0.5 1.5 0.5 3.3 0 1.7 -0.4 5.3 -1 8 -1.3 3.9 -0.4 4.6 -0.2 3.6 0.9 -0.6 0.8 -0.9 2.1 -0.5 2.9 0.9 2.4 3.5 1.7 4.8 -1.2 l1.2 -2.8 0.4 2.8 c0.2 1.5 1 2.7 1.8 2.7 0.8 0 1.4 0.7 1.4 1.5 0 1.7 -1.6 2 -2.5 0.5 -1.3 -2.1 -8.5 -0.8 -8.5 1.5 0 0.7 -0.8 1.6 -1.7 1.9 -1.5 0.6 -1.5 0.8 -0.3 1.6 1.2 0.8 1 1 -0.7 1 -1.8 0 -2.3 -0.6 -2.3 -2.4 0 -5.9 -3.3 -7.8 -4.4 -2.5 -0.5 2.7 -0.8 3 -2.1 1.9 -1.2 -1 -1.5 -0.9 -1.5 0.6 -0.1 1.8 -0.1 1.8 -1.1 0.2 -0.5 -1 -1.9 -1.8 -2.9 -1.8 -1 0 -2.5 -0.9 -3.3 -2 -1.5 -2.2 -2.7 -1.7 -2.7 1.2 0 1 0.6 1.8 1.3 1.7 3.1 -0.4 4.6 0.3 5.2 2.2 0.5 1.5 1.3 1.9 3.3 1.6 1.5 -0.2 2.1 -0.2 1.5 0 -0.7 0.3 -1.3 0.8 -1.3 1.3 0 0.5 -1 1.1 -2.2 1.3 l-2.3 0.4 2.2 0.8 c1.2 0.4 2.4 1.3 2.7 2 0.5 1.4 -0.5 1.3 -4.9 -0.5 -1.1 -0.5 -2.8 -1.1 -3.7 -1.4 -1 -0.3 -1.8 -1.5 -1.8 -2.8 -0.1 -1.9 -0.2 -2 -1 -0.7 -1.1 2 -12.5 2.6 -14.6 0.8 -1 -0.8 -1.8 -0.8 -2.7 0 -1 0.8 -1.7 0.7 -2.5 -0.1 -1.4 -1.4 -9.2 -2 -9.2 -0.8 0 0.4 1.9 1.5 4.1 2.4 5.4 2.2 4.6 3 -1 1 -2.9 -1 -4.7 -1.1 -5.5 -0.5 -2.7 2.3 -10.1 -0.4 -17.1 -6 -1.1 -0.9 -2.9 -1.9 -3.9 -2.3 -1.5 -0.5 -1.7 -0.4 -0.7 0.8 0.9 1.1 0.9 1.6 0 2.2 -0.6 0.4 -1.6 0 -2.1 -0.9 -1.4 -2.6 -6.7 -7.1 -7.5 -6.4 -0.2 0.3 0.6 1.3 2 2.2 1.3 0.8 3.7 3.5 5.1 5.8 3 4.7 10.6 10.6 20.9 16.2 3.8 2.1 7.5 4.8 8.3 6 1.3 1.9 2 2.2 4.9 1.5 2.6 -0.6 3.2 -0.5 2.8 0.6 -0.6 1.6 -9.3 2 -9.3 0.4 0 -0.5 -0.7 -1 -1.6 -1 -0.9 0 -2.5 -0.9 -3.4 -2 l-1.8 -2.1 -3.6 2.1 c-2 1.1 -4.5 2 -5.5 2 -1 0 -2.6 0.9 -3.6 2 -1 1.1 -2.7 2 -3.7 2 -1 0 -2.8 0.9 -4 2 -1.3 1.2 -3.6 2 -5.5 2 -1.8 0 -3.3 0.5 -3.3 1 0 0.6 -0.8 1 -1.8 1 -1 0 -2.4 0.9 -3.2 2 -0.8 1.1 -2.2 2 -3.2 2 -1 0 -1.8 0.5 -1.8 1 0 0.6 -0.9 1 -2 1 -1.1 0 -2 0.5 -2 1 0 0.6 -0.8 1 -1.8 1 -1 0 -2.4 0.9 -3.2 2 -0.8 1.2 -2.6 2 -4.2 2 -1.5 0 -2.8 0.5 -2.8 1 0 0.6 -0.9 1 -2 1 -1.1 0 -2 0.5 -2 1 0 0.6 -0.9 1 -2 1 -1.1 0 -2 0.5 -2 1 0 0.6 -1.3 1 -3 1 -1.6 0 -3 0.5 -3 1 0 0.6 -0.8 1 -1.8 1 -1 0 -2.4 0.9 -3.2 2 -1.2 1.6 -2.6 2 -7.2 2 -5.1 0 -5.8 -0.2 -5.8 -2z m4.7 -3 c-0.3 -1.1 -0.2 -2 0.3 -2 0.4 0 1 0.9 1.3 2 0.3 1.1 1 2 1.7 2 1.5 0 0.3 -4.1 -1.8 -5.7 -0.9 -0.7 -1.1 -1.3 -0.5 -1.3 0.7 0 2.1 1.2 3.2 2.7 2.6 3.2 4 2.3 1.7 -1.2 -0.9 -1.4 -1.4 -2.5 -1.1 -2.5 0.3 0 0.8 0 1.3 0 0.4 0 0.7 0.3 0.7 0.8 0 0.4 0.5 1.5 1.1 2.5 0.9 1.6 1.2 1.6 4.2 0.1 1.8 -0.8 3.2 -1.9 3.2 -2.3 0 -1.8 -2.8 -3.1 -6.8 -3.1 -2.6 0 -4.1 -0.4 -3.7 -1 0.3 -0.5 2.2 -1 4.1 -1 1.9 0 3.4 -0.5 3.4 -1.1 0 -1.9 -6.4 0.1 -8.6 2.8 -1.2 1.4 -2.7 2.2 -3.3 1.9 -0.6 -0.4 -1.1 0 -1.1 0.9 0 1.8 -4.7 -3.8 -9.7 -11.2 -4 -6.1 -5 -5.3 -1.3 1 1.7 2.8 4.5 8 6.2 11.5 1.8 3.4 3.9 6.2 4.6 6.2 0.9 0 1.2 -0.7 0.9 -2z m19.3 -5.4 c0 -0.2 -0.7 -0.9 -1.5 -1.6 -1.2 -1 -1.5 -1 -1.5 0.4 0 0.9 0.7 1.6 1.5 1.6 0.8 0 1.5 -0.2 1.5 -0.4z m-45 -41.4 c0 -1 -0.4 -2.2 -0.9 -2.7 -1.6 -1.9 -6.2 -14.8 -6 -16.9 0.3 -2.7 -1 -6.6 -2.2 -6.6 -0.5 0 -0.9 -1.2 -1 -2.7 0 -1.6 -0.5 -3.7 -1 -4.8 -1.5 -3.3 -0.4 8.2 1.5 15.5 0.9 3.5 3 8.9 4.6 11.9 1.7 3 3 6.1 3 6.8 0 0.7 0.5 1.3 1 1.3 0.6 0 1 -0.8 1 -1.8z m-3 -20.4 c0 -1.3 -2.3 -0.5 -2.8 1 -0.2 0.7 0.2 1 1.2 0.6 0.9 -0.3 1.6 -1.1 1.6 -1.6z m42 0.2 c0 -0.5 -0.7 -1 -1.5 -1 -0.8 0 -1.5 0.5 -1.5 1 0 0.6 0.7 1 1.5 1 0.8 0 1.5 -0.4 1.5 -1z m23.1 -18.2 c-2.1 -2.5 -5.7 -4.6 -4.6 -2.6 2.9 4.8 4.8 6.9 5.5 5.8 0.4 -0.7 0 -2.1 -0.9 -3.2z m4.3 -12.9 c-0.3 -0.6 0 -1.5 0.7 -2 1 -0.6 0.5 -0.8 -1.6 -0.8 -1.6 0 -2.4 0.3 -1.7 0.6 0.6 0.2 1.2 1.1 1.2 1.9 0 0.8 0.5 1.4 1.1 1.4 0.5 0 0.7 -0.5 0.3 -1.1z m29.4 -0.7 c0.2 -0.7 -0.3 -1.2 -1.2 -1.2 -0.9 0 -1.6 0.7 -1.6 1.6 0 1.7 2.2 1.4 2.8 -0.4z m-12.8 -2.2 c0 -1.2 -2.8 -2.5 -3.6 -1.7 -0.9 0.9 0.6 2.7 2.2 2.7 0.8 0 1.4 -0.5 1.4 -1z"/>
  <path d="M327.3 636.5 c-0.3 -0.9 -0.3 -1.8 -0.1 -2.1 0.9 -0.9 3.8 0.8 3.8 2.2 0 1.9 -2.9 1.8 -3.7 -0.1z"/>
  <path d="M510.9 633.7 c-7.9 -4.8 -16.1 -10.4 -18.6 -12.7 -1.2 -1.1 -2.7 -2 -3.3 -2 -0.6 0 -1.8 -0.7 -2.6 -1.5 -2.3 -2.3 0.5 -1.9 3.6 0.5 1.4 1.1 3 2 3.7 2 0.7 0 1.7 0.8 2.2 1.9 0.6 1 2.2 2.2 3.6 2.5 1.6 0.4 2.3 1.1 1.9 1.8 -0.5 0.7 -0.2 0.9 0.8 0.6 0.8 -0.4 2.1 -0.2 2.9 0.3 1.2 0.7 1.2 0.9 -0.1 0.9 -1.2 0.1 -1.1 0.3 0.3 1.1 0.9 0.6 2.5 1.2 3.5 1.4 0.9 0.2 4.6 1.7 8.2 3.4 6.3 2.9 6.4 3 2.9 3.1 -2.3 0 -5.4 -1.1 -9 -3.3z"/>
  <path d="M278.4 610.5 c2 -1.4 4.1 -2.5 4.6 -2.5 1.8 0 0 2.5 -2.7 3.8 -4.6 2.1 -5.8 1.3 -1.9 -1.3z"/>
  <path d="M253 609.1 c0 -1.2 4 -5.1 5.2 -5.1 1.7 0 0.7 2 -2.2 4 -1.6 1.2 -3 1.7 -3 1.1z"/>
  <path d="M267.3 608.5 c-1.3 -0.6 -2.1 -1.4 -1.8 -1.7 0.3 -0.3 -0.1 -1.7 -0.9 -3.2 -1.4 -2.8 -1.1 -6.6 0.5 -6.6 0.5 0 0.9 0.7 0.9 1.5 0 0.8 0.5 1.5 1 1.5 0.6 0 1 1.8 1 4 0 6 1.6 4.8 2.3 -1.6 0.7 -6.6 1.2 -7.4 3.1 -4.9 1.1 1.6 1.1 2.1 0 3.3 -2.3 2.3 -1.2 5.1 1.2 3.1 1.8 -1.5 3.4 -0.3 3.4 2.7 0 2.8 -2.4 3.2 -3.9 0.7 -1 -1.7 -1.2 -1.7 -2.8 0.3 -1.5 1.8 -2.1 1.9 -4 0.9z"/>
  <path d="M273 590 c-3.5 -3.5 -4 -4.6 -3.8 -7.7 0.2 -2.2 -0.2 -3.8 -0.9 -4 -0.9 -0.3 -1.3 0.6 -1.3 2.9 -0.1 2.8 -0.2 3 -1.1 1.5 -0.8 -1.4 -1.4 -1.6 -2.5 -0.6 -1.1 0.9 -1.7 0.9 -2.9 -0.1 -2.1 -1.7 -1.9 -3 0.5 -3 3.2 0 2.3 -2.5 -1.5 -4.3 -4.3 -2.1 -4.5 -4.4 -0.4 -6.1 2.6 -1.1 2.8 -1.4 1.5 -2.6 -1.3 -1 -1.6 -1 -1.6 0.3 0 0.8 -1.3 1.7 -3.1 2.1 -4.6 0.9 -4.9 0.8 -4.2 -1.1 0.4 -1.2 -0.1 -1 -1.7 0.7 -1.2 1.4 -2.7 2.4 -3.2 2.2 -0.6 -0.2 -1.7 0.7 -2.6 1.9 -1.4 2 -1.6 2 -2.4 0.4 -0.7 -1.1 -0.6 -2.1 0.1 -2.8 2 -2 1.2 -5.3 -1.4 -6.5 -1.4 -0.7 -3.1 -1.2 -3.7 -1.2 -0.6 0 -1.8 -0.8 -2.7 -1.8 -0.9 -0.9 -2.8 -2.3 -4.3 -3 -1.6 -0.6 -2.8 -1.6 -2.8 -2.1 0 -0.5 -0.9 -0.7 -2 -0.4 -1.6 0.4 -2 0 -2 -1.9 0 -2.7 -2.4 -5.4 -5.4 -5.9 -1.1 -0.2 -2.1 -0.9 -2.3 -1.6 -0.6 -1.6 6.8 -0.5 8.2 1.2 0.6 0.6 1.6 1 2.3 0.8 0.7 -0.3 1.2 0.4 1.2 1.5 0 1.1 0.6 2.3 1.3 2.5 0.8 0.4 0.7 0.6 -0.3 0.6 -0.8 0.1 -0.2 0.8 1.4 1.6 3.4 1.8 3.8 1.8 3.4 0.3 -0.3 -1.7 1.1 -5.8 2 -5.8 1.5 0.1 4.4 2.9 3.8 3.8 -0.3 0.5 0.3 1.7 1.4 2.7 1.1 1 2 2.8 2 3.9 0 1.5 0.3 1.7 0.9 0.8 0.9 -1.6 2.4 -0.1 3.5 3.6 0.9 2.8 4 2.9 6 0 2.3 -3.2 2 -4.1 -0.9 -3.4 -2.3 0.6 -2.5 0.4 -1.9 -1.9 0.4 -1.5 0.2 -2.5 -0.5 -2.5 -0.6 0 -1.1 1.1 -1.1 2.5 0 1.4 -0.4 2.5 -1 2.5 -0.5 0 -1 -1.2 -1 -2.6 0 -2.1 -0.4 -2.4 -2 -1.9 -1.5 0.5 -2 0.2 -2 -1.4 0 -1.1 0.5 -2.3 1 -2.6 0.6 -0.3 1 -0.1 1 0.4 0 0.6 0.6 1.1 1.3 1.1 2.1 0 1.6 -2.9 -0.6 -3.6 -1.6 -0.5 -1.7 -0.8 -0.6 -1.5 1.2 -0.8 1.2 -1.1 -0.1 -1.9 -0.8 -0.5 -2.6 -1 -4 -1.1 -1.7 -0.1 -1.9 -0.3 -0.7 -0.6 0.9 -0.2 1.7 -1.1 1.7 -2 0 -1.2 -0.7 -1.4 -3 -0.9 -2.2 0.4 -3 0.2 -3 -0.9 0 -2 4.6 -3 6.5 -1.5 1.2 1 1.5 0.9 1.5 -0.9 0 -1.7 -0.6 -2.1 -2.9 -2.1 -1.7 0 -3.2 -0.4 -3.6 -1 -0.3 -0.5 -1.3 -0.6 -2.1 -0.3 -1.1 0.4 -1.5 0 -1.2 -1.3 0.2 -1.4 -0.4 -2 -2.4 -2.2 -3.6 -0.4 -3.5 1.1 0.2 3.8 3.3 2.3 3.9 4 1.5 4 -0.8 0 -1.5 -0.6 -1.5 -1.2 0 -1.3 -4.9 -4.7 -8.5 -5.9 -1.5 -0.5 -1.3 -0.7 1.3 -0.8 1.7 -0.1 3.2 -0.5 3.2 -1.1 0 -0.5 1.1 -1 2.5 -1 1.5 0 2.5 -0.6 2.5 -1.4 0 -2.6 -2.3 -3 -3.8 -0.8 -2 3 -3.2 2.7 -3.2 -0.8 0 -2.3 -0.5 -3 -1.9 -3 -1 0 -2.4 -0.7 -3.1 -1.5 -1.3 -1.5 -0.4 -3.9 1.1 -2.9 2 1.2 6.9 2.3 6.4 1.3 -0.4 -0.5 -1.3 -0.9 -2.1 -0.9 -0.8 0 -2.4 -1 -3.6 -2.2 -1.2 -1.2 -2.3 -1.7 -2.5 -1.2 -0.4 1.3 -6.3 0.6 -6.3 -0.7 0 -0.5 0.8 -0.9 1.9 -0.9 1 0 2.4 -0.7 3.1 -1.5 1 -1.2 0.5 -1.7 -2.9 -3.2 -2.3 -1 -4.1 -2.1 -4.1 -2.4 0 -1.1 5 -1.7 5.6 -0.8 0.7 1.2 2.4 1.2 2.4 0 0 -0.5 -1 -1.1 -2.2 -1.4 -3.3 -0.9 -3.4 -5.3 -0.2 -7.4 1.9 -1.2 2.7 -1.3 3.9 -0.3 1.3 1.1 1.4 0.8 0.8 -2.1 -0.3 -1.9 -1 -3.5 -1.5 -3.7 -1.4 -0.6 -0.9 -5.2 0.6 -5.2 2.4 0 2.3 -4.2 -0.2 -6.7 -2.5 -2.5 -3.2 -5.3 -0.7 -3.3 1.3 1 1.5 0.9 1.5 -0.8 0 -2.5 -1.9 -3.9 -3 -2.2 -1.1 1.7 -2.3 -0.5 -1.5 -2.9 0.4 -1.4 -0.1 -2 -1.9 -2.5 -1.5 -0.4 -2.6 -1.4 -2.8 -2.9 -0.2 -1.3 -0.9 -2.1 -1.8 -2 -2.1 0.4 -4.8 -6.3 -5.5 -13 -0.1 -1.8 -1.2 -5 -2.4 -7.2 -1.1 -2.2 -2.1 -5.2 -2.1 -6.8 0 -1.6 -1.2 -6.3 -2.6 -10.5 -2.8 -8.4 -3.2 -10.1 -4.2 -18.2 -0.7 -5.1 -0.8 -5.3 -2 -3.2 -1.1 1.9 -1 3.6 0.4 10.2 1 4.4 1.4 8.3 1.1 8.7 -0.4 0.4 -2.2 -0.8 -4 -2.5 -1.8 -1.8 -4.3 -3.2 -5.6 -3.2 -2.7 0 -6.1 -1.7 -6.1 -3 0 -0.6 0.6 -1 1.4 -1 0.8 0 3.2 -2.1 5.3 -4.6 l3.9 -4.5 -0.2 -10.2 c-0.1 -7.9 -0.6 -11.3 -2.3 -15 -2.5 -5.7 -2.6 -7.4 -0.7 -7.9 1.1 -0.2 1.1 -1.1 0 -5.3 -0.7 -2.7 -1.3 -6.6 -1.4 -8.5 0 -1.9 -0.6 -5.7 -1.3 -8.4 -1.4 -5.4 -2.5 -5 -4.6 1.5 -2.2 6.9 -1.6 13.9 1.8 20.4 1.7 3.3 3.4 8.1 3.7 10.8 l0.7 4.7 -3.7 0 c-4.4 0 -4.6 -1.4 -0.6 -3.5 3.7 -1.9 3.1 -3.5 -1.3 -3.6 -2.7 0 -2.9 -0.2 -1.2 -0.9 1.9 -0.8 1.9 -0.9 0.1 -0.9 -1.1 -0.1 -1.7 -0.4 -1.3 -0.7 0.3 -0.3 -0.6 -1.6 -2.1 -2.9 -5.3 -4.4 -10.2 -5.9 -10.2 -3.1 0 1.7 -2.4 2.8 -4.4 2 -1.3 -0.5 -1.3 -0.1 -0.3 2.6 0.7 1.7 2 3.3 3.2 3.5 1.1 0.2 3.8 0.7 6 1.2 l4 0.7 -3.4 0.4 c-4.9 0.5 -9.2 -0.5 -12.1 -2.8 -1.5 -1.2 -1.8 -1.8 -0.8 -1.4 1.2 0.4 1.8 0.1 1.8 -1 0 -0.9 -0.7 -1.6 -1.5 -1.6 -0.9 0 -1.8 -0.6 -2.1 -1.4 -0.3 -0.8 -1.2 -1.2 -2 -0.9 -1.6 0.6 -1.9 -1.2 -0.4 -2.2 0.6 -0.3 1 -2.6 1 -5.1 0 -3.2 0.4 -4.4 1.5 -4.4 0.8 0 1.5 -0.6 1.5 -1.4 0 -0.8 0.5 -1.6 1.1 -1.8 1.3 -0.4 4.9 -10.3 4.9 -13.4 0 -1.8 1 -2.6 5.1 -3.9 4.3 -1.5 5.3 -1.5 6 -0.4 0.9 1.5 1.3 3.5 0.9 5.9 -0.1 0.9 0.7 0.5 2 -1 1.5 -1.8 2 -3.4 1.8 -5.7 -0.4 -3.1 -0.3 -3.2 1.4 -1.6 1.8 1.6 1.9 1.4 1.4 -5.8 -0.7 -10.2 -1.5 -13.5 -4 -15.9 -16.2 -15.4 -17.7 -16.4 -28.5 -18.5 -3.2 -0.7 -3.3 -0.9 -2.7 -4.3 0.3 -2 0.1 -4.1 -0.4 -4.7 -1.2 -1.4 -2.9 -12.5 -1.9 -12.5 0.4 0 1 0.6 1.2 1.3 0.3 0.6 0.6 -0.2 0.6 -2 0.1 -2.5 -0.2 -3.1 -1.4 -2.7 -1.9 0.8 -2.1 -3.2 -0.2 -3.9 0.9 -0.4 0.8 -0.8 -0.3 -1.6 -1.2 -0.8 -1.5 -3.6 -1.3 -15.8 0.2 -16.5 0.3 -17.4 2.2 -19.7 0.7 -0.9 1.1 -2.5 0.8 -3.6 -0.3 -1.1 -0.1 -2.3 0.4 -2.6 0.6 -0.3 0.5 -1.1 -0.2 -2 -0.7 -0.8 -1.1 -4.3 -0.9 -8.6 0.1 -4 0.2 -8.7 0.1 -10.5 0 -1.8 0.4 -4.4 0.9 -5.8 0.6 -1.5 0.7 -3.1 0.4 -3.7 -0.3 -0.5 -0.8 -3.7 -1 -7.1 -0.3 -3.4 -1 -6.5 -1.7 -6.9 -0.7 -0.4 -1.2 -1.1 -1.2 -1.5 0 -1.3 -4.8 -6.3 -5.9 -6.3 -1.6 0 -3.8 -3.9 -3 -5.2 0.4 -0.7 0.3 -0.8 -0.4 -0.4 -1.9 1.1 -1.4 -0.5 0.6 -2 1.6 -1.3 1.6 -1.3 0 -1.4 -1.3 0 -1.8 -0.8 -1.8 -2.7 0 -2.2 0.2 -2.5 1 -1.3 0.6 0.9 1 1 1 0.3 0 -0.6 -0.4 -1.4 -0.8 -1.7 -0.5 -0.3 -0.5 -2.9 -0.1 -5.8 0.3 -2.9 0.6 -8.8 0.5 -13.1 -0.2 -4.3 0.1 -8 0.6 -8.3 0.4 -0.3 0.8 1.1 0.8 3 0 1.9 0.5 3.8 1.2 4.2 1.8 1.1 5.8 1.3 5.8 0.3 0 -0.5 -0.4 -0.9 -1 -0.9 -0.5 0 -1 -0.9 -1 -2 0 -1.1 -0.6 -2 -1.3 -2 -1.5 0 -4 -6.2 -2.8 -6.9 0.4 -0.4 1 -1.3 1.3 -2.1 0.8 -2 3.8 4.8 3.1 6.9 -0.4 1.2 -0.3 1.3 0.4 0.3 0.5 -0.7 1.7 -1 2.5 -0.7 1.6 0.6 4.8 -1.8 4.8 -3.6 0 -0.6 -0.7 -0.3 -1.6 0.6 -2.2 2.2 -3.9 1.4 -3.9 -2 -0.1 -1.6 -0.5 -3 -1.1 -3.2 -1.4 -0.5 -0.4 -8 1.2 -9.4 1.2 -0.9 1.4 -0.5 1.4 2.4 0 2 0.7 4.2 1.5 5 0.8 0.8 1.2 1.7 0.9 2 -0.3 0.2 0.4 0.7 1.5 1 2.5 0.6 3.3 -1.5 2.5 -5.9 -0.8 -4.5 0.5 -13.7 1.6 -10.9 0.7 1.8 0.8 1.8 1.5 -0.7 0.4 -1.6 1.2 -2.8 1.7 -2.8 2 0 7.8 8.7 7.8 11.9 0.1 1.4 0.2 1.4 1.1 -0.2 0.8 -1.3 0.7 -2.2 -0.1 -3.2 -0.6 -0.8 -1 -2.2 -0.8 -3.2 0.3 -1.4 0.9 -1 2.9 1.9 2.3 3.5 2.7 3.6 4.2 2.1 1.4 -1.4 1.8 -1.4 3.3 -0.2 1.6 1.3 1.7 1.2 1 -1.1 -1.6 -6.1 -1.7 -7.9 -0.3 -12 l1.4 -4.2 0.5 4.7 c0.5 3.6 1.2 5.3 3.4 7 1.5 1.2 2.5 2.6 2.1 3.1 -0.7 1.2 1.4 3.8 3.3 4.2 0.9 0.1 0.5 -0.7 -1 -1.9 -2.4 -2.2 -2.4 -2.2 -0.2 -1.6 1.2 0.3 2.2 0.4 2.2 0.2 0 -0.1 -1.6 -2.9 -3.5 -6.1 -4.1 -6.7 -4.3 -9.8 -1.3 -15.1 4.2 -7.3 9.7 -11.3 9.2 -6.7 -0.1 1.4 -0.7 3 -1.2 3.7 -0.5 0.7 -0.6 2.1 -0.1 3.2 0.4 1.1 0.8 1.4 0.8 0.8 0.2 -2.3 0.3 -2.8 1.4 -4.8 0.6 -1.1 1.2 -3.8 1.3 -6 0.3 -5.5 0.3 -5.2 1.7 -6.7 0.6 -0.7 2.6 -4 4.2 -7.4 2.1 -4.3 3.9 -6.5 6 -7.4 1.7 -0.7 3.4 -1.8 3.8 -2.4 0.6 -0.8 1 -0.7 1.4 0.2 0.2 0.6 1.1 1.2 1.9 1.2 0.8 0 1.4 0.5 1.4 1 0 0.6 -0.5 1 -1.1 1 -0.5 0 -0.8 0.4 -0.5 0.9 0.4 0.5 0.2 1.1 -0.3 1.3 -0.6 0.1 -1.3 2.3 -1.6 4.8 l-0.6 4.5 2.1 -4.4 c1.2 -2.4 3 -4.6 4.1 -4.8 2.4 -0.7 2.5 -3.2 0.2 -4.9 -1.7 -1.3 -1.7 -1.3 0 -1.4 0.9 0 1.7 -0.7 1.7 -1.5 0 -0.8 0.9 -1.5 1.9 -1.5 1.1 0 2.3 -0.4 2.6 -1 0.3 -0.5 1.3 -1 2.1 -1 1.2 0 1.2 0.4 0.2 2.2 -0.7 1.3 -2.1 2.9 -3 3.6 -1 0.7 -1.8 2.6 -1.8 4.1 0 1.5 -0.8 5 -1.7 7.7 -1.7 4.8 -1.7 4.8 -2.3 1.9 l-0.6 -3 -1.8 3.8 c-2.1 4.2 -1.5 5.7 1.4 3.9 1.7 -1 2 -1 2 0.5 0 1.1 0.3 1.4 0.8 0.7 0.4 -0.6 1.4 -1.3 2.3 -1.6 0.8 -0.3 2.6 -2.9 3.9 -5.7 2.5 -5.1 4.8 -7.1 3.4 -2.9 -1.7 5.4 -3.6 8.8 -5.4 9.8 -1.2 0.6 -2 2.1 -2 3.6 0 3.3 -1.7 6.4 -3.4 6.4 -0.8 0 -1.9 1.4 -2.5 3.1 -1.6 4.6 -1.4 4.8 1.1 0.9 l2.2 -3.5 0.7 3 0.7 3 0.1 -2.7 c0.1 -3 5.1 -11.2 5.1 -8.4 0 1 0.5 1.4 1 1.1 0.6 -0.4 0.8 -1 0.5 -1.5 -0.9 -1.4 1.8 -6.1 3.2 -5.6 0.7 0.3 1.3 0.1 1.3 -0.4 0 -0.6 -0.4 -1 -1 -1 -2.2 0 -0.8 -4 2 -6 1.7 -1.2 2.8 -2.5 2.5 -3 -0.3 -0.5 0.4 -1.1 1.5 -1.5 1.1 -0.3 2 -1.1 2 -1.6 0 -0.6 1.3 -1.5 2.9 -2 1.6 -0.6 3.2 -1.7 3.5 -2.5 0.3 -0.8 1.3 -1.4 2.2 -1.4 1.5 0 1.6 0.2 0.2 1.8 -2 2.3 -3 5.2 -1.8 5.2 0.6 0 1 -0.5 1 -1.1 0 -0.8 0.5 -0.8 1.5 0.1 1.2 1 1.5 1 1.5 -0.4 0 -0.9 0.6 -1.6 1.4 -1.6 0.7 0 1.9 -0.7 2.6 -1.5 0.7 -0.8 1.9 -1.5 2.7 -1.5 0.9 0 0 1.7 -2.4 4.5 -2.1 2.5 -4.3 4.3 -5 4.1 -0.8 -0.4 -1.3 0.3 -1.3 1.9 0 1.8 -0.5 2.5 -2 2.5 -1.1 0 -2 0.5 -2 1.1 0 0.5 -0.4 0.8 -1 0.4 -1.1 -0.6 -2.6 0.9 -7.6 7.7 -4.2 5.8 -4.4 7.1 -0.4 3.3 1.6 -1.6 3 -3.4 3 -4 0 -1.4 4.8 -6 5.5 -5.3 0.3 0.2 -0.4 1.3 -1.5 2.3 -2 1.8 -2.7 4.5 -1.1 4.5 0.5 0 1.4 -0.7 2.1 -1.5 0.7 -0.8 1.6 -1.2 2.1 -0.9 0.5 0.3 0.6 -0.1 0.3 -0.9 -0.3 -0.8 1.2 -3.2 3.5 -5.5 2.3 -2.3 4.1 -4.7 4.1 -5.5 0 -0.7 1.9 -3 4.1 -5 3.3 -2.8 4.6 -3.4 6.3 -2.7 1.3 0.5 2 1.5 1.8 2.6 -0.2 1.8 -0.2 1.8 0.8 0.2 0.6 -1 1.9 -1.8 2.8 -1.8 0.9 0 -0.4 -1 -3 -2.3 -3.1 -1.4 -4.8 -2.8 -4.8 -3.9 0 -2 2.5 -2.4 3.6 -0.6 0.4 0.6 0.3 0.8 -0.4 0.4 -0.6 -0.3 -1.3 -0.2 -1.7 0.4 -0.3 0.5 0.3 1 1.4 1 1.2 0 2.1 -0.5 2.1 -1.1 0 -0.6 0.8 -1.8 1.7 -2.7 1.6 -1.6 1.6 -1.6 1 0.1 -0.6 1.5 -0.3 1.7 1.6 1.1 1.2 -0.3 2.7 -1 3.3 -1.5 1.4 -1.1 13.8 -1.9 12.7 -0.8 -0.4 0.4 -1.9 1 -3.3 1.2 -1.4 0.3 -3.8 1.3 -5.5 2.2 l-3 1.6 3.4 -0.5 c2.4 -0.3 3.1 -0.2 2.3 0.6 -0.7 0.7 -0.8 1.7 -0.1 2.9 0.7 1.5 0.6 1.7 -0.6 1.3 -0.8 -0.3 -1.2 -1 -0.9 -1.5 0.3 -0.5 -1.1 -0.8 -3 -0.7 -2 0.2 -3.6 0.6 -3.6 0.9 0 0.7 5.3 1.8 10.2 2.2 3.9 0.3 4.4 1.4 0.9 2.2 -2.6 0.6 -3 1.1 -2.7 3.1 0.3 1.3 0 2.6 -0.5 2.9 -0.5 0.4 -0.9 0 -0.9 -0.8 0 -2.1 -7.5 -4.4 -8.6 -2.6 -0.3 0.5 0.5 0.9 1.7 0.9 1.3 0 3.5 1.1 4.9 2.5 2.4 2.3 2.7 2.4 4.8 0.9 1.2 -0.8 2.2 -2.2 2.2 -3.1 0 -1.3 0.8 -1.4 4.6 -0.8 3.5 0.5 6.1 0.1 11.1 -1.6 5.3 -1.9 6.8 -2.1 8.4 -1.1 1.1 0.7 2.4 1 2.9 0.7 0.6 -0.4 1 -0.2 1 0.4 0 1.4 -5.3 4.1 -7.9 4.1 -1.1 0 -2.2 0.4 -2.5 0.9 -0.3 0.5 -2.7 1.2 -5.3 1.6 -2.9 0.4 -6.9 2 -10 4.1 -2.9 1.9 -6 3.4 -6.9 3.4 -1.2 0 -1.4 0.3 -0.6 1.3 0.8 1 0.6 1.6 -0.9 2.5 -2 1.3 -2.6 3.2 -0.9 3.2 0.5 0 2.8 -1.8 5.2 -4 2.3 -2.2 4.8 -3.8 5.5 -3.6 0.7 0.3 1.3 -0.1 1.3 -0.8 0 -1.1 8.4 -4.6 11.2 -4.6 0.6 0 0.3 1.2 -0.7 2.6 -2.4 3.6 -1.2 4 2.8 1 2.1 -1.7 5.8 -3.1 9.6 -3.7 3.3 -0.6 6.1 -1.5 6.1 -2 0 -0.4 0.7 -0.6 1.5 -0.3 0.8 0.4 1.5 0.2 1.5 -0.4 0 -0.5 1 -1 2.3 -1 1.2 0 4 -0.3 6.2 -0.6 2.2 -0.4 4.7 -0.2 5.5 0.3 1.3 0.9 1.2 1.3 -0.7 2.6 -1.3 0.9 -2.3 2.2 -2.2 2.8 0 0.9 0.2 0.9 0.6 0 1 -2.6 16.3 -0.8 16.3 1.8 0 0.5 -1 0.9 -2.2 0.9 -1.5 0 -1.9 0.3 -1.1 1.1 1.3 1.3 6.3 0.1 6.3 -1.6 0 -1.9 -4 -4.2 -9 -5 -4.1 -0.7 -4.3 -0.9 -2.1 -1.6 1.5 -0.6 3.6 -0.5 5.8 0.3 3.1 1.1 3.6 1.1 4.9 -0.6 0.8 -1.1 1.7 -1.6 2.1 -1.3 0.3 0.4 -0.2 1.3 -1.2 2.1 -1.9 1.3 -1.7 1.6 2.3 5.5 2.7 2.6 5.7 4.5 8.7 5.2 5 1.3 5.3 3.1 0.3 2 -1.8 -0.4 -10.5 -0.7 -19.4 -0.7 -15.4 0.1 -16.2 0.2 -19.6 2.6 -2 1.3 -3.4 2.8 -3.1 3.3 0.2 0.4 1.1 0.3 1.9 -0.4 0.8 -0.6 1.7 -0.9 2 -0.6 0.3 0.3 -1.3 1.6 -3.5 2.9 -3.4 1.9 -5.2 3.8 -3.7 3.8 1.2 0 7.6 -3.1 8.1 -4 0.4 -0.6 1.1 -0.8 1.6 -0.4 0.5 0.3 0.7 1 0.4 1.5 -0.3 0.5 0.1 0.6 0.9 0.3 0.9 -0.3 1.4 -0.9 1.2 -1.3 -0.2 -0.3 3.3 -0.4 7.7 -0.3 8.2 0.4 8.2 0.4 5.2 2 -1.6 0.9 -4.6 2.1 -6.5 2.8 -4.8 1.7 -5.3 3.7 -0.7 2.9 3.4 -0.7 5.8 0.7 3.7 2 -2 1.2 -1 2.6 1.1 1.5 1.1 -0.6 3 -1 4.2 -0.8 1.2 0.2 2.7 -0.3 3.3 -1.2 1 -1.2 2.3 -1.3 9.5 -0.1 4.6 0.7 10.4 1.5 12.9 1.8 2.5 0.3 5.2 1.3 6 2.3 1.5 1.8 6 3.7 6 2.5 0 -0.3 -1.6 -2.1 -3.5 -4.1 -1.9 -1.9 -3.5 -3.8 -3.5 -4.3 0 -0.4 3.7 -0.2 8.1 0.6 6.2 1.1 9.4 1.1 13.1 0.4 6 -1.3 8.1 -1.4 7.4 -0.2 -0.4 0.5 0.3 0.7 1.5 0.4 1.6 -0.5 1.8 -0.8 0.7 -1.5 -0.9 -0.7 -0.7 -0.8 0.8 -0.4 2.3 0.7 5.9 -1.5 5.9 -3.6 0 -0.7 1.8 -2.1 4 -3.2 2.2 -1 4.3 -2.3 4.6 -2.8 0.3 -0.5 0.9 -0.8 1.2 -0.6 0.3 0.1 1.8 -1.3 3.3 -3.2 1.5 -1.9 2.4 -2.7 2.1 -1.7 -0.4 0.9 -0.2 1.7 0.4 1.7 0.6 0 1.3 -0.9 1.6 -2 0.3 -1.1 1.3 -2 2.3 -2 1 0 2.7 -0.3 3.7 -0.7 1.7 -0.7 1.7 -0.6 0.1 1.1 -2.2 2.1 -2.3 2.7 -0.3 2 0.8 -0.4 1.5 -0.2 1.5 0.4 0 1.3 -8.4 6.2 -11.8 6.8 -3.1 0.6 -2.8 0.3 -3.7 3.2 -0.6 2.1 -0.4 2.3 1.4 1.7 1.2 -0.3 2.1 -0.2 2.1 0.3 0 1.6 -2.3 2 -4.2 0.8 -1.3 -0.8 -2.2 -0.5 -4 1.1 -1.3 1.2 -3.6 2.5 -5.3 2.9 -4.8 1.1 -5.9 2.4 -3.5 4.1 1.9 1.3 2.7 1.3 7 -0.1 2.7 -0.9 5.6 -1.6 6.4 -1.6 0.9 0 1.6 -0.5 1.6 -1.1 0 -0.6 0.7 -0.8 1.6 -0.5 0.8 0.3 1.3 0.2 1 -0.3 -0.3 -0.4 0.6 -1.4 2 -2.1 1.6 -0.9 2 -1.6 1.3 -2.1 -0.8 -0.4 -0.4 -1.1 1 -1.9 1.6 -0.8 2 -1.7 1.6 -3.1 -0.8 -2.5 1.9 -3.6 4.2 -1.8 1.4 1.2 1.5 1.1 0.9 -0.7 -0.5 -1.5 -0.2 -2.4 1 -2.8 1.1 -0.4 1.4 -1.3 1.1 -2.7 -0.6 -2.4 1.7 -3.7 3.7 -2 2.2 1.8 3.1 -0.7 1.1 -2.9 -1.5 -1.7 -1.5 -1.9 0.7 -3.4 3.4 -2.4 0.6 -1.9 -5.6 0.9 -6.9 3.2 -7.5 3.1 -3.7 -0.2 1.7 -1.5 3.1 -3.3 3.1 -4 0 -0.6 0.9 -1.8 2 -2.6 1.7 -1.2 1.8 -1.6 0.6 -2 -0.8 -0.3 -2 0.1 -2.6 0.9 -0.7 0.8 -1.6 1.4 -2.1 1.4 -1.6 0 -0.9 -2.5 1.6 -5.2 2.3 -2.7 4.3 -3.8 3 -1.8 -0.3 0.6 0.4 1 1.5 1 1.5 0 2 0.5 1.7 1.3 -0.4 1 0.2 1.3 1.9 0.9 1.3 -0.2 2.4 -0.8 2.4 -1.3 0 -0.5 0.7 -0.9 1.5 -0.9 0.8 0 1.5 -0.5 1.5 -1 0 -0.6 1.3 -1.8 2.9 -2.8 1.5 -0.9 2.8 -2.1 2.8 -2.7 0 -0.5 1.5 -1.9 3.3 -2.9 l3.2 -1.9 -2.6 4.1 c-1.4 2.3 -2.6 4.5 -2.5 4.9 0.3 1.9 -0.2 3.3 -1.1 3.3 -0.5 0 -0.7 -0.8 -0.4 -1.7 0.5 -1.7 0.5 -1.7 -0.6 0 -0.6 0.9 -1.7 1.7 -2.4 1.7 -0.8 0 -1.6 0.7 -2 1.5 -0.3 0.8 -1.6 1.5 -2.8 1.5 -1.3 0 -4.1 1.2 -6.3 2.6 -4.5 2.8 -2.1 2.5 5.4 -0.7 4.5 -2 6.4 -1.8 4.3 0.3 -1.8 1.8 -1.5 4.8 0.5 4.8 0.9 0 1.3 0.3 0.9 0.7 -0.4 0.4 -2.4 0.7 -4.4 0.5 l-3.7 -0.1 3.5 1.5 c1.9 0.9 4.3 2.3 5.2 3.1 1 0.9 2.5 1.2 3.9 0.8 2.1 -0.7 2.1 -0.7 -0.7 -3.1 -2.8 -2.3 -2.8 -2.4 -0.8 -3 1.1 -0.3 2.5 -1.8 3.1 -3.2 0.9 -2.4 1 -2.2 1 2.3 0 2.8 0.5 6.4 1.3 8 0.7 1.7 1.2 3.8 1.1 4.8 -0.2 1.5 0.2 1.7 1.8 1.2 1.5 -0.5 2.1 -0.2 2.1 0.9 0 0.9 0.5 1.6 1 1.6 0.6 0 1 -1.2 1 -2.6 0 -1.4 0.4 -2.3 1 -1.9 0.5 0.3 1 0.2 1 -0.4 0 -0.5 1 -1.3 2.1 -1.6 1.7 -0.6 1.9 -0.9 0.8 -1.6 -2.2 -1.4 1 -3 4.8 -2.4 1.7 0.3 3.4 0.1 3.8 -0.5 0.3 -0.5 0 -1 -0.7 -1 -0.7 0 0.2 -0.8 2 -1.7 2.8 -1.4 3.6 -1.4 6 -0.2 1.5 0.7 3 1.5 3.4 1.7 0.5 0.2 0.8 -0.3 0.8 -1.1 0 -1.1 1.3 -1.4 5.3 -1.3 4.6 0 5.3 0.3 5 1.7 -0.3 1 -1.6 2.7 -2.9 4 -1.3 1.2 -2.4 2.9 -2.4 3.6 0 0.9 1.3 0.2 3.3 -1.6 4.5 -4.3 5.4 -3.8 1.6 0.9 -1.8 2.2 -4 4 -4.9 4 -0.9 0 -2.5 1 -3.6 2.1 l-1.9 2.1 4 -1.7 c2.2 -1 4.9 -1.9 6 -2 1.1 -0.2 2.2 -0.4 2.5 -0.4 0.3 -0.1 -0.1 -0.5 -0.9 -1 -1.2 -0.8 -0.8 -1.5 1.9 -3.8 4.3 -3.6 7 -4.7 7 -2.8 0 1.6 -8.8 10.6 -14.7 15 -2.2 1.7 -4.6 4.4 -5.3 6 -0.8 1.7 -1.6 3.5 -1.8 4 -1.3 2.5 3 -2.2 5.4 -5.9 2.5 -3.9 8.4 -7.8 8.4 -5.5 0 0.5 -0.7 0.9 -1.5 0.9 -0.8 0 -1.9 0.9 -2.5 2 -0.6 1.1 -0.8 2 -0.4 2 0.4 0 0 0.8 -0.9 1.8 -1.1 1.2 -1.4 2.6 -1 4.2 0.6 2.2 0.4 2.3 -0.9 1.3 -1.2 -1.1 -1.8 -1 -3.2 0.5 -1.8 2.1 -1 3.8 1.1 2 2 -1.6 2.7 -0.3 0.8 1.6 -1.9 1.9 -3.5 2.1 -3.5 0.4 0 -0.6 -0.8 -0.3 -2 0.7 -2.4 2.2 -1.9 3.3 1.4 3 2.9 -0.4 2.6 2.1 -0.4 3 -1.8 0.6 -3.5 4.5 -1.9 4.5 0.5 0 0.9 -0.4 0.9 -1 0 -0.5 0.9 -1 2 -1 1.4 0 2 0.7 2.1 2.3 0.1 1.2 0.5 0.4 0.8 -1.8 l0.6 -4 6.3 -0.1 c6.1 -0.1 8.1 0.9 4.2 2.1 -3 0.9 -2.4 2.6 0.8 2.3 1.5 -0.1 3.4 0.2 4.2 0.7 1.4 0.9 3.6 1.2 10.8 1.6 1.2 0.1 2.2 0.8 2.2 1.6 0 0.8 0.5 1.1 1 0.8 0.6 -0.3 1 0.3 1 1.4 0 1.3 -0.7 2.1 -1.7 2.1 -0.9 0 -2.7 1 -4 2.1 -2 2 -2.3 2 -2.9 0.5 -0.3 -0.9 -1.2 -1.6 -1.9 -1.6 -0.7 0 -1.8 -0.7 -2.5 -1.5 -1.7 -2 -3 -1.9 -3 0.3 0 2.3 1.9 4.2 4.2 4.2 2.3 0 2.3 0.4 -0.4 3.5 -1.2 1.4 -3 2.5 -4 2.5 -2.4 0 -5.8 1.8 -5.8 3 0 1.5 2 1.2 6.7 -1.1 2.3 -1.1 4.9 -1.9 5.5 -1.6 0.8 0.3 0.3 0.9 -1.2 1.6 -1.4 0.7 -3.6 1.8 -5 2.6 -1.4 0.8 -3.2 1.5 -4 1.5 -2.1 0 -8 3.7 -8 5 0 0.7 2.1 0.9 6.3 0.4 3.4 -0.3 8.7 -0.8 11.7 -1 l5.5 -0.3 -5 1.4 c-2.7 0.7 -6 1.4 -7.3 1.4 -1.9 0.1 -2.2 0.5 -1.6 2.4 0.9 3.2 2.7 5.9 1.9 3 -0.5 -1.9 0 -2.5 3.1 -3.8 2 -0.8 5.3 -1.5 7.3 -1.4 3.2 0 3.3 0.1 1.4 0.9 -3.5 1.4 -2.7 2.3 1.2 1.7 3.3 -0.5 4.9 0.6 2.3 1.6 -0.7 0.2 -1 0.7 -0.7 1.1 1.1 1.2 7.1 -1.6 6.5 -3 -0.3 -0.8 -0.1 -1.4 0.3 -1.4 1.3 0 2.1 2.7 1.4 4.6 -0.4 1 0.1 1.7 1.6 2.1 2 0.5 2.7 2 3.4 7 0.2 1.2 0.7 2.6 1.1 3 0.9 0.8 0.2 -7.4 -1 -11.4 -0.5 -1.8 -0.2 -2.3 1.3 -2.3 2.3 0 5.8 7.6 4.7 10.4 -0.4 0.9 -0.1 1.6 0.6 1.6 0.9 0 1 -1.6 0.5 -6.2 -0.7 -5.6 -0.6 -6.1 0.8 -4.9 0.9 0.7 2.2 1.1 2.9 0.8 0.8 -0.3 -0.1 -1.1 -1.9 -1.8 -3.9 -1.6 -4.4 -3.2 -0.7 -2.3 1.7 0.4 2.9 0.2 3.5 -0.7 0.7 -1.2 0.9 -1.2 1 0.1 0.6 6 0.4 7.8 -1.3 10.2 -2.3 3.3 -2.3 4.1 0.1 3.3 1.1 -0.3 2.3 0 2.7 0.7 0.4 0.6 0.2 1.4 -0.4 1.6 -0.7 0.2 -1.2 1.1 -1.2 2.1 0 0.9 -0.9 2.3 -2 3.1 -1.1 0.8 -2 1.8 -2 2.2 0 0.4 0.9 0.8 2 0.8 1.1 0 2 -0.4 2 -1 0 -0.5 0.7 -1 1.5 -1 2.3 0 0.7 9.8 -2.2 13 -1.4 1.5 -2.3 1.9 -2.3 1.1 0 -1 -0.3 -1.1 -1.4 -0.2 -1 0.9 -1.2 2 -0.6 4.1 0.7 2.3 0.5 3.2 -0.7 3.8 -1.1 0.7 -1.3 1.6 -0.8 3.3 0.8 2.3 0.8 2.3 1.5 0.4 0.8 -1.9 0.8 -1.9 1.7 0.4 0.8 1.9 0.5 2.9 -1 4.4 -1.6 1.6 -1.7 2.1 -0.6 2.8 0.9 0.6 1 0.9 0.2 0.9 -1.5 0 -2.2 14.2 -0.8 15.2 0.6 0.4 0.2 0.8 -0.7 0.8 -1.1 0 -1.8 0.8 -1.8 2 0 1.1 -0.4 2 -1 2 -0.5 0 -1 1.2 -1 2.8 0 1.5 -0.4 3.3 -0.8 4 -1.3 2 -17.1 9.2 -20.3 9.2 -1.6 0 -2.9 0.5 -2.9 1 0 0.6 -0.9 1 -2 1 -1.1 0 -2 0.5 -2 1 0 0.6 -0.9 1 -2 1 -1.3 0 -2 0.7 -2 1.8 0 1.1 -1.3 2.3 -3.5 3.1 -2.9 1 -3.5 1.7 -3.5 4.1 0 1.6 -0.4 3.2 -1 3.5 -0.5 0.3 -1 1.5 -1 2.5 0 1 -0.4 2 -0.8 2.2 -1.7 0.7 -7.2 10.1 -7.2 12.3 0 1.4 -0.8 4.7 -1.9 7.4 -1 2.8 -1.6 5.2 -1.4 5.5 0.3 0.3 0 2.9 -0.7 5.8 -0.6 2.9 -1.6 7.6 -2.2 10.3 -0.6 2.8 -1.9 5.6 -3 6.4 -1.5 1 -1.8 2.1 -1.4 4.5 0.3 1.7 0.1 10.1 -0.4 18.5 -0.7 10.6 -0.7 15.8 0 16.5 1.5 1.5 1.2 4.6 -0.3 4.6 -1.1 0 -1.2 1.1 -0.5 5.7 0.5 3.1 1.4 6.3 2 7 0.7 0.9 0.7 1.3 0 1.3 -0.6 0 -0.9 0.7 -0.5 1.6 0.3 0.9 0 1.9 -0.6 2.3 -0.8 0.5 -1 1.8 -0.5 3.5 l0.7 2.8 2.3 -2.8 c1.3 -1.5 2.4 -3.3 2.4 -4.1 0 -1.8 4.7 -3.5 7.2 -2.7 1.7 0.5 1.9 1.2 1.5 4.1 -0.4 2 -1.7 4.7 -2.9 6.1 l-2.3 2.5 2.3 -1.2 c2.2 -1.2 2.3 -1.1 1.3 0.8 -1.4 2.5 -8 4.6 -11.5 3.7 -2.4 -0.6 -2.6 -1 -2.1 -3.9 0.5 -2.5 0.2 -3.7 -1.3 -5 -1.8 -1.7 -1.9 -2.1 -0.6 -6.4 1.3 -4.4 1 -11.3 -0.5 -11.3 -0.4 0 -1.2 3.9 -1.9 8.8 -2.2 17 -2.3 18 -0.6 18.6 0.9 0.3 2 0.4 2.5 0 0.5 -0.3 0.9 0 0.9 0.6 0 0.7 -0.9 1.4 -2 1.7 -1 0.3 -2.2 1.4 -2.5 2.4 -0.4 1.1 -1.1 1.7 -1.6 1.4 -1 -0.7 -1 -0.9 -1.3 7 -0.2 6.1 1.5 12.5 3.3 12.5 0.6 0 1.1 0.5 1.1 1 0 0.6 -0.7 1 -1.6 1 -0.8 0 -1.2 0.5 -0.9 1 1.1 1.7 -0.3 1.1 -2.3 -1 -1.9 -2 -1.9 -2 -3.8 2 -2.8 5.9 -4.2 5.1 -3.3 -1.8 0.3 -3.2 1.1 -6.7 1.7 -7.8 0.5 -1 1.5 -5.5 2.2 -9.9 1.8 -11.7 7.7 -41.1 9.5 -47.5 1 -3.3 1.9 -11 2.2 -19.1 0.5 -12.5 0.3 -14.8 -2.6 -29.4 -2.4 -11.8 -3.4 -20.1 -3.9 -32.4 l-0.8 -16.6 -0.8 11.3 c-0.5 6.2 -1 11.1 -1.2 10.9 -0.3 -0.2 -0.7 -4.4 -0.9 -9.3 -0.4 -6.9 -0.9 -9.5 -2.5 -11.6 -1.2 -1.6 -1.9 -3.2 -1.6 -3.7 0.3 -0.5 -0.4 -1.1 -1.5 -1.4 -1.4 -0.4 -2 -1.1 -1.6 -2 0.3 -0.8 -0.8 -2.8 -2.6 -4.5 -3 -2.9 -3.6 -3.1 -8.7 -2.6 -6.2 0.6 -6.2 0.6 -14.5 0.3 -3.3 -0.1 -7.7 0.3 -9.8 1 -2.1 0.7 -8.1 1.3 -13.3 1.4 -8.5 0 -9.6 -0.2 -11.9 -2.3 -1.4 -1.3 -2.5 -3.1 -2.5 -4.1 0 -0.9 -0.6 -1.9 -1.2 -2.2 -2.3 -0.8 5.5 -7.8 9.8 -8.7 5.3 -1.3 10.4 -1.3 8.5 -0.1 -1.1 0.7 -0.6 1.1 2 1.5 5.2 0.8 15.9 0.2 15.9 -0.9 0 -1.4 4.9 -3.5 8.1 -3.5 3.3 0 4.2 -1 2.8 -3 -0.8 -1.2 -1.2 -1.2 -1.6 -0.2 -0.2 0.6 -0.9 1.2 -1.4 1.2 -0.6 0 -0.8 -0.4 -0.4 -1 0.3 -0.5 -0.6 -1.7 -2 -2.6 -3.6 -2.3 -3.1 -3.1 2.2 -3.3 2.5 0 5.2 -0.6 5.9 -1.2 0.7 -0.6 1.7 -0.8 2.3 -0.5 0.5 0.3 1.1 0 1.4 -0.7 0.5 -1.4 -0.9 -5.7 -2 -5.8 -6.4 -0.7 -13.4 -3 -14 -4.6 -0.3 -0.7 -1.5 -1.3 -2.8 -1.3 -2.7 0 -8.5 -2.8 -8.5 -4.1 0 -0.6 -1.4 -1.5 -3 -2.1 -1.7 -0.5 -3.5 -1.9 -4.1 -2.9 -0.5 -1 -2 -1.9 -3.3 -1.9 -1.4 0 -3.7 -1.6 -6 -4 -2 -2.2 -4.1 -4 -4.6 -4 -0.5 0 -1.2 -1 -1.6 -2.2 -1 -3.5 -3.5 -5.8 -6.1 -5.8 -1.2 0 -2.3 -0.5 -2.3 -1.1 0 -0.6 -0.7 -0.8 -1.6 -0.5 -0.8 0.3 -1.3 0.2 -1 -0.3 0.8 -1.2 -3.2 -2.1 -6.5 -1.4 -2.1 0.4 -3 0.1 -3.5 -1.1 -0.3 -0.9 -1.1 -1.6 -1.6 -1.6 -0.5 0 -1.8 -1 -2.9 -2.3 -1 -1.2 -1.8 -1.7 -1.9 -1.1 0 1 -9.6 -3.3 -12.4 -5.5 -0.6 -0.5 -3.2 -1.2 -5.8 -1.5 -2.7 -0.4 -4.8 -1.1 -4.8 -1.6 0 -0.5 -0.6 -0.7 -1.2 -0.5 -0.7 0.3 -2.5 -0.6 -4 -2 -1.5 -1.4 -3.8 -2.5 -5.2 -2.5 -1.4 0 -2.8 -0.4 -3.1 -1 -0.3 -0.5 -1.6 -1 -2.8 -1 -1.2 0 -3.5 -0.7 -5.1 -1.5 -1.5 -0.8 -3.7 -1.5 -4.7 -1.5 -1.1 0 -1.9 -0.5 -1.9 -1.1 0 -0.7 -1.1 -0.9 -2.6 -0.6 -2.3 0.4 -2.5 0.2 -2 -2.2 0.3 -1.4 0.3 -2 0 -1.3 -0.8 1.7 -2.4 1.5 -2.4 -0.2 0 -1.8 -3.1 -2.9 -5.4 -2 -0.9 0.3 -2.3 0 -3.2 -0.7 -0.9 -0.7 -3.6 -1.2 -6.9 -1 -3.6 0.2 -7.6 -0.6 -12.7 -2.3 -4.1 -1.4 -9.5 -2.9 -12 -3.2 -3.7 -0.5 -4.5 -1 -4.1 -2.3 0.3 -1 0.2 -1.2 -0.4 -0.5 -0.4 0.6 -1.6 1.3 -2.5 1.7 -2.2 0.8 -2.4 4.7 -0.3 4.7 0.8 0 1.5 -0.4 1.5 -1 0 -0.5 1 -0.9 2.3 -0.9 1.8 0.1 1.8 0.2 0.4 0.6 -1.2 0.3 -1.6 1 -1.2 2.1 0.3 0.9 0.3 1.4 0 1 -0.3 -0.3 -1.7 0.4 -3.1 1.7 -2 1.9 -3 2.1 -5.9 1.5 -2.7 -0.6 -3.5 -0.4 -3.8 0.9 -0.3 1.2 -0.6 1 -1.5 -0.9 -0.9 -2.1 -1.4 -1.9 -1.1 0.7 0.1 0.9 -5.9 3.3 -8.2 3.3 -1.1 0 -1.9 0.4 -1.9 1 0 1.5 -4.2 6 -5.7 6 -0.7 0 -1.3 0.3 -1.3 0.8 0 0.4 -0.9 1.8 -2 3.2 -1.9 2.5 -1.9 2.5 -3.5 0.5 -1.6 -1.9 -1.6 -1.9 -1.2 1.2 0.2 1.8 0 3.3 -0.5 3.3 -0.4 0 -0.8 -0.4 -0.8 -1 0 -1.8 -2.1 -1 -4.5 1.7 -1.4 1.6 -2.3 3.3 -2 4 0.2 0.6 -0.3 1.7 -1.1 2.3 -1.2 1 -1.4 0.8 -1.4 -1.4 0 -1.4 -0.5 -2.6 -1.1 -2.6 -1.2 0 -0.8 8.2 0.5 9.1 0.5 0.4 -0.1 2.3 -1.3 4.3 -1.3 2 -1.9 3.6 -1.4 3.6 0.4 0 0.2 0.4 -0.6 0.9 -0.8 0.5 -2 2.8 -2.7 5.1 -1.2 4 -1.2 4.1 0.6 2.5 1.1 -1 2 -1.2 2.4 -0.6 0.4 0.5 0.2 1.2 -0.4 1.6 -1.5 1 -1.2 2.3 0.8 2.8 1.1 0.3 0.7 0.5 -1 0.6 -2 0.1 -2.6 0.6 -2.5 2.1 0.1 1 0.3 1.7 0.6 1.5 0.2 -0.3 1 0 1.6 0.5 1.3 1.1 0.9 5.7 -0.6 6.6 -1.2 0.7 -1.1 2.4 0.1 2.4 0.5 0 1.8 -1.7 2.9 -3.8 1.1 -2 2 -3 2.1 -2.1 0 0.9 -0.3 1.9 -0.7 2.3 -0.7 0.7 -0.9 1.6 -1.7 7.1 -0.3 1.7 -0.9 4.2 -1.5 5.7 -1.1 3 -5.1 7.4 -5.1 5.7 0 -0.5 -0.4 -0.8 -0.9 -0.5 -0.8 0.6 -2.1 6.1 -2.2 9.8 0 2.2 -1.5 3.2 -2.5 1.7 -0.3 -0.6 -1.5 1.3 -2.6 4.3 -1.1 2.9 -2.9 7.8 -4 10.8 -1.1 3 -2.3 6 -2.8 6.5 -1.5 2 -3.6 14.9 -4.6 29 -0.6 8.4 -3.4 26.6 -4.5 29 -1.3 2.9 -0.5 28.6 0.9 31 1 1.7 1.1 1.2 0.8 -3 -0.4 -4.1 -0.3 -4.6 0.5 -2.5 0.6 1.4 0.8 4.2 0.6 6.4 -0.4 2.5 0.1 5.3 1.4 8.4 1.4 3.1 1.6 4.9 0.9 5.6 -0.5 0.5 -1 1.9 -0.9 3 0 1.2 0.3 1.5 0.6 0.9 0.8 -2.1 3 -1.5 3.6 1 4.1 16.9 6.7 24.1 9.2 25.1 0.8 0.3 1.5 1.2 1.5 2.1 0 0.8 0.7 1.5 1.5 1.5 0.8 0 1.5 0.9 1.5 1.9 0 1.1 0.3 2.6 0.6 3.5 0.4 1.1 0.1 1.6 -1 1.6 -1 0 -1.6 0.9 -1.6 2.5 0 1.4 0.5 2.5 1 2.5 0.6 0 1 -0.7 1 -1.6 0 -2 2.7 -4.7 4 -3.9 1.5 0.9 1.2 2.5 -0.5 2.5 -0.8 0 -1.5 0.6 -1.5 1.4 0 0.8 -0.3 2.1 -0.6 3 -0.3 0.9 -0.1 1.6 0.4 1.6 0.6 0 1.3 -0.9 1.7 -1.9 0.3 -1.1 1.2 -1.8 1.9 -1.5 1.8 0.7 0.6 7.1 -2.2 11.6 -2.4 3.9 -2.8 5.8 -1.2 5.8 1.1 0 1.4 -0.7 2.4 -5.2 0.4 -1.9 1.2 -2.6 2.6 -2.5 1.7 0.1 2 0.8 1.9 4.7 -0.2 4.5 -0.2 4.5 -0.9 1 -0.5 -2.8 -0.8 -3.1 -1.5 -1.7 -0.4 1.1 -0.1 3.5 0.9 6 0.9 2.4 1.6 5 1.6 5.9 0 0.9 0.6 1.8 1.3 2.1 0.6 0.2 0.9 0.8 0.5 1.2 -1.1 1.1 -4 -1.6 -3.4 -3.2 0.3 -0.7 0.1 -1.3 -0.4 -1.3 -1.3 0 -1.7 3.2 -0.7 5.6 0.5 1.2 1.9 2.7 3.1 3.3 2.1 1.1 2.1 1.1 -0.1 0.5 -1.7 -0.4 -2.3 -0.1 -2.3 1.1 0 2.3 1.9 5.7 2.9 5.1 0.5 -0.3 1.6 1.2 2.6 3.4 1 2.2 2.2 4 2.7 4 0.4 0 0.8 1.3 0.8 2.9 0 3.9 1.7 4.8 3.1 1.7 0.9 -2 1.8 -2.4 4.5 -2.3 3.4 0.3 6.1 1.7 3.1 1.7 -1.8 0 -2.3 1.5 -0.8 2.4 1.4 0.9 3.1 -1.8 2.5 -4.1 -0.4 -1.3 -1.1 -2 -2 -1.6 -1.5 0.6 -2 -0.4 -2.8 -5.9 -0.2 -2.1 -0.1 -3.8 0.5 -3.8 0.5 0 0.9 1.2 0.9 2.8 0 3.3 4.1 7.5 6.4 6.6 1 -0.4 2.6 0.2 3.8 1.2 1.2 1.1 1.8 1.3 1.3 0.5 -0.6 -1.1 -0.4 -1.3 0.9 -0.8 1 0.4 2 0.7 2.2 0.7 0.2 0 0.4 0.7 0.4 1.6 0 0.8 0.5 1.2 1 0.9 2.1 -1.3 0.9 1.4 -1.2 3 -1.8 1.2 -2.1 1.9 -1.2 3.3 0.6 0.9 2 2.1 3.2 2.7 2.3 1 3 3.5 1 3.5 -0.9 0 -0.9 0.3 -0.1 1.1 0.7 0.7 1.9 0.9 2.9 0.5 1.3 -0.5 1.5 -0.9 0.6 -1.8 -1.7 -1.7 -1.5 -3.8 0.3 -3.8 0.8 0 1.5 0.7 1.5 1.5 0 2.5 3 1.7 3.1 -0.7 0 -1.6 0.5 -1 1.6 2 0.8 2.3 2.3 4.7 3.4 5.2 2 1.1 2.6 3 0.8 3 -0.5 0 -0.7 -0.4 -0.4 -1 0.3 -0.5 0.2 -1 -0.3 -1 -0.8 0 -2.2 2.2 -2.2 3.6 0 0.2 1.8 0.4 4 0.4 2.7 0 4.2 0.6 4.9 1.8 0.9 1.4 1.2 1.5 2 0.3 0.8 -1.2 1.1 -0.9 1.6 1.2 0.6 2.3 1.2 2.7 4.4 2.7 6 0 10.3 5.4 6.9 8.8 -2.4 2.4 0.8 1.1 3.5 -1.4 1.5 -1.4 3.4 -2.3 4.2 -2 0.8 0.3 1.7 0.1 2 -0.4 1 -1.7 2.5 -1.1 2.5 0.9 0 1 -0.8 2.2 -1.7 2.6 -1.7 0.7 -1.6 0.8 0.2 1.5 1.7 0.7 1.7 0.9 0.3 0.9 -2.2 0.1 -2.4 2.1 -0.3 2.1 0.9 0 1.8 0.6 2.1 1.4 0.4 1 1.4 1.2 4.2 0.5 2.7 -0.6 4.3 -0.4 6 0.7 1.3 0.9 3.2 1.2 4.4 0.8 1.2 -0.3 2.4 -0.1 2.8 0.6 0.5 0.8 1 0.2 1.4 -1.5 0.8 -3 4.5 -9.3 7.1 -11.9 1.3 -1.3 2 -1.4 3.1 -0.5 1 0.8 1.4 0.8 1.4 0 0 -0.6 -0.4 -1.1 -1 -1.1 -2 0 -0.9 -1.5 2.3 -3.1 1.7 -0.9 3.4 -2.4 3.5 -3.5 0.6 -2.8 1.8 -3.8 3.9 -3 1.5 0.6 1.5 0.8 0.3 1.6 -1.3 0.8 -1.2 1 0.3 1 0.9 0 1.7 -0.6 1.7 -1.4 0 -2 3.3 -2.5 4.6 -0.7 1.5 1.9 3.4 0.5 3.4 -2.5 0 -3.1 1 -3 3.7 0.6 1.9 2.3 2 2.9 0.8 3.4 -1.3 0.5 -1.3 0.9 -0.3 2.6 1.5 2.3 2.8 2.6 2.8 0.6 0 -0.8 0.7 -1.6 1.5 -2 1.2 -0.4 1.5 0.3 1.5 3.3 0 2.2 0.6 4.4 1.5 5.1 1.5 1.3 1.5 0.3 -0.1 -7.7 -0.2 -1.3 0 -2.3 0.6 -2.3 0.5 0 1 0.5 1 1.1 0 0.5 0.4 0.8 0.9 0.5 0.5 -0.4 1.3 0.8 1.6 2.6 0.4 1.8 1.2 3.6 1.8 4 0.6 0.4 1 2.7 1 5.3 -0.1 3.7 0.1 4.4 1.2 3.5 1 -0.9 1.6 -0.7 2.5 0.9 0.6 1.2 1.7 2.1 2.5 2.1 0.9 0 1.5 1 1.5 2.4 0 3.6 3.2 8.7 5 8 0.8 -0.3 3.5 -0.8 6 -1 2.5 -0.3 4.9 -0.9 5.4 -1.4 1.6 -1.6 2.6 -1.1 2.6 1.1 0 1.6 0.3 1.9 1.3 1.1 0.7 -0.6 2.5 -0.9 3.9 -0.8 2.1 0.3 2.9 -0.3 3.9 -2.6 1.3 -3.3 3 -2 2.1 1.6 -0.5 1.9 -0.3 1.9 2 -0.5 1.4 -1.5 2.8 -3.4 3.1 -4.4 0.4 -0.9 1.1 -1.3 1.7 -1 0.5 0.3 1 -0.1 1 -1 0 -0.9 0.4 -1.4 0.8 -1.1 0.4 0.2 1.7 -0.9 2.7 -2.5 2.5 -3.6 5.1 -3.8 5.9 -0.3 0.7 2.8 0.7 2.8 -6.1 11 -2.4 2.8 -4.3 5.7 -4.3 6.3 0 1.9 -6.2 8.1 -8 8.1 -0.9 0 -3.4 1.8 -5.5 4 -2.1 2.2 -4.4 4 -5 4 -0.7 0 -2 0.9 -3 2 -0.9 1 -3.4 2.4 -5.4 3.1 -2 0.6 -4.6 2 -5.8 3.1 -1.4 1.3 -2.8 1.8 -4.2 1.3 -1.4 -0.4 -3.1 0.2 -5.3 1.8 -3.2 2.4 -11.5 4.1 -18.1 3.9 -1.9 -0.1 -2.7 0.3 -2.4 1.1 0.4 1 -1.9 1.2 -9.7 1.2 -5.6 -0.1 -10.8 -0.5 -11.5 -0.9 -0.8 -0.5 -4.6 -0.9 -8.6 -1 -4 -0.1 -6.8 0.2 -6.2 0.6 1.2 0.8 1.2 0.8 -2.1 3 l-2.3 1.6 2.4 1.8 c1.4 1.1 3.3 2.5 4.3 3.2 1.1 0.7 1.4 1 0.7 0.7 -2 -0.9 -2.5 1.4 -0.9 4.7 0.9 1.7 1.6 3.3 1.6 3.5 0 0.7 -3.9 0.2 -4.4 -0.6 -0.7 -1.1 -4.6 -0.2 -4.6 1.1 0 0.5 0.5 0.6 1 0.3 0.6 -0.3 1 -0.1 1 0.4 0 0.6 -1 1.1 -2.2 1.1 -1.3 0 -3.4 0.3 -4.8 0.5 -2.1 0.5 -2.2 0.4 -0.5 -0.3 1.7 -0.8 1.6 -1 -1.2 -1.4 -1.8 -0.2 -3.7 0 -4.2 0.5 -1.2 1.2 -3.1 0 -3.1 -2 0 -1.4 -0.4 -1.3 -2.3 0.5 -1.3 1.2 -3.4 2.2 -4.6 2.2 -2 0 -2.2 0.4 -1.7 2.8 1.2 4.8 1.1 5.7 -0.3 5.4 -1.8 -0.4 -5.1 0.7 -5.1 1.7 0 0.5 1.8 1.1 4 1.5 5.2 0.8 5.1 2.1 -0.5 3.5 -2.5 0.6 -4.5 1.6 -4.5 2.2 0 0.8 0.5 0.8 1.5 -0.1 1.1 -0.9 1.9 -0.7 3.8 1.2 2.3 2.4 3.4 7.8 1.6 7.8 -0.5 0 -0.9 0.6 -0.9 1.3 0 1.9 -4.5 4.1 -6.7 3.3 -1.6 -0.5 -1.6 -0.5 0.1 0.9 1.1 0.8 1.7 1.7 1.4 2.1 -0.4 0.3 -2.5 -1.3 -4.8 -3.6z m4.2 -5.8 c-0.7 -0.5 -1 -1.6 -0.6 -2.5 0.7 -1.8 -1.1 -2.4 -2.1 -0.7 -1.1 1.7 0.3 4 2.2 4 1.3 0 1.5 -0.2 0.5 -0.8z m-5.2 -14.9 c0 -1.3 -0.3 -1.3 -1.5 -0.3 -0.8 0.7 -1.2 1.6 -0.9 2.1 0.8 1.3 2.4 0.1 2.4 -1.8z m-15 -4.3 c0 -1.1 -0.4 -2 -1 -2 -0.5 0 -1 0.9 -1 2 0 1.1 0.5 2 1 2 0.6 0 1 -0.9 1 -2z m26 0.6 c0 -1.5 -2.4 -2.8 -3.4 -1.9 -1.3 1.4 -0.5 3.3 1.4 3.3 1.1 0 2 -0.6 2 -1.4z m-2 -6.5 c0 -1.8 -1.8 -2.1 -3 -0.6 -1 1.3 -0.9 1.5 0.9 1.5 1.1 0 2.1 -0.4 2.1 -0.9z m-24.8 -8.3 c-0.9 -0.9 -1.5 -0.9 -2.4 0 -0.9 0.9 -0.7 1.2 1.2 1.2 1.9 0 2.1 -0.3 1.2 -1.2z m-10.8 -7.3 c-0.6 -1.6 -2.4 -2.1 -2.4 -0.7 0 1.1 1.1 2.2 2.1 2.2 0.5 0 0.6 -0.7 0.3 -1.5z m59.6 -2.3 c0 -1.9 -2.3 -3.2 -3.7 -2.1 -2 1.7 -1.5 2.9 1.2 2.9 1.4 0 2.5 -0.4 2.5 -0.8z m17 -45.6 c0 -1.5 -1.8 -3.1 -2.6 -2.3 -0.7 0.7 0.7 3.7 1.7 3.7 0.5 0 0.9 -0.6 0.9 -1.4z m157.1 -188.3 c0.7 -1.9 0.6 -2.9 -0.2 -3.7 -0.9 -0.8 -1 -0.7 -0.6 0.6 0.3 1 0.2 2 -0.3 2.3 -1 0.6 -1.4 3.5 -0.5 3.5 0.3 0 1 -1.2 1.6 -2.7z m3.9 -11.8 c0 -0.8 -0.9 -1.5 -2 -1.5 -1.3 0 -2 -0.7 -2 -1.9 0 -1.1 -0.4 -2.3 -1 -2.6 -0.6 -0.3 -1 0.5 -1 1.9 0 1.7 0.9 3 2.8 4 3.4 1.9 3.2 1.9 3.2 0.1z m51 -77 c-1.5 -1.8 -7.7 -2 -8.3 -0.2 -0.6 1.9 0.4 4.7 1.6 4 0.6 -0.4 0.8 0 0.4 1 -0.4 1.1 0.1 1.7 1.6 1.9 3 0.5 6.5 -4.5 4.7 -6.7z m-16.5 3.5 c0.3 -0.5 -0.3 -1 -1.5 -1 -1.2 0 -1.8 0.5 -1.5 1 0.3 0.6 1 1 1.5 1 0.5 0 1.2 -0.4 1.5 -1z m-303.9 -17.6 c-0.8 -2.2 -1.8 -1.2 -2.2 2.2 -0.2 2.4 -0.1 2.5 1.3 1.1 0.9 -0.9 1.3 -2.3 0.9 -3.3z m319.3 1.5 c-1.2 -1.8 -3.1 -3.4 -4.1 -3.7 -1 -0.2 -1.8 -0.9 -1.8 -1.5 0 -0.8 -0.3 -0.8 -1 -0.1 -1.3 1.3 -0.2 4.4 1.5 4.4 0.7 0 2.3 0.9 3.6 2 3.6 2.9 4.3 2.4 1.8 -1.1z m6.7 -8.7 c-2.9 -2.9 -4.6 -2.4 -2.4 0.7 0.8 1.2 1.8 1.8 2.1 1.4 0.4 -0.3 0.7 -0.1 0.7 0.6 0 0.7 0.5 0.9 1.1 0.5 0.7 -0.4 0.2 -1.6 -1.5 -3.2z m-4.6 -7.7 c0 -0.8 -0.9 -1.5 -2.1 -1.5 -1.5 0 -1.9 -0.5 -1.5 -1.7 0.6 -1.9 -2.3 -4.6 -6.8 -6.3 -2 -0.7 -2.4 -0.6 -1.9 0.5 0.3 0.8 0.9 1.5 1.4 1.5 0.5 0 1.2 0.8 1.6 1.8 1.7 4.9 9.3 9.6 9.3 5.7z m-31.1 -3.7 c-1.3 -1.8 -2.5 -2.6 -2.7 -1.9 -0.4 1.3 2.5 5.1 4 5.1 0.5 0 -0.1 -1.4 -1.3 -3.2z m38.7 -8.3 c-0.3 -0.8 -0.1 -1.5 0.3 -1.5 0.5 0 0.6 -1 0.3 -2.2 -0.6 -2.3 -0.6 -2.3 -1.3 0.2 -1.1 3.8 -1 5 0.2 5 0.6 0 0.9 -0.7 0.5 -1.5z m-3.3 -4 c-0.5 -2.2 -3.3 -5.7 -3.3 -4.1 0 0.4 -1.3 -0.2 -2.9 -1.3 -4.7 -3.4 -4.6 -2.4 0.3 1.7 2.4 2 4.5 4.3 4.5 5 0.1 0.6 0.5 1.2 1 1.2 0.4 0 0.6 -1.1 0.4 -2.5z m-94.2 0.5 c2.2 -0.5 5.7 -1.5 7.9 -2 5.7 -1.5 4.9 -2.7 -1.5 -2.2 -3.3 0.2 -5.5 0 -5.5 -0.6 0 -0.6 0.6 -1.2 1.3 -1.5 0.6 -0.3 -4.4 -0.4 -11.3 -0.4 -8.2 0 -13.3 -0.4 -14.8 -1.2 -1.8 -0.9 -2.7 -1 -3.7 -0.1 -0.8 0.7 -1.9 0.9 -2.4 0.6 -0.5 -0.4 -1.2 -0.2 -1.6 0.4 -0.4 0.6 0.8 1 3 1 2.1 0 3.4 0.4 3 1 -0.7 1.1 6.3 4.3 7.7 3.4 0.5 -0.3 1.6 0 2.4 0.7 1.3 1 1.7 1 2.5 -0.2 0.8 -1.2 1.1 -1.1 2 0.4 1.1 1.9 5.2 2.2 11 0.7z m98.1 -5.5 c0.3 -1.4 0.1 -2.5 -0.3 -2.5 -0.5 0 -0.9 1.1 -0.9 2.5 0 1.4 0.2 2.5 0.4 2.5 0.2 0 0.6 -1.1 0.8 -2.5z m-110.8 -3.4 c0.3 -0.4 1.6 -0.6 3 -0.4 1.3 0.3 3.2 0.1 4.1 -0.4 1.2 -0.7 -0.5 -1.2 -6.2 -1.6 -4.3 -0.3 -8.7 -0.9 -9.6 -1.3 -0.9 -0.3 -1.7 -0.2 -1.7 0.4 0 0.6 1.8 1.3 4 1.7 2.2 0.4 4 1.1 4 1.6 0 1.1 1.7 1.2 2.4 0z m85 -5.4 c-0.9 -5.2 -1.2 -5.7 -3.4 -5.7 -1.3 0 -1.9 -0.4 -1.4 -1.1 0.4 -0.7 0.1 -1 -0.7 -0.7 -2.3 0.8 -1.7 5.2 0.9 6.3 3.5 1.5 2.6 2.4 -1.4 1.3 -2 -0.5 -3.8 -0.7 -4.1 -0.4 -0.9 0.9 0.8 2.6 2.7 2.6 2.9 0 5.1 1.1 4.4 2.2 -0.4 0.6 0.3 0.5 1.5 -0.1 1.6 -0.9 1.9 -1.8 1.5 -4.4z m-375.7 1.4 c-2.1 -1 -5.2 -3.1 -6.9 -4.7 l-3.1 -2.9 2.4 3.3 c2.7 3.8 6.4 6.1 9.4 6.1 1.4 0 0.8 -0.6 -1.8 -1.8z m298.1 -0.8 c-1.6 -0.2 -4 -0.2 -5.5 0 -1.6 0.2 -0.3 0.4 2.7 0.4 3 0 4.3 -0.2 2.8 -0.4z m1.1 -3.9 c0.2 -0.2 -1 -0.4 -2.6 -0.4 -1.7 0 -3.3 -0.4 -3.5 -0.8 -0.1 -0.5 -2.8 -1.1 -5.8 -1.5 -5.2 -0.5 -5.5 -0.4 -5.6 1.8 -0.2 2.4 -0.1 2.4 8.5 1.8 4.7 -0.2 8.8 -0.7 9 -0.9z m-208.7 -9.6 c-0.9 -0.9 -1.2 -0.7 -1.2 1.2 0 1.9 0.3 2.1 1.2 1.2 0.9 -0.9 0.9 -1.5 0 -2.4z m5.8 -2.9 c0 -1.1 -0.4 -1.7 -1 -1.4 -0.5 0.3 -1 1.3 -1 2.1 0 0.8 0.5 1.4 1 1.4 0.6 0 1 -0.9 1 -2.1z m166.5 -4.9 c0.4 -0.6 -0.8 -1 -2.9 -1 -1.9 0 -3.8 0.5 -4.1 1 -0.4 0.6 0.8 1 2.9 1 1.9 0 3.8 -0.4 4.1 -1z m82.3 -5.3 c2 -1.6 1.4 -2.9 -1 -2.2 -3.5 1 -6.8 2.7 -6.8 3.6 0 1.1 6.1 0 7.8 -1.4z m-7.8 -1.7 c0 -0.5 -0.6 -1 -1.4 -1 -0.8 0 -1.8 0.5 -2.1 1 -0.3 0.6 0.3 1 1.4 1 1.2 0 2.1 -0.4 2.1 -1z m-177.4 -1.1 c0.7 -1.3 -1.6 -2.1 -2.9 -1.1 -0.7 0.6 -2.5 1.2 -4.2 1.5 -1.8 0.3 -1.1 0.4 1.8 0.4 2.7 0 5 -0.4 5.3 -0.8z m-151.1 -3.7 l-2.8 -2.7 2.3 3.3 c1.2 1.8 2.5 3.1 2.8 2.7 0.3 -0.3 -0.7 -1.8 -2.3 -3.3z m341.6 1.1 c0.6 -1.5 1.5 -3.1 2.2 -3.5 0.6 -0.4 0.9 -1 0.6 -1.3 -0.4 -0.3 -1.7 0.6 -3 2 -1.3 1.3 -3 2.5 -3.6 2.5 -2.7 0 -0.9 2.6 2 2.9 0.4 0.1 1.2 -1.1 1.8 -2.6z m-13.1 0.7 c0 -0.5 -0.9 -1 -1.9 -1 -1.1 0 -2.3 0.5 -2.6 1 -0.4 0.6 0.5 1 1.9 1 1.4 0 2.6 -0.4 2.6 -1z m-221 -1.8 c0 -0.8 -3.6 -4.2 -4.5 -4.2 -0.2 0 -0.2 0.7 0.2 1.6 0.5 1.4 0 1.5 -2.8 1.1 -3.2 -0.6 -3.2 -0.5 0.6 0.8 4.7 1.6 6.5 1.8 6.5 0.7z m260 -2.4 c0 -0.5 -0.7 -0.8 -1.5 -0.4 -0.8 0.3 -1.5 0 -1.5 -0.6 0 -0.6 -0.3 -0.8 -0.6 -0.5 -0.9 0.9 1.6 3.8 2.7 3.1 0.5 -0.3 0.9 -1 0.9 -1.6z m-85.1 -3 c0.5 -1.3 0.7 -2.5 0.5 -2.7 -0.7 -0.7 -3.4 2.1 -3.4 3.5 0 2.2 2 1.6 2.9 -0.8z m-119.6 -7.8 c0.7 -2.7 -1.8 -1.4 -3.4 1.8 -2.3 4.6 -2.3 4.8 0.4 2.4 1.4 -1.3 2.7 -3.2 3 -4.2z m115.3 2.3 c-0.4 -0.4 -1.1 -0.1 -1.6 0.7 -1.6 2.5 -1.1 3.5 0.7 1.7 0.9 -0.9 1.3 -2 0.9 -2.4z m-23.1 0.6 c-3.3 -1 -7.2 -1.9 -8.6 -1.9 -1.4 0 -3.6 -0.9 -4.9 -2 -2.5 -2.1 -3.5 -2.6 -2.6 -1.1 0.9 1.3 -2.2 2.2 -5.2 1.4 -2.6 -0.6 -2.7 -0.6 -0.9 1.4 1.4 1.6 2.7 2 6 1.6 2.3 -0.2 6.5 0.3 9.2 1.1 2.8 0.8 6.8 1.4 9 1.4 4 0 3.9 0 -2 -1.9z m-101 -4.9 c-0.3 -0.5 -1.8 -1 -3.3 -0.9 -2.4 0 -2.5 0.1 -0.7 0.9 2.8 1.2 4.7 1.2 4 0z m-45.1 -4.4 c-0.2 -3.5 0.3 -5.1 2.1 -7.2 1.3 -1.6 2.2 -3.1 1.9 -3.4 -1.2 -1.1 -5.2 5.4 -5.8 9.3 -0.6 3.5 0.1 5.3 2 5.7 0 0 -0.1 -2 -0.2 -4.4z m124 2.9 c-0.5 -1.1 -0.2 -1.3 1 -0.9 0.9 0.3 1.6 0.1 1.6 -0.5 0 -0.6 -0.6 -1.1 -1.2 -1.1 -0.7 0 -2.4 -0.9 -3.8 -1.9 -1.8 -1.5 -2.9 -1.7 -4.3 -0.9 -1.1 0.5 -2.8 0.7 -3.9 0.5 -1.2 -0.3 -1.8 -0.1 -1.5 0.6 0.2 0.7 2 1.3 4 1.5 2.3 0.2 3.7 0.8 3.7 1.7 0 1.2 1.3 1.9 4.2 2.4 0.4 0 0.5 -0.6 0.2 -1.4z m-184 -1.6 c1.2 1.1 1.6 1.1 1.6 0.1 0 -1 0.3 -1 1.5 0 0.8 0.6 2 1 2.7 0.8 0.7 -0.3 -0.3 -1.3 -2.2 -2.3 -1.9 -0.9 -4.2 -2.4 -5.1 -3.2 -1.4 -1.2 -1.9 -1.2 -3.3 0.2 -0.9 1 -1.6 1.2 -1.6 0.5 0 -2.1 -5.2 -8 -7.1 -8 -1 0 -2.5 -1 -3.3 -2.1 l-1.5 -2.2 -0.6 2.6 c-0.9 3.3 -0.4 3.9 6.1 8.8 6.4 4.7 9.6 6.1 10.6 4.6 0.4 -0.7 1.2 -0.7 2.2 0.2z m46.6 -5.8 c-0.8 -1.7 -0.8 -2.1 0.4 -2.1 0.8 0 1.6 0.3 1.9 0.8 0.2 0.4 0.2 0.2 0.1 -0.5 -0.3 -1.2 0.2 -3.1 2.8 -11.3 0.6 -1.8 2.4 -4.8 3.9 -6.5 1.6 -1.6 2.9 -3.4 2.9 -3.8 0 -0.5 0.8 -0.6 1.8 -0.3 1.9 0.6 5 -0.9 3.9 -2 -0.3 -0.4 -1.3 -0.1 -2.2 0.6 -1.2 1 -1.5 1 -1.5 -0.4 0 -0.9 0.5 -1.6 1 -1.6 0.6 0 1 -0.5 1 -1 0 -0.7 -0.6 -0.7 -1.9 -0.1 -2.9 1.6 -9.8 12.3 -11.7 18.3 -0.9 2.9 -2.5 6.2 -3.5 7.3 -1.8 2 -1.8 2.2 -0.2 4.5 1.9 2.7 3 1.2 1.3 -1.9z m9.7 -2.5 c-0.2 -0.6 -0.9 -0.1 -1.6 1.2 -0.6 1.2 -0.9 2.8 -0.5 3.4 0.8 1.3 2.7 -2.8 2.1 -4.6z m182.9 4.5 c-0.5 -0.8 -5.6 -0.3 -5.6 0.5 0 0.2 1.4 0.4 3.1 0.4 1.6 0 2.8 -0.4 2.5 -0.9z m-233.9 -1.5 c-1 -0.8 -1.8 -1.7 -1.8 -2 0.3 -2.2 -0.1 -2.7 -1.9 -2.1 -1.1 0.4 -2 0.2 -2 -0.4 0 -0.6 -0.7 -1.1 -1.5 -1.1 -0.8 0 -1.5 -0.4 -1.5 -1 0 -0.5 -0.6 -1 -1.2 -1 -0.7 0.1 -0.1 1.1 1.3 2.3 1.4 1.2 2.9 3 3.3 4.1 0.3 1.1 1.2 1.6 2.1 1.2 0.8 -0.3 1.7 -0.1 2 0.4 0.4 0.6 1.2 1 1.8 1 0.7 0 0.4 -0.7 -0.6 -1.4z m103.7 -3.7 c-0.8 -1.4 -2.4 0.8 -2.4 3.6 0 1.8 0.1 1.8 1.6 -0.3 0.8 -1.2 1.2 -2.7 0.8 -3.3z m108.6 3.1 c-1.3 -0.8 -1.2 -1 0.3 -1 0.9 0 1.7 -0.4 1.7 -1 0 -1.3 -4.7 -1.3 -5.5 -0.1 -0.3 0.6 0.3 1.4 1.2 2 2.3 1.3 4.3 1.4 2.3 0.1z m-45 -1 c0 -1.3 -2.8 -2.5 -3.8 -1.6 -0.3 0.4 0 1.1 0.8 1.6 2 1.3 3 1.2 3 0z m-177.5 -3 c-2.8 -3 -0.6 -4.6 3.4 -2.6 2.6 1.4 3 1.4 2.5 0.1 -0.4 -0.8 -1.2 -1.5 -1.9 -1.5 -1.4 0 -2.9 -4.5 -2 -6 0.3 -0.5 0 -2.2 -0.7 -3.7 -1.5 -3 -1.3 -9.3 0.3 -9.3 0.5 0 0.9 1.7 1 3.8 0.1 3.5 0.2 3.4 1.4 -1.8 1.6 -7 3.6 -11.9 4.2 -10.2 1 2.6 2 1 1.9 -3.1 -0.1 -3.6 -0.3 -4.1 -1.3 -2.8 -0.6 0.9 -0.9 1.9 -0.7 2.3 0.3 0.5 -0.6 1.3 -2 1.9 -1.4 0.7 -2.8 2 -3.1 3.1 -0.4 1 -1.8 3.2 -3.2 4.8 -2.4 2.9 -2.5 3.5 -2 12.5 0.6 9.3 -0.1 11.5 -2.3 7.5 -0.6 -1.1 -1.8 -2 -2.6 -2 -1 0 -0.5 0.9 1.5 2.6 1.7 1.4 3.1 3.2 3.1 3.9 0 1.4 3.1 3.7 3.9 2.9 0.2 -0.2 -0.4 -1.3 -1.4 -2.4z m128.5 0.5 c0 -0.2 -1.3 -1.1 -3 -2 -3.3 -1.7 -8 -2 -8 -0.5 0 0.6 1.2 1 2.8 1 1.5 0 3.4 0.5 4.2 1 1.6 1 4 1.3 4 0.5z m-78 -3.1 c0 -0.8 0.6 -2.7 1.3 -4.2 0.8 -1.7 1.1 -4 0.6 -6.2 l-0.6 -3.5 -0.2 3.1 c0 1.7 -0.8 4.8 -1.6 6.7 -1.7 4.2 -2 7.1 -0.5 6.2 0.6 -0.3 1 -1.3 1 -2.1z m10.4 -5.1 c0.4 -1.3 0.4 -2.3 -0.1 -2.3 -1.2 0 -3.3 5.1 -3.2 7.9 0.1 2.6 0.1 2.6 1.4 -0.4 0.7 -1.6 1.6 -4 1.9 -5.2z m15.6 4.4 c0 -0.7 -0.9 -2.3 -2 -3.5 -1.9 -2.1 -2 -2.3 -0.4 -4.7 1.5 -2.3 1.5 -2.5 0 -2.5 -0.9 0 -1.6 0.8 -1.6 1.9 0 1.1 -0.6 2.1 -1.2 2.4 -0.9 0.3 -0.3 1.3 1.5 2.8 1.5 1.4 2.7 3 2.7 3.7 0 0.7 0.2 1.2 0.5 1.2 0.3 0 0.5 -0.6 0.5 -1.3z m-86 -6.7 c0 -1.1 -0.4 -2 -0.9 -2 -1.1 0 -2.2 2.6 -1.4 3.4 1.2 1.2 2.3 0.5 2.3 -1.4z m21.8 -2.8 c0.6 -1.8 -1.5 -1.4 -2.2 0.4 -0.4 1 -0.1 1.4 0.6 1.2 0.6 -0.2 1.4 -1 1.6 -1.6z m272.3 -2.2 c1 0 1.9 -0.4 1.9 -1 0 -1.5 -3.4 -1.2 -5.6 0.6 -1.7 1.4 -1.7 1.5 -0.1 1 1 -0.3 2.7 -0.6 3.8 -0.6z m-25.3 -3.9 c-1.5 -0.5 -2.1 0.7 -1.3 2.6 0.7 1.7 0.8 1.7 1.5 -0.2 0.4 -1.1 0.3 -2.2 -0.2 -2.4z m-5.8 0.4 c1.3 -1.4 2 -2.8 1.7 -3.2 -0.8 -0.7 -5.7 3.5 -5.7 4.9 0 1.5 1.6 0.8 4 -1.7z m-243 -5.4 c0 -2.1 -1.8 -6.7 -2 -5.1 -1.2 8.8 -1.2 9 0.4 8.4 0.9 -0.4 1.6 -1.8 1.6 -3.3z m145.5 1.9 c-0.3 -0.5 -1.6 -1 -2.8 -0.9 -2.1 0 -2.1 0.1 -0.2 0.9 2.8 1.2 3.7 1.2 3 0z m-19.5 -0.9 c4.4 -0.8 4.4 -0.9 -2 -0.9 -3.6 0 -7.6 0.4 -9 0.8 -2 0.7 -1.7 0.8 2 0.8 2.5 0 6.5 -0.3 9 -0.7z m-61.7 -2.5 c2.5 -0.8 2.1 -2.5 -0.5 -1.9 -1.9 0.4 -2 0.3 -0.8 -0.6 1.2 -0.9 1.1 -1.1 -0.9 -1.1 -1.6 0 -2.1 0.4 -1.8 1.5 0.4 0.8 0.2 1.7 -0.3 2 -1.8 1.1 -1.1 2.6 0.8 1.6 0.9 -0.5 2.5 -1.2 3.5 -1.5z m-11.3 -10.5 c0 -2.5 -1.8 0.1 -2.5 3.4 l-0.6 3 1.5 -2.5 c0.8 -1.4 1.5 -3.2 1.6 -3.9z"/>
  <path d="M198.4 475.5 c-1 -1.8 -1.6 -8 -2.9 -32.5 -0.2 -3.6 -0.7 -8.5 -1 -11 -0.4 -2.5 -0.5 -4.3 -0.2 -4 1.3 1.4 3.8 14.8 3.8 20.3 0.1 3.4 0.5 7.8 1.1 9.7 0.5 1.9 0.8 7.1 0.6 11.5 -0.2 6.6 -0.5 7.6 -1.4 6z"/>
  <path d="M341.6 466.5 c-0.5 -1.3 -0.9 -1.5 -2 -0.6 -1 0.8 -1.6 0.9 -2.1 0.1 -0.3 -0.5 -0.1 -1 0.6 -1 1 0 1 -0.3 0.1 -1.2 -0.7 -0.7 -1.2 -2 -1.2 -3.1 0 -1.1 -1.1 -2.2 -2.7 -2.8 -3.2 -1.1 -7.3 -6.8 -7.3 -10 0 -1.7 0.5 -2 2.3 -1.6 1.2 0.2 5.5 1.2 9.5 2.1 4 0.9 12.3 1.7 18.5 1.8 l11.2 0.3 1.3 2.9 c1.5 3.4 1.1 4.1 -1.6 2.7 -2.3 -1.2 -3.3 -0.5 -2.5 1.6 0.5 1.2 0.1 1.4 -1.5 0.8 -1.6 -0.4 -2.2 -0.2 -2.2 0.9 0 0.8 -0.5 1.8 -1.2 2.2 -0.8 0.5 -0.9 0.2 -0.5 -1.1 0.4 -0.9 0.3 -2.3 -0.3 -3 -1.6 -2 -5.7 0.4 -6.4 3.7 -0.3 1.6 -1 2.8 -1.6 2.8 -0.7 0 -0.9 -0.8 -0.5 -2 0.9 -2.8 -0.6 -2.5 -2.9 0.5 -1 1.4 -2.3 2.5 -2.9 2.5 -0.5 0 -1.5 0.7 -2.2 1.6 -1.1 1.6 -1.2 1.5 -1.9 -0.1z"/>
  <path d="M330.6 442.5 c-1.5 -0.8 -3.3 -1.5 -3.8 -1.5 -0.5 0 -3.3 -1.6 -6.2 -3.5 -2.9 -1.9 -5.8 -3.5 -6.3 -3.5 -0.6 0 -2.2 -0.9 -3.6 -2 -2 -1.6 -4.3 -2.1 -9.4 -2.3 l-6.8 -0.2 -0.3 3.3 c-0.4 3.7 -2.5 3.9 -3 0.4 -0.4 -2.4 -3.7 -3.1 -4.5 -0.9 -0.3 0.9 -1 0.9 -2.8 -0.3 -1.3 -0.8 -4.4 -1.5 -6.9 -1.5 -4.4 -0.1 -4.5 -0.2 -5.5 -4 -0.5 -2.2 -1.4 -4.3 -1.9 -4.7 -1.3 -0.9 -1.5 -10.7 -0.3 -13.5 0.6 -1.3 2.1 -3 3.4 -3.8 1.2 -0.9 2.3 -2.5 2.3 -3.6 0 -1.6 0.3 -1.9 1.3 -1.1 1 0.8 1.6 0.6 2.5 -0.9 0.7 -1.2 2.3 -1.9 4.1 -1.9 1.6 0 3.1 -0.6 3.5 -1.5 0.3 -0.8 1 -1.5 1.5 -1.5 0.6 0 2.2 -1.2 3.8 -2.6 1.5 -1.4 2.9 -2.1 3.1 -1.5 0.2 0.6 1.1 1.1 1.9 1.1 1 0 1.3 -0.6 0.8 -1.7 -0.5 -1.4 -0.3 -1.5 0.6 -0.6 0.9 0.9 1.7 0.8 3.5 -0.4 2.2 -1.4 2.4 -1.3 3 1.1 0.3 1.5 1.3 3 2.1 3.4 1.3 0.8 1.3 1.3 -0.1 4.7 -0.9 2.1 -2.4 4.4 -3.4 5.1 -1.4 1.1 -1.4 1.3 -0.2 1.3 2.1 0 5.3 -2.6 4.6 -3.7 -0.3 -0.5 0.2 -0.9 1.2 -0.8 1.3 0.1 1.7 -0.7 1.8 -3.4 0.1 -1.9 0.6 -4.7 1.2 -6.2 1.3 -3.2 0.2 -4.4 -2.8 -2.8 -2.7 1.4 -2.6 -0.2 0.2 -2.6 1.2 -1 1.8 -1.3 1.4 -0.6 -0.6 1 -0.1 1.1 2.1 0.6 3.3 -0.9 5.2 -3.1 5.3 -6.1 0 -1.3 0.5 -2.3 1 -2.3 1.8 0 1.1 -2.2 -1.5 -4.6 -2.5 -2.3 -5.6 -7 -7.5 -11.1 -0.5 -1.3 -1.4 -2.3 -2 -2.3 -0.5 0 -1 -0.7 -1 -1.6 0 -1.1 0.9 -0.8 3.6 1.4 4.7 3.9 7.4 3.3 7.4 -1.7 0 -6.7 2.7 -8.1 15.6 -8.1 l9.6 0 4 4 c3.2 3.1 3.9 4.5 3.5 6.6 -0.3 1.6 0 2.8 0.9 3.1 0.8 0.3 1.4 1.3 1.4 2.2 0 1 0.3 2.1 0.7 2.4 0.3 0.4 0.8 1.9 0.9 3.4 0.2 1.4 0.9 3 1.6 3.4 1 0.7 0.9 0.9 -0.4 0.9 -1 0 -1.8 0.6 -1.8 1.4 0 0.9 -0.7 1.2 -1.8 0.9 -1.3 -0.3 -1.8 0.2 -2 2.2 -0.1 2.1 0.2 2.6 1.4 2.1 0.9 -0.3 2.4 -0.6 3.5 -0.6 1.4 0 2.5 -1.2 3.5 -3.7 1.5 -3.4 1.5 -3.8 -0.3 -5.1 -1.6 -1.2 -0.9 -1.3 5.4 -0.9 4.6 0.2 7.4 0 7.7 -0.7 0.3 -0.7 0.8 -0.7 1.4 0.2 0.5 0.7 3.2 2.5 6.1 4 5.4 2.9 8 6.4 8.2 11.1 0.2 2.3 0.2 2.4 0.6 0.4 0.6 -3.1 2.3 -2.9 2.3 0.2 0 2.9 -3.4 5.2 -5.4 3.6 -1 -0.8 -1.8 -0.6 -3 0.8 -1.7 1.9 -1.6 2 2.1 4 2.1 1.1 3.4 2 2.8 2.1 -0.5 0 0.5 0.9 2.2 2 2.3 1.4 3.1 2.5 2.7 3.7 -0.5 1.5 -0.4 1.5 0.5 0.3 0.9 -1.3 1.1 -1.2 1.6 0.2 0.4 0.9 1.4 1.4 2.3 1.2 2.1 -0.5 6.4 3 6 4.8 -0.2 0.8 0.8 1.4 2.5 1.6 1.5 0.2 2.7 -0.1 2.7 -0.7 0 -0.6 -0.4 -1.1 -1 -1.1 -0.5 0 -1 -0.5 -1 -1.1 0 -0.6 0.9 -0.9 2 -0.6 1.1 0.3 2 0.3 2 0.1 0 -1.1 -4.4 -5.3 -5.2 -4.8 -0.4 0.3 -0.8 0 -0.8 -0.7 0 -0.6 -0.8 -0.9 -2 -0.6 -1.1 0.3 -1.7 0.1 -1.4 -0.4 0.3 -0.6 0.1 -1.5 -0.4 -2.2 -0.5 -0.7 -0.6 -3.2 -0.3 -5.7 l0.7 -4.5 0.8 4.3 c0.4 2.4 1.2 3.9 1.8 3.6 0.5 -0.3 0.8 -1.5 0.5 -2.5 -0.5 -2 1.7 -2.7 2.8 -0.9 0.3 0.6 1.7 1 2.9 1 1.3 0 3.9 1.3 5.7 3 1.9 1.6 3.9 3 4.6 3 2.6 0 5.9 17.4 4 21.4 -0.7 1.4 -1.5 2.6 -1.9 2.6 -0.5 0 -0.8 0.9 -0.8 1.9 0 3 -1.5 3.3 -5.7 1.5 -2.1 -0.9 -4.6 -1.6 -5.5 -1.5 -1 0.1 -1.8 -0.3 -1.8 -0.9 0 -0.6 -0.4 -0.9 -0.9 -0.6 -0.5 0.4 -1.1 0 -1.3 -0.6 -0.3 -0.8 -2.1 -1.3 -4.3 -1.3 -3.3 0 -4 -0.4 -4.5 -2.5 -0.4 -1.8 -1.5 -2.7 -4.4 -3.3 -2.7 -0.7 -4 -0.6 -4.5 0.2 -1.5 2.3 -20.6 5.7 -33.5 6 -3.9 0.1 -4 0 -1.7 -1.6 1.6 -1.1 2.5 -1.2 3 -0.4 0.5 0.8 2.7 0.7 8.1 -0.2 6.9 -1.1 7.5 -1.4 7.8 -3.8 0.3 -2.4 0 -2.6 -7.5 -3.7 -4.3 -0.7 -12.2 -1.2 -17.5 -1.2 -9.5 0 -9.8 0.1 -9.8 2.3 0 3.4 1.2 4.5 5.9 5.6 4.5 1 6.5 2.1 3.8 2.1 -0.9 0 -7.4 -0.9 -14.5 -2 -13.7 -2.2 -18.2 -1.8 -18.2 1.7 0 1 -0.3 2.9 -0.6 4.3 -0.5 2.4 -0.5 2.4 1 0.6 1.6 -1.9 1.6 -1.9 1.6 0.2 0 1.3 0.6 2.2 1.5 2.2 0.8 0 1.5 0.7 1.5 1.5 0 0.8 0.5 1.5 1.2 1.5 0.6 0 3.1 0.9 5.4 2.1 3.1 1.5 4.1 2.5 3.7 3.6 -0.4 1.1 -0.2 1.4 0.5 0.9 0.6 -0.4 2.9 0.5 5.1 1.9 2.3 1.4 4.5 2.5 5.1 2.5 0.6 0 0.8 0.5 0.5 1 -0.9 1.5 -5.6 1.2 -8.9 -0.5z m48.4 -26.5 c0 -0.6 -0.7 -1.3 -1.5 -1.6 -2 -0.8 -4.8 0.3 -4 1.6 0.8 1.3 5.5 1.3 5.5 0z m10.7 -8.2 c0.4 -2.8 -1.1 -3.9 -2.1 -1.5 -0.3 0.6 -0.3 0 0 -1.4 0.6 -3.1 -2.4 -5.9 -6.3 -5.9 -1.3 0 -2.3 -0.4 -2.3 -1 0 -0.5 -1 -1 -2.2 -1.1 -2.2 -0.1 -2.2 -0.1 0.2 -0.8 2.4 -0.7 2.4 -0.8 -1.2 -2 -2.8 -0.9 -4.6 -1 -7.1 -0.2 -1.9 0.6 -4.5 0.8 -6.2 0.3 -4.7 -1.2 -15.7 -0.3 -15.2 1.3 0.4 1 -0.3 1.1 -3.1 0.4 -2 -0.5 -3.9 -0.9 -4.2 -0.9 -0.9 0 -0.6 5.5 0.4 6.1 1.4 1.1 -0.3 2.9 -2.7 2.9 -2 0.1 -2.1 0.2 -0.5 1.4 1 0.7 1.5 1.6 1.1 1.9 -0.8 0.9 -0.8 0.9 18.6 2 5.7 0.4 10.7 0.9 11 1.2 0.3 0.4 5.2 0.5 11 0.3 l10.4 -0.3 0.4 -2.7z m-54.7 -1.2 c0 -0.9 -0.7 -1.2 -2.1 -0.9 -1.6 0.4 -1.7 0.8 -0.7 1.4 1.9 1.3 2.8 1.1 2.8 -0.5z m2.6 -7.7 c0.6 -1.1 -1.1 -1.1 -5.6 -0.3 -1.7 0.4 -2.7 1 -2.1 1.4 1.4 0.8 6.9 0.1 7.7 -1.1z m-34.6 -6 c0 -1.1 -0.4 -1.7 -1 -1.4 -0.5 0.3 -1 1.5 -1 2.6 0 1.1 0.5 1.7 1 1.4 0.6 -0.3 1 -1.5 1 -2.6z m21.5 0.7 c2.2 -1 4.4 -2.5 4.8 -3.3 0.6 -1 1.8 -1.2 3.8 -0.8 2.3 0.5 2.9 0.3 2.9 -1 0 -1.5 -0.7 -1.6 -4.7 -1 -2.7 0.4 -5.7 1.2 -6.8 1.8 -1.1 0.6 -2.9 1.1 -4 1.1 -1.1 0.1 -2 0.7 -1.9 1.4 0.3 3.8 0.5 4.3 1.2 4 0.4 -0.2 2.5 -1.2 4.7 -2.2z m-29.5 -1.8 c0 -1.3 -2.3 -0.5 -2.8 1 -0.2 0.7 0.2 1 1.2 0.6 0.9 -0.3 1.6 -1.1 1.6 -1.6z m84.4 -2.2 c0.7 -2.5 -0.1 -3.6 -2.5 -3.6 -1 0 -1.9 -0.4 -1.9 -1 0 -0.5 -0.7 -1 -1.5 -1 -0.8 0 -1.5 0.3 -1.5 0.8 0 1.2 -10.3 1.5 -22 0.7 -7.5 -0.6 -8.7 -0.5 -10.2 1.2 -3.8 4.2 1.1 5.1 26.4 4.9 11.6 -0.1 12.7 -0.3 13.2 -2z m-27 -16.2 c0.9 -2.5 0.7 -7.2 -0.4 -7.9 -0.6 -0.4 -1 0.6 -1 2.2 0 1.5 -0.3 3.8 -0.6 5.1 -0.7 2.5 1.1 3.1 2 0.6z m-19.4 -9.4 c0 -0.6 1.1 -0.8 2.6 -0.4 1.9 0.5 2.9 0.1 4.1 -1.6 1 -1.4 2.2 -2 3.4 -1.7 1.1 0.3 1.9 0.1 1.9 -0.4 0 -0.5 1.2 -0.9 2.8 -1 2.4 -0.1 2.2 -0.2 -1.1 -1.1 -3.1 -0.8 -4.6 -0.7 -7.6 0.7 -2.5 1.1 -5.1 1.5 -7.5 1.1 -2.4 -0.4 -3.5 -0.2 -3.1 0.4 0.3 0.5 -0.1 1 -0.9 1 -2.1 0 -2 1 0.2 2.6 2 1.6 5.2 1.8 5.2 0.4z"/>
  <path d="M235.2 437.8 c-0.1 -2.8 0.2 -3.8 1.4 -3.8 1.1 0 1.3 0.6 0.9 2 -0.4 1.4 -0.2 2 0.9 2 1.2 0 1.4 -0.7 0.9 -3.2 -0.3 -1.8 -0.9 -3.8 -1.4 -4.3 -0.4 -0.6 -0.4 -1.7 0 -2.4 1.6 -2.6 4.3 3.2 3.9 8.6 -0.3 4.6 -0.4 4.8 -3.4 4.8 -2.9 0.1 -3.1 -0.2 -3.2 -3.7z"/>
  <path d="M344.8 437.4 c-0.5 -0.4 -0.8 -1.9 -0.8 -3.3 0 -1.8 0.3 -2.2 1.1 -1.4 0.6 0.6 0.9 2.1 0.7 3.3 -0.1 1.2 -0.6 1.8 -1 1.4z"/>
  <path d="M228.8 432.5 c-1.4 -2.1 -2 -8.5 -0.9 -8.5 0.6 0 1.4 0.6 1.7 1.4 0.7 1.9 0.1 8.3 -0.8 7.1z"/>
  <path d="M222.5 422.8 c-0.4 -1.3 -0.7 -2.8 -0.6 -3.5 0.1 -0.6 -0.3 -1.4 -0.9 -1.8 -1.3 -0.8 -1.3 -3.5 0 -3.5 0.6 0 1 0.7 1 1.5 0 1.8 1.7 2 2.2 0.3 0.3 -0.7 0.7 -0.6 1.1 0.5 0.3 0.9 0.2 1.7 -0.3 1.7 -0.5 0 -0.6 1.6 -0.3 3.5 0.6 3.9 -1 4.9 -2.2 1.3z"/>
  <path d="M481.5 399.9 c-5.4 -1.3 -9.5 -3 -9.5 -4 0 -1.1 1.4 -1.2 2.4 -0.2 0.3 0.4 2.3 1.2 4.4 1.9 3.1 1.1 4 1.1 5.9 -0.1 1.2 -0.8 2.9 -1.5 3.7 -1.5 0.8 0 1.7 -0.8 2 -1.8 0.8 -2.3 6.6 -8 6.6 -6.4 0 2.1 -4.4 8.1 -6.8 9.1 -1.2 0.6 -2.5 1.8 -2.8 2.6 -0.4 0.8 -0.9 1.5 -1.3 1.4 -0.3 -0.1 -2.4 -0.5 -4.6 -1z"/>
  <path d="M168 399.1 c0 -0.5 0.6 -1.1 1.2 -1.3 0.7 -0.3 1.3 -1.3 1.3 -2.3 0 -1.2 1.3 -2.2 4 -3.2 4.8 -1.6 7.4 -1.1 5.5 1.3 -3.2 3.7 -12 7.8 -12 5.5z"/>
  <path d="M417.7 396.2 c-1.8 -2 -2.2 -3.2 -0.9 -3.2 0.4 0 1.2 1.1 1.9 2.5 1.3 3 1.2 3.1 -1 0.7z"/>
  <path d="M147.8 390.2 c-5.3 -5.5 -9.7 -12.2 -8.1 -12.2 0.5 0.1 2.4 1.4 4.3 3 1.9 1.7 3.8 3 4.3 3 2.1 0 9.7 6.3 9.7 8 0 1.6 -2.6 4 -4.3 4 -0.2 0 -2.9 -2.6 -5.9 -5.8z"/>
  <path d="M395.6 393.1 c-0.6 -1.8 -1 -2 -1.7 -1 -0.9 1.6 -1.4 1.2 -2.3 -1.8 -0.9 -3 0.7 -3.6 3.3 -1.3 1.5 1.2 2.1 2.7 1.9 4.2 l-0.4 2.3 -0.8 -2.4z"/>
  <path d="M499.3 363.8 c-0.6 -4 -3.3 -12.7 -5.8 -19.3 -2.6 -6.7 -4.9 -14.6 -5.2 -17.7 -0.3 -3.2 -1 -5.8 -1.5 -5.8 -1.5 0 4.3 -7.8 6.2 -8.3 2.5 -0.7 6 2.8 6.1 6.1 0.1 5.7 1.1 11.1 3.9 22.8 1.7 6.7 3 12.8 3 13.7 0 0.8 -0.9 3.9 -2.1 6.8 -1.2 3 -2.4 6.2 -2.8 7.2 -0.4 1.2 -1.1 -0.9 -1.8 -5.5z m-0.6 -19 c-0.2 -0.7 0.3 -1.8 1.2 -2.5 1.5 -1 1.5 -1.4 -0.1 -4 -0.9 -1.5 -1.5 -4.2 -1.2 -5.8 0.2 -1.7 0.1 -2.2 -0.2 -1.2 -0.3 0.9 -1 1.7 -1.5 1.7 -1.3 0 -1.1 -2.4 0.3 -3.8 0.9 -0.9 0.9 -1.2 0 -1.2 -0.8 0 -1.2 -1.9 -1.2 -5.5 0 -3 -0.4 -5.5 -1 -5.5 -0.5 0 -0.7 -0.7 -0.4 -1.5 0.7 -1.7 0.3 -1.8 -2.1 -0.9 -2.1 0.9 -4.8 6.1 -3.5 6.9 0.6 0.3 0.8 1.6 0.5 2.8 -0.8 3 5 20.7 6.8 20.7 0.4 0 0.5 -0.6 0.2 -1.2 -0.3 -0.7 0 -0.5 0.7 0.5 1.5 2 2.1 2.2 1.5 0.5z"/>
  <path d="M134.6 361.9 c-0.9 -3.5 -2.8 -8.6 -4.2 -11.4 -1.7 -3.7 -2.4 -6.9 -2.4 -11.3 0 -7.4 0.6 -9.1 3 -8.5 1.5 0.4 1.8 1.5 1.9 6.1 0 3.4 -0.5 5.9 -1.2 6.4 -0.9 0.5 -0.9 0.8 0 0.8 0.7 0 0.9 1.3 0.6 4 -0.4 2.6 -0.2 4 0.5 4 1.6 0 5.7 13.9 4.5 15.1 -0.6 0.6 -1.6 -1.3 -2.7 -5.2z"/>
  <path d="M378.5 366 c-3.8 -0.4 -7.4 -0.5 -7.8 -0.3 -0.4 0.3 -1.4 -0.1 -2.2 -0.7 -0.8 -0.7 -3.1 -1 -5.2 -0.8 -4 0.3 -6.4 -1.5 -2.5 -2 1.6 -0.2 2.2 -1 2.2 -2.7 0 -3 4.6 -8.4 8.5 -10 4 -1.6 14.3 -0.5 17.9 1.9 2.1 1.3 2.6 2.3 2.2 3.9 -0.4 1.2 -0.9 2.9 -1.1 3.9 -0.6 2.6 -3.5 7.8 -4.3 7.7 -0.4 -0.1 -3.8 -0.5 -7.7 -0.9z m2.7 -4 c0.2 -0.6 1.8 -1.1 3.6 -1.3 1.7 -0.1 3 -0.6 2.8 -1.2 -0.2 -0.5 -1 -0.8 -1.7 -0.6 -2.2 0.6 -6.1 0.5 -10.1 -0.3 -4.3 -0.8 -6.2 0.9 -3.3 3.1 2.2 1.5 8.2 1.8 8.7 0.3z"/>
  <path d="M137 353 c-0.1 -1.9 -0.3 -4.2 -0.4 -5 -1.1 -5.5 -1.6 -12.3 -1 -11.7 1 1 3.4 -4.8 3.4 -8.4 0 -1.5 0.5 -3.1 1 -3.4 0.6 -0.4 2.6 -2.9 4.4 -5.7 1.9 -2.8 3.7 -4.5 4.1 -3.9 0.3 0.6 0.4 1.5 0 2 -0.3 0.5 0 1.3 0.6 1.7 0.7 0.4 0.7 0.9 0.1 1.3 -1.4 0.9 -7.1 13.8 -8.3 18.5 -0.5 2.3 -1.6 7.3 -2.3 11.1 -1.1 5.4 -1.5 6.2 -1.6 3.5z"/>
  <path d="M305.1 350.5 c-0.1 -1.6 1 -5.3 2.3 -8.2 1.3 -2.8 2.2 -5.3 2 -5.6 -0.3 -0.3 1.1 -1.5 3.1 -2.7 1.9 -1.2 4 -3 4.5 -4.1 0.6 -1 1.8 -1.9 2.7 -1.9 0.9 0 2.6 -0.8 3.7 -1.7 1.2 -1 -1.2 1.7 -5.3 5.9 -7.8 8 -9.6 10.7 -11.7 17.3 -1.2 3.8 -1.3 3.8 -1.3 1z"/>
  <path d="M160.2 333.4 c-1.2 -0.8 -2.2 -2.1 -2.2 -2.9 0 -0.7 -0.6 -1.6 -1.2 -1.8 -0.8 -0.4 -0.7 -0.6 0.3 -0.6 1 -0.1 1.6 -0.9 1.5 -1.8 -0.1 -1.3 0.7 -1.8 2.6 -1.8 2.1 -0.1 3 0.7 4.7 4.3 1.2 2.4 1.9 4.8 1.6 5.3 -0.9 1.4 -4.8 1.1 -7.3 -0.7z"/>
  <path d="M138 305 c0.6 -1.1 1.6 -2 2.2 -2 0.6 0 0.3 0.9 -0.7 2 -1 1.1 -2 2 -2.2 2 -0.2 0 0.1 -0.9 0.7 -2z"/>
  <path d="M247.5 297.5 c-1.6 -0.7 -2.4 -1.4 -1.7 -1.4 0.6 -0.1 1.2 -0.8 1.2 -1.6 0 -0.8 0.9 -1.5 2 -1.5 1.1 0 2 0.7 2 1.5 0 0.8 -0.6 1.5 -1.2 1.5 -0.9 0 -0.8 0.3 0.2 1 2.4 1.5 0.7 1.9 -2.5 0.5z"/>
  <path d="M229.7 291.1 c-2.6 -1.4 -4.3 -2.7 -3.7 -2.9 0.5 -0.2 1 -0.8 1 -1.3 0 -0.6 -0.4 -0.7 -1 -0.4 -0.5 0.3 -1 -0.1 -1 -1 0 -1.1 0.5 -1.5 1.4 -1.2 1.8 0.7 4.1 -2.7 5.6 -8.3 1.1 -4 4.6 -8.7 11 -14.6 4.5 -4.1 15.6 -9.3 23 -10.8 1.4 -0.2 4.8 -0.9 7.7 -1.5 2.9 -0.6 8.3 -1.2 12.1 -1.3 6.3 -0.3 6.8 -0.4 5.3 -1.8 -2 -1.8 -2.1 -4.4 -0.3 -4.6 3.6 -0.4 3.7 -0.4 2.2 -1.3 -0.8 -0.6 -1.7 -0.8 -2.1 -0.5 -0.4 0.2 -1 0 -1.3 -0.5 -0.4 -0.5 -2.5 -1.2 -4.9 -1.6 -2.3 -0.4 -6.2 -1.3 -8.7 -2.2 -4 -1.3 -4.5 -1.3 -5.7 0.3 -1 1.3 -2 1.5 -5 0.9 -2.1 -0.4 -5.1 -0.9 -6.8 -1.1 -2.7 -0.4 -2.8 -0.3 -0.7 0.6 1.2 0.5 2.2 1.2 2.2 1.6 0 0.6 -5.5 -0.1 -9.2 -1.2 -1.1 -0.3 -1.7 0.2 -2 1.8 -0.2 1.9 -0.9 2.3 -4 2.3 -4.5 0 -5.6 1 -2.9 2.5 3.2 1.7 2.5 2.6 -1.7 2.2 -2.4 -0.2 -4.4 0.1 -5.3 1 -0.8 0.8 -2.2 1.9 -3.3 2.5 -1.7 0.9 -1.6 1.1 0.8 1.7 4 1 3.1 2.6 -1.4 2.6 -2.2 0 -4 0.4 -4 0.9 0 0.5 -0.7 1.1 -1.4 1.4 -1 0.4 -1.3 0.1 -0.9 -0.9 0.3 -0.7 0.9 -1.4 1.4 -1.4 0.5 0 0.9 -0.4 0.9 -1 0 -0.5 -0.6 -1 -1.3 -1 -0.8 0 -2.1 -0.8 -3.1 -1.8 -1.5 -1.8 -1.5 -2 0.5 -3.8 1.2 -1 2.3 -1.8 2.5 -1.6 1.1 0.7 2.4 0 2.4 -1.3 0 -0.8 0.7 -1.5 1.5 -1.5 0.9 0 1.8 -0.7 2.2 -1.6 0.3 -0.8 1.1 -1.3 1.8 -1 0.9 0.3 1.1 -0.3 0.9 -1.7 -0.2 -1.2 -0.2 -1.6 0.2 -1 0.7 1.6 5.4 -1.2 5.4 -3.2 0 -1.7 2.7 -2.7 3.4 -1.2 0.3 0.9 0.5 0.9 0.5 0 0.2 -2.7 2.1 -1.1 2.1 1.7 0 1.7 0.5 3 1 3 0.9 0 1.4 -2.1 1.1 -4.2 -0.2 -1.2 4.7 -4 5.9 -3.3 0.5 0.3 1 0.2 1 -0.4 0 -0.5 -0.5 -1.3 -1 -1.6 -2.1 -1.3 0.2 -2.4 5.3 -2.3 9.1 0.1 11.8 -0.2 11.3 -1.1 -0.3 -0.4 3.6 -1.1 8.7 -1.5 5 -0.4 10.3 -0.8 11.7 -1 1.4 -0.2 3.3 -0.4 4.3 -0.4 1 -0.1 1.6 -0.6 1.3 -1.1 -0.3 -0.5 1.6 -0.6 4.2 -0.3 2.6 0.3 4.9 0.9 5.1 1.4 0.5 1.3 4.3 4.8 5.3 4.8 0.4 0 -0.1 -0.9 -1.2 -2 -1.2 -1.2 -1.8 -2.6 -1.4 -3.1 0.4 -0.7 0.9 -0.8 1.3 -0.1 0.3 0.5 1.7 1.2 3.1 1.3 1.8 0.3 3.1 1.7 4.8 4.9 l2.2 4.4 0 -3.2 c0 -1.8 0.4 -3.2 0.9 -3.2 0.5 0 0.9 3.7 0.9 8.2 0 7.4 -0.1 8.1 -1.4 6.4 -1.2 -1.7 -1.4 -1.8 -1.4 -0.3 0 0.9 -0.4 1.7 -1 1.7 -0.5 0 -1 -0.7 -1 -1.5 0 -0.8 -0.5 -1.5 -1.1 -1.5 -0.6 0 -0.9 0.7 -0.5 1.5 0.6 1.7 -0.2 1.9 -2.4 0.5 -0.9 -0.5 -1.9 -0.5 -2.7 0.2 -0.7 0.5 -1.9 0.8 -2.7 0.5 -0.8 -0.3 -1.7 0.1 -2 0.9 -0.3 0.7 -1.4 1.3 -2.5 1.1 -1.1 -0.1 -2 0.1 -2 0.6 -0.3 2.8 0.2 3.6 2.1 3.9 1.4 0.2 2.5 1.3 2.9 2.8 0.4 1.6 0.7 1.9 0.8 0.8 0.1 -1 0.5 -1.8 1.1 -1.8 0.5 0 0.7 0.6 0.5 1.3 -0.4 1 3.3 4 5.8 4.5 0.4 0.1 1.7 1.1 2.9 2.2 2.6 2.4 7.7 2.7 8.3 0.5 0.3 -0.8 0.7 -2.2 1 -3 0.3 -1.1 0.9 -1.3 2.2 -0.6 1 0.5 3.1 1.3 4.7 1.6 1.5 0.3 2.6 0.9 2.2 1.2 -0.3 0.3 -0.1 1.2 0.5 1.9 1 1.2 1.2 5.8 0.6 12.4 -0.1 1.4 -1 2.8 -2 3.2 -0.9 0.4 -2.1 1.8 -2.6 3 -1.2 3.2 -5.7 7.8 -7.6 7.8 -0.8 0 -1.5 0.5 -1.5 1 0 0.6 -1.1 1.5 -2.5 2 -1.4 0.5 -3.1 1.4 -3.8 2 -0.6 0.6 -2.3 2 -3.7 3.1 l-2.5 2.1 -0.7 -3.4 c-0.4 -1.8 -0.5 -3.8 -0.3 -4.5 0.6 -1.9 -6.3 -2.9 -7.8 -1.1 -3.8 4.5 -13.3 7.2 -15.6 4.4 -1.2 -1.4 -0.9 -1.6 2.3 -1.6 2.5 0 3.6 -0.4 3.6 -1.5 0 -1.9 -6 -2.1 -7.8 -0.3 -0.9 0.9 -1.2 0.9 -1.2 0 0 -0.7 -0.5 -1.2 -1.1 -1.2 -0.6 0 -0.9 0.6 -0.6 1.3 0.6 1.7 -4.4 1 -5.5 -0.7 -0.6 -0.8 -0.8 -0.8 -0.8 0 0 1.7 -4.3 2.6 -5.2 1.1 -0.6 -0.9 -0.8 -0.9 -0.8 0.1 0 0.8 -1.7 1.2 -4.7 1.3 -2.7 0 -4.2 0.3 -3.5 0.6 1.7 0.7 1.5 2.3 -0.3 2.3 -0.8 0 -1.5 -0.7 -1.5 -1.5 0 -0.8 -0.4 -1.5 -1 -1.5 -0.5 0 -1 0.7 -1 1.6 0 1.3 -0.7 1.5 -4 0.9 -4.6 -0.8 -8 0.1 -8 2.1 0 0.8 -0.4 1.4 -1 1.4 -0.5 0 -1 -0.6 -1 -1.4 0 -1.1 -0.9 -1.3 -3.7 -0.9 -2.1 0.3 -4 0.9 -4.3 1.3 -0.3 0.4 -2.6 -0.5 -5.3 -1.9z m69.3 -7.8 c0 -0.7 -0.4 -1.3 -1 -1.3 -0.5 0 -1 -0.7 -1 -1.6 0 -1.1 -0.8 -1.4 -3.2 -1.2 -2.5 0.2 -3.3 0.8 -3.3 2.3 0 1.1 0.7 2.3 1.5 2.6 2.4 1.1 7 0.5 7 -0.8z m-12.1 -1.3 c0.3 0 0 -0.5 -0.6 -1.1 -0.7 -0.7 -3.3 -0.8 -7.7 -0.4 -6.8 0.8 -8.4 2.1 -2.1 1.7 1.9 -0.2 3.5 0.2 3.5 0.7 0 0.6 1.2 0.6 3.2 0 1.8 -0.5 3.5 -0.9 3.7 -0.9z m-14.9 -3 c0 -0.5 -1.2 -2.6 -2.6 -4.7 -1.9 -2.8 -2.5 -4.8 -2.2 -7.5 0.3 -3.6 0.3 -3.6 -2.7 -3.1 -1.6 0.3 -3.9 1.4 -5.1 2.4 -1.1 1.1 -2.3 1.9 -2.7 1.9 -0.7 0 -3.6 2.2 -6.3 4.8 -2.7 2.6 -1.5 3.9 4.4 5 3.1 0.7 6.6 1.3 7.7 1.6 4 0.8 9.5 0.6 9.5 -0.4z m24.9 -4.8 c0.6 -1.2 0.4 -2.8 -0.6 -5.2 -1.3 -2.9 -1.7 -3.2 -2 -1.5 -0.3 1.1 -0.8 3.5 -1.3 5.3 -0.7 2.8 -0.6 3.2 1 3.2 1.1 0 2.4 -0.8 2.9 -1.8z m-46.4 -9.2 c-0.3 -0.5 -0.1 -1 0.4 -1 0.6 0 1.1 -0.4 1.1 -1 0 -1.3 -1.1 -1.3 -3 0 -1.3 0.9 -1.3 1.1 0 2 1.9 1.2 2.3 1.2 1.5 0z m7.3 -4.1 c2.8 -1 3 -1.2 1.7 -2.6 -1.4 -1.3 -1.8 -1.3 -4 0.1 -2.4 1.6 -3.3 3.6 -1.6 3.6 0.4 0 2.2 -0.5 3.9 -1.1z m11.6 -4.4 c1.6 -0.9 3.8 -1.5 5 -1.4 1.2 0.1 3.7 0.1 5.6 0.1 l3.4 -0.2 -2.3 -1.6 c-2.3 -1.6 -9.6 -1.4 -12.4 0.3 -0.7 0.4 -1.9 0.8 -2.7 0.8 -5.3 0.5 -5.3 0.4 -4 2 1.6 1.9 3.7 1.9 7.4 0z m64.6 -0.1 c0 -0.2 -1.2 -0.4 -2.6 -0.4 -1.4 0 -2.3 0.4 -2 0.9 0.6 0.8 4.6 0.4 4.6 -0.5z m-37 -11.3 c0 -1.1 -3.9 -2.5 -4.7 -1.8 -0.3 0.3 -0.2 1 0.2 1.6 0.8 1.3 4.5 1.5 4.5 0.2z m18 -15.3 c0 -1.9 -1.8 -4.4 -2.5 -3.6 -0.4 0.3 0 1.5 0.7 2.7 1.5 2.4 1.8 2.6 1.8 0.9z"/>
  <path d="M402.5 289.1 c-0.3 -0.6 -2.6 -2 -5 -3.2 -2.5 -1.2 -4.5 -2.6 -4.5 -3.1 0 -1.4 11.8 -1 12.3 0.5 0.2 0.6 0.7 0.9 1.1 0.5 0.4 -0.3 0.3 -1.5 -0.3 -2.6 -0.9 -1.6 -2.2 -1.9 -8.8 -2 -4.3 0 -8.2 0.3 -8.8 0.7 -1.1 0.9 -6.5 2.1 -6.5 1.4 0 -1.3 3.6 -7.2 5.8 -9.5 1.4 -1.6 2.1 -2.8 1.5 -2.8 -0.6 0 -2.5 1.6 -4.2 3.5 -3.7 4.2 -5.6 4.6 -3.3 0.6 1.6 -2.8 1.6 -3 -0.7 -4.8 -2.1 -1.7 -2.2 -2.2 -1 -4.1 0.7 -1.2 2.6 -2.7 4.1 -3.3 2.5 -1 3.2 -2 3 -4 -0.1 -0.4 0.8 -0.5 1.8 -0.2 1.2 0.3 2 0 2 -0.7 0 -0.8 0.9 -1 2.5 -0.6 1.7 0.4 2.4 0.2 2.3 -0.6 -0.3 -1.2 2 -2.2 7.6 -3.3 3.7 -0.8 1.7 -2.4 -2.2 -1.9 -2.5 0.4 -2.5 0.3 0.3 -0.6 3.6 -1.2 5.5 -0.6 5.5 1.5 0 1.7 -2 2.7 -5.6 2.9 -1.3 0.1 -2.3 0.6 -2.2 1.1 0.2 0.6 1 0.8 1.8 0.6 0.8 -0.2 6.5 -0.8 12.7 -1.4 8.7 -0.8 12.5 -0.7 17.4 0.3 10.4 2.2 18.5 9.2 20.9 18 0.6 2.1 1.9 4.9 3.1 6.4 2.1 2.6 1.9 3 -1.3 2.7 -2.4 -0.3 -2.3 1.4 0.1 3.8 2 2 2 2 -0.1 2.7 -1.5 0.4 -2.6 0.1 -3.4 -1.1 -1 -1.3 -2 -1.6 -4 -1.1 -1.5 0.4 -4.9 0.2 -7.5 -0.5 -4.9 -1.3 -6.6 -2.9 -3 -2.9 3.6 0 5.8 -5.2 4 -9.6 l-1.1 -2.9 -1.9 4.3 c-1 2.3 -2.3 4.2 -2.9 4.2 -0.6 0 -0.8 0.5 -0.5 1 0.3 0.6 -1 2.6 -3.1 4.5 -3.9 3.7 -6 4.5 -5 1.9 0.3 -0.9 0.6 -1.7 0.6 -2 0 -0.2 0.7 0 1.7 0.3 1.1 0.4 1.4 0.3 0.9 -0.5 -1.1 -1.8 -5.6 -1.5 -5.6 0.3 0 0.8 -0.9 1.5 -2.1 1.5 -1.1 0 -1.7 -0.4 -1.4 -1 0.3 -0.5 0.1 -1 -0.4 -1 -0.6 0 -1.1 0.5 -1.1 1.1 0 0.8 -1.5 1 -4.4 0.7 -4.5 -0.5 -6.2 0.7 -5.7 4 0.2 1.4 -4.5 1.7 -5.4 0.3z m11.5 -15.1 c-0.7 -2.8 -1 -6 -0.7 -7 0.4 -1.6 0 -2 -1.7 -2 -1.2 0 -2.7 0.5 -3.4 1.2 -0.7 0.7 -1.2 0.8 -1.2 0.3 0 -0.4 -0.9 0 -2 1 -1.1 1 -2 1.4 -2 1 0 -0.4 -0.9 0 -1.9 0.9 -1.7 1.5 -1.8 2.2 -0.8 4 1.8 3.1 3.2 3.7 11.9 5 0.3 0.1 1 0.4 1.4 0.9 1.5 1.4 1.6 -0.3 0.4 -5.3z m34.6 -4.7 c-0.9 -3.8 -8.5 -10.6 -13.3 -12.1 -5.1 -1.5 -19.6 -1.6 -19.1 -0.1 0.4 1.3 -0.1 1.2 9 1.9 6.2 0.5 8.7 1.3 13 3.9 2.9 1.8 6.1 4.6 7 6.2 2.2 3.8 4.2 3.9 3.4 0.2z"/>
  <path d="M397.9 246.1 c-0.1 -0.3 -0.1 -1 0 -1.4 0.1 -0.4 -0.6 -1 -1.4 -1.3 -0.8 -0.4 -1.5 -1 -1.5 -1.4 0 -1.7 3.1 -1.8 8.7 -0.3 6.6 1.8 8.9 3.3 5.2 3.3 -1.4 0 -2.9 0.3 -3.3 0.7 -0.9 0.9 -7.6 1.2 -7.7 0.4z"/>
  <path d="M219.7 243.6 c1.2 -2.1 7.2 -8.6 7.8 -8.6 1.1 0 -5.7 8.9 -7.2 9.4 -0.9 0.4 -1.1 0.1 -0.6 -0.8z"/>
  <path d="M392.1 239.1 c-0.7 -1.1 -2 -2.1 -3.1 -2.1 -2.7 0 -3.1 -1.2 -1.5 -4.1 0.8 -1.3 1.8 -3.2 2.1 -4.1 1.2 -3.4 2.4 -1.8 2.4 3.2 0 3.8 0.4 5 1.5 5 1.7 0 1.9 0.9 0.6 2.9 -0.7 1.1 -1.1 0.9 -2 -0.8z"/>
  <path d="M379.8 236.9 c-1.9 -2 -2.4 -4.9 -1 -4.9 1.4 0 4.2 3.5 4.2 5.3 0 2.2 -1 2 -3.2 -0.4z"/>
  <path d="M325.2 234.1 c0.1 -1.6 0.6 -2.7 1 -2.5 1.2 0.7 1 5.4 -0.2 5.4 -0.6 0 -0.9 -1.3 -0.8 -2.9z"/>
  <path d="M233 231 c0.8 -0.5 2.6 -0.9 4 -0.9 2.3 0 2.3 0.1 0.5 0.9 -1.1 0.5 -2.9 0.9 -4 0.9 -1.7 0.1 -1.7 -0.1 -0.5 -0.9z"/>
  <path d="M240.5 229 c-0.8 -1.3 2.3 -2 4.7 -1 1.4 0.5 1.7 0.9 0.8 1 -0.8 0.1 -2.3 0.3 -3.2 0.5 -1 0.2 -2 0 -2.3 -0.5z"/>
  <path d="M532 149.1 c0 -1 4.2 -2.3 4.9 -1.5 0.7 0.6 -2 2.4 -3.6 2.4 -0.7 0 -1.3 -0.4 -1.3 -0.9z"/>
  <path d="M541.8 143.8 c0.9 -0.9 1.5 -0.9 2.4 0 0.9 0.9 0.7 1.2 -1.2 1.2 -1.9 0 -2.1 -0.3 -1.2 -1.2z"/>
  <path d="M506 143.1 c0.8 -0.5 3.8 -1.1 6.5 -1.5 2.8 -0.4 6.2 -0.9 7.6 -1.2 2 -0.4 2.8 0 3.1 1.4 0.5 1.7 0.2 1.8 -4.1 1 -2.8 -0.5 -5.7 -0.4 -7.5 0.2 -3.7 1.3 -7.8 1.3 -5.6 0.1z"/>
  <path d="M527.5 142 c-0.3 -0.5 0.3 -1 1.4 -1 1.2 0 2.1 0.5 2.1 1 0 0.6 -0.6 1 -1.4 1 -0.8 0 -1.8 -0.4 -2.1 -1z"/>
  <path d="M518.1 133.6 c-1 -1.2 -0.8 -1.6 1 -2.1 1.3 -0.4 3 -1.5 3.8 -2.4 1.2 -1.3 1.4 -1.3 0.6 -0.1 -0.5 0.8 -1.6 2.1 -2.5 2.8 -1.3 1.2 -1.3 1.3 0 1.2 2.9 -0.4 5 0 5 1 0 1.5 -6.6 1.2 -7.9 -0.4z"/>
  <path d="M533 134.3 c-3.1 -0.6 -4.3 -2.3 -2.8 -4 1.4 -1.8 4.8 -1.6 4.8 0.2 0 0.8 0.5 1.5 1.1 1.5 0.6 0 0.8 -0.7 0.4 -1.7 -0.5 -1.4 -0.3 -1.5 0.5 -0.7 1.4 1.4 1 4.6 -0.5 4.9 -0.5 0.1 -2.1 0 -3.5 -0.2z"/>
  <path d="M145.7 119.9 c-0.3 -1.3 -0.1 -1.9 0.6 -1.6 1.5 0.5 2.2 3.7 0.9 3.7 -0.5 0 -1.2 -0.9 -1.5 -2.1z"/>
  <path d="M165.8 99.5 c0 -1.1 -0.1 -2.6 -0.1 -3.2 0.1 -0.7 -0.5 -1.3 -1.3 -1.3 -0.8 0 -1.4 -0.5 -1.4 -1.1 0 -0.6 0.7 -0.9 1.5 -0.5 1.6 0.6 2.2 -1.9 0.6 -2.8 -1.4 -0.9 0.1 -5.8 2 -6.3 1.2 -0.3 2.1 -1.8 2.5 -4.2 0.5 -2.3 2.1 -4.9 4.5 -7.3 2.1 -2.1 4.1 -4.8 4.4 -6.1 0.3 -1.2 1.6 -2.7 2.8 -3.3 1.2 -0.5 2.1 -1.5 2 -2.2 -0.2 -0.7 0.4 -1.2 1.2 -1.2 0.8 0 1.5 -0.5 1.5 -1.1 0 -0.5 0.4 -0.7 1 -0.4 0.5 0.3 0.7 0 0.5 -0.7 -0.4 -0.9 1 -2.3 3.5 -3.7 2.2 -1.2 4.7 -2.9 5.5 -3.7 1 -1.1 3.6 -1.6 8.2 -1.6 4.4 -0.1 7.2 -0.6 8.1 -1.5 2 -2 0.7 -2.8 -2.3 -1.5 -4.1 1.9 -6.5 1.4 -3 -0.5 3.5 -2 6.4 -1.8 8.2 0.5 1.6 2.2 1.7 4.5 0.1 3.9 -0.7 -0.2 -2.8 0.6 -4.5 2 -1.8 1.3 -3.3 2.2 -3.3 1.8 0 -0.3 -1.7 0.4 -3.7 1.5 -2.1 1.1 -5 2 -6.5 2 -1.6 0 -2.8 0.3 -2.8 0.8 0 0.4 -1.2 1.5 -2.7 2.4 -1.6 1 -2.2 1.8 -1.4 1.8 1.1 0 1.1 0.3 0.1 1.6 -0.8 0.8 -2.3 2 -3.4 2.6 -2 1.1 -2 1.1 -0.2 -1.8 l1.9 -2.9 -2.7 2.5 c-1.5 1.4 -4.4 5.6 -6.3 9.3 -2 3.8 -4.9 8.2 -6.6 10 -3.5 3.7 -4.8 6.8 -5.3 12.1 -0.4 4.4 -2.3 7.3 -2.6 4.1z"/>
  <path d="M366 94.6 c0 -0.3 0.4 -1.6 1 -3 0.9 -2.4 0.6 -2.7 -3.3 -4.6 -3.7 -1.9 -3.9 -2.1 -1.2 -1.6 1.7 0.2 3.8 0.8 4.8 1.2 1.5 0.5 1.8 0.3 1.6 -1.2 -0.5 -2.7 0.9 -4.4 2.9 -3.8 1.4 0.5 1.5 0.4 0.2 -0.5 -1.7 -1.1 -1.6 -1.3 2.5 -3.4 2.4 -1.3 2.6 -1.6 1 -1.6 -1.1 -0.1 -4.1 0.6 -6.7 1.4 -4.2 1.2 -4.8 1.2 -4.8 0 0 -0.8 -0.9 -1.5 -2 -1.5 -2.3 0 -2.7 -1.5 -0.5 -2.4 0.8 -0.3 1.5 -1.2 1.5 -2 0 -0.8 0.6 -1.6 1.3 -1.9 0.9 -0.3 0.9 -0.9 0 -2.5 -1 -1.6 -0.9 -2.1 0.2 -2.6 2.2 -0.8 1.8 -2.5 -0.5 -2.3 -1.1 0.1 -2 0.5 -2 1 0 0.5 -1.2 0.6 -2.7 0.2 -1.6 -0.4 -4.9 -0.7 -7.5 -0.6 -2.8 0.1 -4.8 -0.2 -4.8 -0.9 0 -0.5 1.3 -1 2.9 -1 1.7 0 3.3 -0.4 3.6 -1 0.3 -0.6 -0.3 -0.9 -1.4 -0.7 -1.1 0.1 -2 -0.2 -2.1 -0.8 0 -0.5 1.1 -1.1 2.6 -1.3 1.5 -0.2 2.8 -1.1 3.1 -2.2 0.3 -1 1.3 -2 2.4 -2.3 1 -0.3 2.3 -1.6 2.8 -2.9 0.6 -1.2 1 -1.6 1 -0.9 0.1 1 0.4 1.2 1.1 0.5 1.2 -1.2 0.2 -4.7 -1.1 -3.8 -0.5 0.3 -0.9 0 -0.9 -0.5 0 -1.5 2 -1.4 2.5 0.2 0.3 0.6 1.6 1.3 3 1.3 1.4 0.1 2.2 -0.2 1.9 -0.8 -0.3 -0.5 -0.1 -1.4 0.4 -2.1 1.7 -2.2 1 -4.4 -1.3 -4 -1.5 0.3 -2.5 -0.3 -3.5 -2.1 -0.7 -1.4 -2 -2.6 -2.7 -2.6 -1 0 -1.2 -0.7 -0.8 -2 0.7 -2.1 -0.1 -2.4 -5.7 -2 -1.4 0.1 -2.9 -0.3 -3.3 -0.9 -1 -1.7 -3.8 -1.3 -3.1 0.4 0.3 0.9 0 1.5 -1 1.5 -0.8 0 -1.8 0.8 -2.1 1.8 -0.4 0.9 -1.5 2.8 -2.5 4.1 -2.3 3 -2.4 6.6 -0.3 5.7 1.3 -0.5 1.4 -0.2 0.4 1.5 -0.6 1.1 -0.8 2.3 -0.5 2.6 1.5 1.5 3.3 -1.2 5.6 -7.8 1.3 -4.1 2.5 -7.6 2.6 -7.7 0.2 -0.2 1.2 -0.1 2.4 0.3 2.4 0.8 2.2 1.8 -2.2 11.3 l-2.9 6.3 -4.7 -0.3 c-3.8 -0.2 -4.9 0.1 -5.7 1.6 -0.5 1 -2.1 2.6 -3.4 3.5 -2.4 1.5 -2.4 1.5 -1.1 -0.9 0.7 -1.4 2 -3 2.9 -3.7 0.9 -0.7 1.2 -1.3 0.8 -1.3 -0.5 0 -2.4 1.2 -4.3 2.6 -1.9 1.5 -3.7 2.4 -4 2.2 -0.3 -0.3 0.7 -1.5 2.2 -2.7 2.2 -1.7 2.5 -2.4 1.5 -3.4 -0.8 -0.8 -1.4 -0.9 -1.9 -0.1 -0.4 0.6 -1.8 1.5 -3.1 1.9 -1.9 0.6 -2.3 0.4 -1.8 -0.8 0.3 -0.8 0 -2 -0.6 -2.6 -0.8 -0.8 -0.8 -1.1 0 -1.1 0.6 0 1.3 0.5 1.5 1.2 0.2 0.6 1 0.8 1.7 0.4 0.8 -0.6 0.9 -1.1 0.2 -2 -0.6 -0.7 -0.8 -1.6 -0.5 -1.9 0.4 -0.3 0.1 -2 -0.4 -3.7 -1 -2.6 -0.8 -3.7 1.3 -7.3 1.3 -2.4 2.7 -6 3.1 -8.2 0.6 -3.5 0.8 -3.7 1.5 -1.6 0.8 2.1 1 2.2 2.6 0.5 1 -0.9 1.6 -2.7 1.5 -3.9 -0.3 -2 0 -2.1 6 -1.7 6 0.4 18.2 3.7 22.9 6.3 1.7 0.9 1.9 1.3 0.8 2 -1.9 1.2 -0.2 1.1 2.1 -0.1 1.5 -0.8 1.8 -0.7 1.4 0.3 -0.3 0.8 0.2 1.7 1 2 0.9 0.4 1.6 1.4 1.6 2.4 0 1.3 0.2 1.5 0.8 0.5 0.6 -0.9 1.6 -1 3.4 -0.3 1.7 0.6 2.9 0.6 3.6 -0.1 0.8 -0.8 1.4 -0.4 2.1 1.5 1.5 4 10 8.2 11.6 5.7 1.1 -1.7 3.6 0.1 2.9 2.2 -0.4 1.5 -0.2 1.9 0.7 1.6 0.8 -0.3 2.3 1 3.6 3.1 2.2 3.5 2.3 3.5 2.3 1 0 -3.4 -2.3 -7.9 -5.2 -10.1 -1.3 -0.9 -1.9 -2 -1.4 -2.5 0.5 -0.4 1.1 -0.2 1.3 0.5 0.3 0.6 1 1.2 1.6 1.2 1.4 0 8.1 7.7 8.3 9.4 0 0.6 0.2 1.9 0.2 2.9 0.1 0.9 0.9 1.7 1.7 1.7 2.1 0 1.9 1.8 -0.4 2.5 -1 0.3 -2.1 1.8 -2.4 3.3 -0.3 1.5 -0.9 3.5 -1.2 4.5 -0.5 1.2 -0.2 1.7 0.9 1.7 3.6 0 1.3 1.8 -3.1 2.5 -6.7 1 -11.6 3.8 -19.2 10.9 -3.6 3.4 -8.3 7.4 -10.3 8.9 -2.4 1.9 -4.2 4.5 -5.4 7.8 -1 2.7 -2.2 4.9 -2.6 4.9 -0.4 0 -0.8 -0.2 -0.8 -0.4z m5.1 -44.6 c2.8 -1.6 2.3 -3.2 -0.6 -1.8 -1.4 0.6 -2.5 1.5 -2.5 2 0 1.1 0.7 1 3.1 -0.2z m-32.1 -12.2 c0 -0.4 -0.9 -0.8 -2.1 -0.8 -1.5 0 -1.9 0.4 -1.5 1.6 0.3 0.9 0.6 2.1 0.6 2.7 0.1 1.3 3 -2.2 3 -3.5z m45.5 1.9 c-1 -0.5 -2.9 -2.2 -4.1 -3.6 -1.5 -1.7 -2.3 -2.1 -2.4 -1.2 0 1.8 6.2 7.1 7.4 6.4 0.5 -0.3 0 -1 -0.9 -1.6z m-54.5 -1.4 c0 -1 0.3 -2.9 0.6 -4.3 0.5 -2.3 0.4 -2.3 -0.7 -0.6 -1.5 2.5 -2 6.6 -0.8 6.6 0.5 0 0.9 -0.8 0.9 -1.7z m39.3 -6.9 c-0.7 -0.3 -1 -1.1 -0.7 -1.8 0.3 -0.8 -0.5 -1.5 -2 -1.8 -1.4 -0.3 -2.6 -0.4 -2.6 -0.2 0 0.1 -0.3 1 -0.7 2 -0.4 1 -0.2 1.5 0.3 1.1 0.6 -0.3 1.6 -0.2 2.4 0.4 0.8 0.5 2.2 0.8 3 0.8 0.9 0 1.1 -0.2 0.3 -0.5z m-5.1 -7.6 c-0.4 -0.4 -1.9 -1 -3.4 -1.3 -3.5 -0.9 -3.9 1.7 -0.6 3.2 2.3 1 5.4 -0.5 4 -1.9z"/>
  <path d="M378.5 93.1 c-0.3 -0.6 -0.3 -1.5 0 -2.1 0.3 -0.5 0.1 -1 -0.4 -1 -0.6 0 -1.1 0.5 -1.1 1 0 1.4 -3.8 1.2 -4.3 -0.2 -0.5 -1.5 0.6 -4 3.1 -7 2.2 -2.6 12.9 -7.8 14.6 -7.2 1.3 0.5 10.7 -5.2 11.4 -6.9 0.2 -0.4 0.8 -0.4 1.3 -0.1 1.2 0.7 -0.8 3.4 -2.6 3.4 -0.6 0 -2 0.9 -3 2 -1.8 1.9 -1.7 2 0.1 2 1.1 0 2.5 0.5 3.2 1.2 1.7 1.7 1.5 4.8 -0.3 4.9 -2.9 0.3 -3.3 0.4 -4.2 1.3 -0.4 0.5 1 0.6 3.4 0.3 2.4 -0.3 4.6 -0.1 4.9 0.4 0.8 1.4 2.4 0 1.7 -1.6 -0.3 -0.8 -0.1 -1.5 0.5 -1.5 0.5 0 1.2 0.9 1.5 2 0.6 2.5 -4.2 6.2 -10.3 7.8 -6.8 1.7 -18.7 2.5 -19.5 1.3z m9.7 -3.3 c-0.9 -0.9 -1.5 -0.9 -2.4 0 -0.9 0.9 -0.7 1.2 1.2 1.2 1.9 0 2.1 -0.3 1.2 -1.2z"/>
  <path d="M364.7 82.3 c-1.3 -1.2 -0.7 -2.3 1.3 -2.3 1.1 0 2 0.7 2 1.5 0 1.5 -2.1 2.1 -3.3 0.8z"/>
  <path d="M460 77.4 c0 -1.7 0.6 -2.8 2 -3.1 2.6 -0.7 2.6 -2.3 0.1 -2.3 -1.1 0 -2.3 -0.4 -2.6 -1 -0.4 -0.6 1.1 -1 3.7 -1 2.9 0 3.8 0.3 2.9 0.9 -0.8 0.5 -1.1 1.6 -0.8 2.5 0.6 1.5 0.8 1.5 2.5 -0.1 1 -1 1.7 -2.1 1.5 -2.5 -0.2 -0.4 0.3 -0.5 1.1 -0.2 2.1 0.8 2 1.3 -1 3.6 -1.4 1.2 -2.3 2.7 -2 3.5 0.3 0.8 0.1 1.1 -0.4 0.8 -0.6 -0.3 -1 -0.1 -1 0.4 0 0.6 -1.3 1.1 -3 1.1 -2.6 0 -3 -0.4 -3 -2.6z"/>
  <path d="M386 75 c0 -2 13.1 -10 16.4 -10 1.9 0 -2.1 4.1 -7.6 7.7 -4 2.7 -8.8 3.9 -8.8 2.3z"/>
  <path d="M410.5 73.1 c1.1 -1 17.5 -5.1 17.5 -4.4 0 0.2 -0.7 1.1 -1.5 2 -0.8 0.8 -1.3 2 -0.9 2.6 0.3 0.7 -0.1 0.4 -0.9 -0.6 -1.3 -1.5 -1.9 -1.7 -3.7 -0.7 -2.7 1.4 -11.8 2.4 -10.5 1.1z"/>
  <path d="M341.5 66 c-0.4 -0.6 0.6 -1 2.2 -1 2.2 0 2.5 0.2 1.3 1 -1.9 1.2 -2.7 1.2 -3.5 0z"/>
  <path d="M285.5 61.5 c-1.9 -1.4 -1.9 -1.4 0.5 -1.6 3.5 -0.3 4.1 -0.4 7.4 -1.8 1.7 -0.7 4.1 -1 5.5 -0.8 2.6 0.3 2.6 0.3 -0.4 1.1 -2.4 0.6 -7.3 2.6 -10.5 4.3 -0.3 0.2 -1.5 -0.3 -2.5 -1.2z"/>
  <path d="M319.5 58.9 c-2.2 -0.4 -5.8 -0.9 -8 -1 l-4 -0.2 3.5 -0.7 3.5 -0.7 -3.3 -0.8 c-2.1 -0.5 -3 -1.1 -2.4 -1.7 1.2 -1.2 9.3 0.8 10.8 2.7 0.5 0.7 2.6 1.8 4.5 2.3 4.1 1.2 1 1.3 -4.6 0.1z"/>
  <path d="M417.2 55.1 c0.7 -0.9 1.3 -1.7 1.4 -1.9 0.3 -0.6 5.4 1.8 5.4 2.5 0 0.5 -1.8 0.9 -4 0.9 -3.6 0.1 -3.9 0 -2.8 -1.5z"/>
  <path d="M434 54.7 c0 -1 1.1 -2.2 2.5 -2.7 1.4 -0.5 2.5 -1.5 2.5 -2.1 0 -0.6 -0.7 -0.9 -1.5 -0.5 -0.8 0.3 -1.5 0.1 -1.5 -0.4 0 -0.6 1.1 -1 2.5 -1 1.4 0 2.5 -0.5 2.5 -1.2 0 -0.6 0.2 -0.9 0.5 -0.6 0.9 0.9 -3.8 8.8 -4.8 8.1 -0.5 -0.3 -1.3 0.1 -1.8 0.8 -0.7 1.1 -0.9 1 -0.9 -0.4z"/>
  <path d="M291.5 47 c-0.3 -0.5 -1.2 -0.7 -2 -0.3 -0.9 0.3 -1.5 -0.1 -1.5 -0.9 0 -1.9 7.5 -4.3 11.8 -3.9 2 0.2 1.4 3.1 -0.7 3.1 -1 0 -2.4 0.7 -3.1 1.5 -1.4 1.7 -3.6 2 -4.5 0.5z"/>
  <path d="M264 38.8 c0 -0.9 -0.8 -2.1 -1.7 -2.7 -1.6 -0.8 -1.5 -1.1 1 -2 3.5 -1.3 9 -1.4 8.2 -0.2 -0.3 0.5 -1.9 1.2 -3.5 1.6 -1.7 0.4 -2.8 1 -2.6 1.4 0.3 0.4 0.1 1.3 -0.5 2.1 -0.7 1.3 -0.9 1.2 -0.9 -0.2z"/>
  <path d="M273.4 37.5 c2.1 -1.6 8.4 -3.1 9.3 -2.2 0.7 0.8 -6.5 3.7 -9.1 3.7 -2 -0.1 -2.1 -0.1 -0.2 -1.5z"/>
  <path d="M390.4 34.9 c-1.9 -2.1 -1.9 -2.1 0.6 -1.8 1.4 0.2 2.6 1.2 2.8 2.2 0.5 2.3 -1.1 2.2 -3.4 -0.4z"/>
  <path d="M276 30.9 c0 -0.7 -0.7 -2 -1.5 -2.9 -2.1 -2.3 -2.8 -10 -1 -10 0.9 0 1.2 0.6 0.9 1.5 -0.4 0.8 -0.3 2.7 0.1 4.2 0.5 2.1 0.8 2.4 1.6 1.2 0.8 -1.2 1 -1.2 1.9 0.1 1.3 2 0.8 6.2 -0.7 6.8 -0.7 0.2 -1.3 -0.2 -1.3 -0.9z"/>
  <path d="M262.3 22 c-1.1 -1.7 -1.1 -1.8 0.7 -1.2 2 0.7 2.8 2.4 1.3 2.9 -0.4 0.2 -1.4 -0.6 -2 -1.7z"/>
 </g>
 <g fill="#000000">
  <path d="M344 665.2 c0 -0.5 0.7 -1.3 1.6 -1.6 1 -0.4 1.4 -0.1 1.2 0.6 -0.5 1.5 -2.8 2.3 -2.8 1z"/>
  <path d="M296.5 650 c-1.7 -0.7 -1.4 -0.9 1.3 -0.9 2 -0.1 3.1 0.3 2.7 0.9 -0.7 1.2 -1.3 1.2 -4 0z"/>
  <path d="M347.8 648.3 c0.6 -0.2 1.2 -1.3 1.2 -2.4 0 -1 0.7 -1.9 1.5 -1.9 0.9 0 1.2 0.6 0.8 1.8 -0.7 1.9 -2.3 3.2 -3.8 3.1 -0.5 0 -0.4 -0.3 0.3 -0.6z"/>
  <path d="M337 637.5 c0 -1 0.7 -1.5 1.8 -1.3 2.1 0.4 1.9 2.2 -0.2 2.6 -1 0.2 -1.6 -0.3 -1.6 -1.3z"/>
  <path d="M319 634.5 c0 -1.4 0.4 -2.5 0.9 -2.5 1.2 0 2.3 2.9 1.5 4.1 -1 1.8 -2.4 0.9 -2.4 -1.6z"/>
  <path d="M322 631 c0 -0.8 0.5 -2.2 1 -3 0.9 -1.3 1 -1.3 1 0 0 0.8 -0.5 2.2 -1 3 -0.9 1.3 -1 1.3 -1 0z"/>
  <path d="M285.2 616.4 c0.9 -0.9 2.1 -1.3 2.8 -0.9 1.4 0.9 -0.5 2.5 -3 2.5 -1.2 0 -1.2 -0.3 0.2 -1.6z"/>
  <path d="M290.2 609.5 c-1.1 -1.3 -1 -1.5 0.7 -1.5 1.4 0 1.9 0.5 1.5 1.5 -0.7 1.8 -0.6 1.8 -2.2 0z"/>
  <path d="M290.1 569.3 c-1 -1.1 -1.1 -2 -0.3 -3.6 0.8 -1.7 1.1 -1.8 1.1 -0.5 0.1 0.9 0.5 1.8 1 2 0.4 0.2 0.6 1 0.2 1.9 -0.5 1.5 -0.8 1.5 -2 0.2z"/>
  <path d="M332.7 548.6 c-0.3 -0.8 0 -1.7 0.8 -2 0.9 -0.3 1.3 0.2 1.2 1.5 -0.2 2.2 -1.3 2.5 -2 0.5z"/>
  <path d="M229.2 548.1 c0.2 -0.7 0.7 -1.2 1.1 -1.2 1.2 0.1 0.9 1.5 -0.3 2 -0.7 0.2 -1.1 -0.2 -0.8 -0.8z"/>
  <path d="M218.7 528.4 c-0.8 -0.8 0.1 -2.4 1.3 -2.4 0.4 0 1 0.7 1.4 1.5 0.5 1.5 -1.4 2.1 -2.7 0.9z"/>
  <path d="M218.2 435.8 c0.5 -1.5 2.8 -2.3 2.8 -1 0 0.5 -0.7 1.3 -1.6 1.6 -1 0.4 -1.4 0.1 -1.2 -0.6z"/>
  <path d="M152.1 358.1 c-1 -0.6 -1 -1 -0.1 -1.6 1.3 -0.8 2.4 -0.1 1.9 1.4 -0.3 0.6 -1 0.7 -1.8 0.2z"/>
  <path d="M487.3 319 c0.6 -1.1 1.5 -2 1.9 -2 1.2 0 -0.3 2.8 -1.8 3.4 -1.1 0.4 -1.2 0.2 -0.1 -1.4z"/>
  <path d="M409 290 c0 -0.5 0.4 -1 1 -1 0.5 0 0.7 -0.8 0.4 -1.7 -0.5 -1.4 -0.4 -1.5 0.4 -0.4 1.1 1.5 0.5 4.1 -0.9 4.1 -0.5 0 -0.9 -0.4 -0.9 -1z"/>
  <path d="M425 250 c-3 -0.4 -5 -0.8 -4.5 -0.9 2.1 -0.6 10.1 0.1 11.5 1 1.7 1 1.8 1 -7 -0.1z"/>
  <path d="M412.3 249.3 c0.9 -0.2 2.5 -0.2 3.5 0 0.9 0.3 0.1 0.5 -1.8 0.5 -1.9 0 -2.7 -0.2 -1.7 -0.5z"/>
  <path d="M415.8 134.2 c0.9 -1.1 2 -1.7 2.5 -1.5 0.9 0.5 -1.8 3.3 -3.2 3.3 -0.6 0 -0.3 -0.8 0.7 -1.8z"/>
  <path d="M145.6 119.8 c-0.3 -1.3 -0.6 -3.9 -0.6 -5.8 0.1 -2.9 0.2 -3.2 1.1 -1.7 0.6 1 0.8 2.5 0.5 3.4 -0.4 0.8 -0.1 2.2 0.5 3 0.8 0.9 0.9 1.7 0.2 2.4 -0.7 0.7 -1.2 0.3 -1.7 -1.3z"/>
  <path d="M168 104.5 c0 -1.4 0.5 -2.5 1 -2.5 0.6 0 1 1.1 1 2.5 0 1.4 -0.4 2.5 -1 2.5 -0.5 0 -1 -1.1 -1 -2.5z"/>
  <path d="M186.6 102.5 c-1.6 -1.2 -1.7 -1.5 -0.4 -1.5 0.8 0 2.1 0.7 2.8 1.5 1.6 1.9 0.1 1.9 -2.4 0z"/>
  <path d="M418 92.2 c0 -1.1 7 -5.5 7.7 -4.8 0.2 0.2 -0.8 1.3 -2.4 2.3 -4.4 3.1 -5.3 3.5 -5.3 2.5z"/>
  <path d="M348 87.5 c-6.3 -1.3 -6.4 -1.3 -2 -1.4 5.8 -0.1 12 0.9 12 2 0 1.1 -1.6 1 -10 -0.6z"/>
  <path d="M322.5 82.9 c0.7 -1 5.5 -1.8 5.5 -0.9 0 0.4 -1.3 1 -2.9 1.2 -1.7 0.2 -2.8 0.1 -2.6 -0.3z"/>
  <path d="M344.8 83.1 c-3.1 -0.3 -6 -0.9 -6.4 -1.4 -1.4 -1.4 10.4 -0.7 13.2 0.8 3.2 1.6 3.1 1.7 -6.8 0.6z"/>
  <path d="M183 80 c2.1 -2.9 4 -3.2 4 -0.7 0 0.7 -0.4 0.7 -0.9 -0.2 -0.8 -1.2 -1.2 -1 -2.2 1.2 -0.7 1.5 -1.6 2.7 -2.1 2.7 -0.5 0 0 -1.4 1.2 -3z"/>
  <path d="M364.2 82.3 c-1.8 -0.7 -0.4 -2.3 1.9 -2.3 1.2 0 1.9 0.5 1.7 1.2 -0.5 1.4 -1.8 1.8 -3.6 1.1z"/>
  <path d="M403 78.5 c-0.9 -1.1 -1 -1.9 -0.2 -2.7 1.3 -1.3 2.8 -0.4 3.5 2.2 0.6 2.4 -1.5 2.7 -3.3 0.5z"/>
  <path d="M408.8 69.4 c1.9 -1 3.6 -2.3 3.9 -3.1 0.6 -1.5 2.3 -0.7 2.3 1.1 0 0.8 -1 1.6 -2.2 1.9 -1.3 0.3 -3.4 0.8 -4.8 1.2 -1.8 0.5 -1.6 0.2 0.8 -1.1z"/>
  <path d="M304 68.5 c0 -0.3 1.8 -1.4 4 -2.5 3.1 -1.6 3.8 -1.7 3.4 -0.5 -0.4 0.8 -0.7 1.5 -0.8 1.5 0 0 -1.6 0.4 -3.4 0.9 -1.7 0.5 -3.2 0.8 -3.2 0.6z"/>
  <path d="M459.5 67.9 c-0.7 -1.1 5.5 -7.3 6.4 -6.3 0.3 0.4 0 0.9 -0.6 1.1 -0.7 0.3 -1.3 1.5 -1.3 2.8 0 2.3 -3.5 4.2 -4.5 2.4z"/>
  <path d="M353 66.5 c-1.1 -1.3 -0.7 -1.5 2.6 -1.4 2.2 0 3.2 0.3 2.4 0.6 -0.8 0.3 -2 1 -2.6 1.4 -0.7 0.6 -1.6 0.3 -2.4 -0.6z"/>
  <path d="M341.9 65.9 c-1 -0.6 -0.7 -0.9 1.4 -0.9 2.9 0 3.5 0.5 1.4 1.3 -0.8 0.3 -2 0.1 -2.8 -0.4z"/>
  <path d="M418 65.8 c0 -0.4 0.4 -0.8 0.9 -0.8 0.5 0 1.7 -0.3 2.7 -0.7 1.1 -0.4 1.5 -0.2 1.2 0.7 -0.5 1.5 -4.8 2.2 -4.8 0.8z"/>
  <path d="M450 66.1 c0 -1.3 2.1 -3.4 7.3 -7.4 2 -1.6 4.6 -4.4 5.8 -6.3 1.9 -3.2 4.9 -4.6 4.9 -2.4 0 0.6 -0.6 1 -1.4 1 -1.6 0 -2.6 2.1 -2.6 5.5 0 1.3 -0.7 3.1 -1.6 4 -2.2 2.2 -3.2 1 -1.1 -1.3 1 -1 1.7 -2.2 1.7 -2.6 0 -1.3 -3.8 1.4 -8.4 6 -2.5 2.5 -4.6 4.1 -4.6 3.5z"/>
  <path d="M219.7 65.3 c-0.4 -0.6 0.6 -3.4 2.1 -6.3 1.5 -3 2.8 -4.6 3 -3.7 0.4 2.1 -4.3 11.3 -5.1 10z"/>
  <path d="M194 62.6 c0 -0.7 0.7 -1.9 1.5 -2.6 1.6 -1.3 2 -0.3 0.9 2.4 -0.8 2 -2.4 2.1 -2.4 0.2z"/>
  <path d="M226.3 61.9 c1.3 -5.3 3.8 -9.9 5.3 -9.9 1.2 0 1.4 0.4 0.6 1.3 -0.5 0.6 -1.3 2.6 -1.6 4.3 -0.4 1.8 -1.7 4 -2.8 5 -2.1 1.9 -2.1 1.9 -1.5 -0.7z"/>
  <path d="M412.4 61.4 c0.3 -0.9 0.6 -2 0.6 -2.6 0 -0.6 0.6 -0.5 1.5 0.2 1.2 1 1.3 1.6 0.4 2.6 -1.6 1.9 -3.3 1.8 -2.5 -0.2z"/>
  <path d="M326 60 l-2.5 -0.8 2.5 -0.1 c1.4 0 3.2 0.4 4 0.9 1.3 0.9 1.3 1 0 0.9 -0.8 -0.1 -2.6 -0.5 -4 -0.9z"/>
  <path d="M336 58.1 c0 -1.1 0.5 -2.3 1.2 -2.7 0.7 -0.5 0.8 -0.3 0.3 0.6 -0.5 0.9 -0.4 1.1 0.3 0.6 0.7 -0.4 1.2 -1.5 1.2 -2.5 0 -1.8 3.5 -3.5 5.2 -2.5 1.4 0.9 0.9 2.4 -0.8 2.4 -0.9 0 -1.8 0.9 -2.1 2 -0.3 1.1 -0.9 1.8 -1.3 1.5 -0.5 -0.3 -1.6 0.2 -2.4 1.1 -1.5 1.4 -1.6 1.4 -1.6 -0.5z"/>
  <path d="M280 55 c2 -1.3 4.3 -1.3 3.5 0 -0.3 0.6 -1.6 1 -2.8 1 -1.8 0 -1.9 -0.2 -0.7 -1z"/>
  <path d="M409.6 54.1 c-0.6 -0.9 5.3 -3.5 6.1 -2.7 0.2 0.2 0.1 1.1 -0.3 2 -0.6 1.7 -4.9 2.2 -5.8 0.7z"/>
  <path d="M236 50 c-0.9 -1.8 -0.8 -2 1.5 -2 2.3 0 2.4 0.2 1.5 2 -0.6 1.1 -1.3 2 -1.5 2 -0.2 0 -0.9 -0.9 -1.5 -2z"/>
  <path d="M281 51 c0 -0.6 1.7 -1 3.7 -1 4.3 0 4.1 0.5 -0.4 1.3 -1.9 0.4 -3.3 0.2 -3.3 -0.3z"/>
  <path d="M298.7 50.3 c-0.3 -0.5 1.8 -0.9 4.6 -0.9 3.8 -0.1 4.5 0.1 2.7 0.6 -3.4 1.1 -6.8 1.2 -7.3 0.3z"/>
  <path d="M422.7 49 c0.3 -1.1 1 -2.3 1.6 -2.7 0.7 -0.4 0.8 0 0.4 1.1 -0.4 1 -0.7 2.2 -0.7 2.7 0 0.5 -0.4 0.9 -0.9 0.9 -0.5 0 -0.7 -0.9 -0.4 -2z"/>
  <path d="M311.6 47.1 c-0.3 -0.5 0.1 -1.1 0.9 -1.5 1.5 -0.6 2.9 0.7 1.8 1.8 -0.9 0.9 -2.1 0.8 -2.7 -0.3z"/>
  <path d="M359.2 45.7 c0.9 -0.9 2.1 -1.7 2.7 -1.7 1.4 0 2.2 1.7 0.8 1.7 -0.7 0 -2.1 0.4 -3.2 0.9 -1.9 0.7 -1.9 0.7 -0.3 -0.9z"/>
  <path d="M243.2 43.5 c-0.9 -2 -0.9 -2.3 0.3 -1.8 0.8 0.3 1.2 0.9 0.9 1.4 -0.8 1.4 0.9 1 3 -0.6 2.3 -1.7 3.6 -1.9 3.6 -0.6 0 0.7 -5.4 4.1 -6.5 4.1 -0.1 0 -0.7 -1.1 -1.3 -2.5z"/>
  <path d="M318.5 44 c0.4 -0.6 -0.6 -1 -2.4 -1 -1.6 0 -3.3 -0.4 -3.6 -1 -0.4 -0.6 0.9 -1 3.2 -1 3.2 0 3.9 0.4 4 2 0.1 1.1 -0.3 2 -0.8 2 -0.6 0 -0.7 -0.4 -0.4 -1z"/>
  <path d="M441.7 42.6 c-0.4 -1 -0.5 -2.1 -0.2 -2.4 0.9 -0.9 1.7 0.6 1.3 2.5 -0.3 1.7 -0.4 1.7 -1.1 -0.1z"/>
  <path d="M273 41 c0 -0.5 0.7 -1 1.5 -1 0.8 0 1.5 0.5 1.5 1 0 0.6 -0.7 1 -1.5 1 -0.8 0 -1.5 -0.4 -1.5 -1z"/>
  <path d="M258 38.5 c0 -0.8 0.9 -1.5 1.9 -1.5 1 0 2.1 0.7 2.5 1.5 0.4 1.1 -0.1 1.5 -1.9 1.5 -1.6 0 -2.5 -0.6 -2.5 -1.5z"/>
  <path d="M437.2 37.8 c0.5 -1.5 2.8 -2.3 2.8 -1 0 0.5 -0.7 1.3 -1.6 1.6 -1 0.4 -1.4 0.1 -1.2 -0.6z"/>
  <path d="M295.6 36.7 c0.5 -1.3 0.9 -4.2 1.4 -9.2 l0.1 -2 0.9 2 c1.3 3 1.2 7.9 -0.2 9.3 -1.6 1.6 -2.9 1.5 -2.2 -0.1z"/>
  <path d="M389.5 34 c-1.1 -1.2 -2 -2.7 -2.1 -3.5 -0.3 -2 3 -1.9 4.6 0 0.7 0.8 0.9 1.5 0.4 1.5 -0.4 0 -0.3 0.5 0.4 1.2 0.7 0.7 1.2 1.6 1.2 2 0 1.5 -2.7 0.8 -4.5 -1.2z"/>
  <path d="M325.4 27.7 c0.1 -5 1 -6.1 1.9 -2.5 0.3 1.1 0 3.3 -0.7 4.7 -1.3 2.4 -1.4 2.3 -1.2 -2.2z"/>
  <path d="M282.6 24.3 c-0.3 -2.5 -0.4 -4.9 0 -5.2 0.9 -1 2.4 2.3 2.4 5.6 0 5 -1.7 4.7 -2.4 -0.4z"/>
  <path d="M288.7 28.4 c-0.4 -0.4 -0.3 -1.2 0.2 -1.8 0.5 -0.6 1.1 -2.4 1.4 -4.1 0.4 -2.9 0.4 -2.9 0.5 0.5 0.2 3.7 -1 6.5 -2.1 5.4z"/>
  <path d="M258 24.6 c-0.6 -0.9 -1 -2.1 -0.8 -2.8 0.3 -0.8 0.9 -0.4 1.7 1 1.5 2.8 0.9 3.9 -0.9 1.8z"/>
  <path d="M268 21.8 c0 -2.5 0.3 -2.9 1 -1.8 1.3 2 1.3 5 0 5 -0.5 0 -1 -1.5 -1 -3.2z"/>
  <path d="M373.5 21.9 c-1.2 -1.9 0.5 -2.3 2.2 -0.6 1.6 1.6 1.6 1.7 0.1 1.7 -0.9 0 -2 -0.5 -2.3 -1.1z"/>
  <path d="M286 19.3 c0.1 -2.1 1.5 -3 2.7 -1.8 1 1 0.9 1.4 -0.3 1.9 -2 0.8 -2.4 0.8 -2.4 -0.1z"/>
 </g>
</svg>