<svg xmlns="http://www.w3.org/2000/svg" width="657" height="728" version="1.0"><g fill="#233746"><path d="M415 716c-3.6-3.8-7.1-6.9-7.8-6.9-.8-.1-2.7-1.4-4.2-3.1-1.5-1.6-3.5-3-4.4-3-.9 0-1.6-.4-1.6-1 0-.5-.9-1-2-1s-2-.4-2-1c0-.5-.8-1-1.8-1s-2.4-.9-3.2-2c-.8-1.1-2.2-2-3.2-2s-1.8-.4-1.8-1c0-.5-.8-1-1.8-1s-2.4-.9-3.2-2c-1-1.4-2.6-2-5.2-2-2.1 0-3.8-.4-3.8-1 0-.5-.9-1-2-1s-2 .5-2 1c0 1.5-3 1.2-3.6-.4-.3-.8-1.2-1.2-2-.9-.8.3-2.3-.5-3.4-1.7l-1.9-2.2-3.6 3.6c-2 2-3.8 3.6-4.1 3.6-1.1 0 3.2-6.3 5.8-8.5 2.6-2.2 2.7-2.4 1.2-5.4-1.5-3-3.4-4.2-3.4-2.1 0 .6-.5 1-1 1-.6 0-.8-1.1-.4-2.5.4-1.5.2-2.5-.5-2.5-.6 0-1.1.5-1.1 1 0 .6-.7 1-1.7 1-1.5 0-1.5-.1 0-1.8 2.1-2.3 2.2-4.2.2-4.2-.8 0-1.5-.4-1.5-.9s.7-1.1 1.5-1.5c.9-.3 1.5 0 1.5.8 0 1.3 3.1 4.6 4.3 4.6 1.1 0 .8-4.8-.3-5.5-1.5-.9-1-8.5.7-11 .7-1.1 1.3-3.5 1.3-5.3 0-4.3 2.2-6.6 5.6-5.8 1.7.5 2.3.3 1.9-.4-.3-.5 0-1 .8-1s2-.7 2.7-1.5c.7-.9 1.9-1.4 2.6-1.1 1.8.7 3.3-1.6 2.4-3.9-.5-1.3-.1-2.8 1.1-4.4 1.1-1.3 1.9-3 1.9-3.9 0-1 .7-1.3 2.5-1 1.3.3 2.2.1 1.9-.3-.3-.5.4-.9 1.4-.9 1.1 0 2.8-1.2 3.8-2.7 2.4-3.8 4-5.3 4.8-4.6.3.4.6.2.6-.4 0-.6 2.5-3.7 5.5-6.9 7.6-8.1 10.3-14 11.5-25 1.2-10.1 3.6-24.8 5.2-31.2.9-3.8 1.2-4.1 2.7-2.9.9.8 2.6 1.8 3.8 2.1 1.3.4 2.4 1.8 2.8 3.5.3 1.6 1.7 3.9 3.1 5.1 1.3 1.3 2.4 2.8 2.4 3.4.1.6.9 2.9 2 5.1 1.1 2.2 1.9 4.6 2 5.3 0 .8.8 2.6 1.9 4 1 1.5 2.2 3.8 2.6 5.2 2 6.5 8.9 15 12.2 15 3.1 0 7.1 2.2 10.2 5.5 1.3 1.4 3.4 2.5 4.9 2.5 1.4 0 2.2.3 1.9.6-.4.4-3.4.1-6.9-.6-4.4-1-7.2-2.3-9.9-4.7-4.1-3.7-4.9-4-4.9-1.8 0 .8.5 1.5 1.1 1.5.6 0 2.7 1.4 4.6 3 1.8 1.7 4.1 3 5.1 3 .9 0 4.6.9 8.2 2 3.6 1.1 9.2 2.2 12.5 2.5 8.8.8 8 1.5-1.8 1.5-5.1 0-8.7-.4-8.7-1 0-.5-1.8-1-4-1s-4-.4-4-1c0-1.4-3.7-1.2-4.3.3-.3.7-1.6 0-3.5-2.1-2.4-2.8-3-3.1-3.5-1.7-.4.9-.3 1.4.3 1 .5-.3 1.5.7 2.2 2.2.7 1.5 1.7 3.2 2.3 3.6.7.6.6 1-.2 1.4-.7.2-1.3 1.8-1.3 3.4 0 1.6-.4 2.9-.9 2.9-1.6 0-2 4-.5 5.4.8.8 1.4 2.6 1.4 4s.4 2.6.8 2.6c2.8 0 4.6 19.3 2 20.3-.9.3-.6 1.1 1 2.4 1.8 1.7 2.2 3.1 2.2 7.7 0 3.1-.4 5.6-1 5.6-.5 0-1 .9-1 2s-.4 2-1 2-1 3.7-1 9-.4 9-1 9c-.5 0-1 1.4-1 3 0 1.7-.4 3-1 3-.5 0-1 .9-1 2s-.4 2-1 2c-.5 0-1 1.8-1 4s-.4 4-1 4c-.5 0-1 .8-1 1.8s-.9 2.4-2 3.2c-1.1.8-2 2-2 2.8 0 .7-1.1 2.4-2.5 3.7-1.8 1.9-3.4 2.5-6.7 2.4-4 0-4.8-.5-10.8-6.9zm-58-55.2c0-1-1.2-1-3.4-.2-2.1.8-2.1 2.4 0 2.4.9 0 1.3.5.9 1.3-.4.6.1.3.9-.7.9-1.1 1.6-2.3 1.6-2.8zm3.4-12.8c-.7-.7-1.9-.7-3.5-.1-2.3.9-2.2 1 1.1 1 2.3.1 3.1-.2 2.4-.9zM158 703c0-1.1-.4-2-1-2-.5 0-1-.7-1-1.5 0-2.8-4.7-6.5-8.2-6.5-4 0-9.8-5.6-9.8-9.5 0-1.4-.4-2.5-.8-2.5s-.9-1.7-1-3.7c-.2-2.1-.8-4-1.3-4.4-.6-.3-.9-1.2-.8-2 .5-2.4-1.1-8.9-3.5-14.3-3.2-7.3-4.2-10.3-5.6-17.1-.6-3.3-2-9.2-3.1-13.2-1-3.9-1.9-8.3-1.9-9.8s-1-3.6-2.4-4.8c-1.6-1.5-2.2-2.8-1.7-3.6.6-.9 1.1-1 1.5-.2 1.6 2.6 2.6.7 2.6-4.8 0-5.3 1.1-15.8 2.6-24.8.2-1.8 1.1-3.9 1.9-4.7.9-.9 1.6-3.6 1.6-7 .1-4.8.4-5.6 2-5.6 1.1 0 1.9-.7 1.9-1.5 0-1.7 10.4-12.5 12-12.5 2.4 0 6-4.9 6-8.2 0-2.2.7-3.9 2-4.8 1.1-.8 2-1.9 2-2.5.1-2.6 26.2-17.5 30.8-17.5 1 0 4.2-1.2 7-2.6 5.6-2.8 8.2-2.6 8.2.5 0 5-3.4 19.1-5.6 23.1-1.4 2.5-5.3 7.1-8.8 10.3-7.3 6.5-11.5 13.2-12.3 19.7-.6 5.6 2.9 14.6 11.2 28.4 7.3 12.2 7.3 12.1 8 11.4.8-.8-1.4-5-3.1-6.1-.8-.4-1.4-1.5-1.4-2.3 0-1.1.8-.8 2.7 1.1 1.5 1.4 3.3 2.5 4 2.5.7 0 1.3.5 1.3 1.1 0 .5.4.7 1 .4.6-.3.7.1.4.9-.4 1-.1 1.6.9 1.6.8 0 1.7.7 2.1 1.5.6 1.6 3.6 2.1 3.6.7 0-.5-1.4-2.1-3.1-3.7l-3.2-2.8 3.9-1.3c2.2-.8 4.7-1.1 5.8-.8 1.2.4 1.6.2 1.2-.5-.4-.6-1.4-1.1-2.2-1.1-.8 0-1.4-.7-1.4-1.6 0-1.6 2.2-1.6 6 0 1.1.5 1.6.1 1.6-1.3 0-1.4-.7-1.8-2.8-1.7-1.7.1-2.8-.3-2.8-1.1 0-1.1 1.9-1.7 5.7-1.6.6 0 .9-.6.5-1.6-.5-1.4-.3-1.4 2.1.2 3.3 2.1 4.7 2.2 4.7.1 0-.8.5-1.2 1.1-.9.6.4.8 1.3.5 2.1-.7 1.7.6 5.1 3.1 8.1 1.3 1.7 2.2 2 3.3 1.3 1.3-.9 1.2-1.2-.4-2.5-1.1-.8-1.7-1.8-1.3-2.1 1.1-1.1 3.9.5 4.4 2.6.4 1.4 1.4 2 3.4 2 1.8 0 3.2.6 3.6 1.6.4 1.1 1.3 1.4 3 .9 1.5-.3 2.2-.2 1.9.4-.4.5.1 1.6.9 2.4.8.9 1.5 2.1 1.5 2.7 0 .7 1.3 2.5 3 4 2.8 2.6 3.2 2.7 6.8 1.6 2.1-.6 4.9-2.1 6.2-3.3 2.9-2.8 4.3-2.9 3.6-.5-.4 1.2.3 2.3 2.4 3.5 1.7 1 3.4 1.6 4 1.2.5-.3 1.4.3 2 1.4.7 1.3.7 2.2 0 2.6-1.5.9-1.2 2.5.5 2.5.8 0 1.5-.5 1.5-1.1 0-.6.6-.9 1.3-.6 4.6 1.9 4.7 1.9 4.7.1.1-1.8.1-1.8 1.2 0 .8 1.5.7 2.1-.6 2.8-2.4 1.3-1.9 3.3 1.2 4.8 3.9 2 6.2 4.1 6.2 5.7 0 1.8-2.6 1.7-3.4-.2-.3-.8-1.3-1.5-2.2-1.5-2.3 0 2.4 3.7 6.6 5.1 1.6.6 3 1.5 3 1.9 0 .5 1.5.5 3.3 0 1.7-.4 5.3-1 8-1.3 3.9-.4 4.6-.2 3.6.9-.6.8-.9 2.1-.5 2.9.9 2.4 3.5 1.7 4.8-1.2l1.2-2.8.4 2.8c.2 1.5 1 2.7 1.8 2.7s1.4.7 1.4 1.5c0 1.7-1.6 2-2.5.5-1.3-2.1-8.5-.8-8.5 1.5 0 .7-.8 1.6-1.7 1.9-1.5.6-1.5.8-.3 1.6s1 1-.7 1c-1.8 0-2.3-.6-2.3-2.4 0-5.9-3.3-7.8-4.4-2.5-.5 2.7-.8 3-2.1 1.9-1.2-1-1.5-.9-1.5.6-.1 1.8-.1 1.8-1.1.2-.5-1-1.9-1.8-2.9-1.8s-2.5-.9-3.3-2c-1.5-2.2-2.7-1.7-2.7 1.2 0 1 .6 1.8 1.3 1.7 3.1-.4 4.6.3 5.2 2.2.5 1.5 1.3 1.9 3.3 1.6 1.5-.2 2.1-.2 1.5 0-.7.3-1.3.8-1.3 1.3s-1 1.1-2.2 1.3l-2.3.4 2.2.8c1.2.4 2.4 1.3 2.7 2 .5 1.4-.5 1.3-4.9-.5-1.1-.5-2.8-1.1-3.7-1.4-1-.3-1.8-1.5-1.8-2.8-.1-1.9-.2-2-1-.7-1.1 2-12.5 2.6-14.6.8-1-.8-1.8-.8-2.7 0-1 .8-1.7.7-2.5-.1-1.4-1.4-9.2-2-9.2-.8 0 .4 1.9 1.5 4.1 2.4 5.4 2.2 4.6 3-1 1-2.9-1-4.7-1.1-5.5-.5-2.7 2.3-10.1-.4-17.1-6-1.1-.9-2.9-1.9-3.9-2.3-1.5-.5-1.7-.4-.7.8.9 1.1.9 1.6 0 2.2-.6.4-1.6 0-2.1-.9-1.4-2.6-6.7-7.1-7.5-6.4-.2.3.6 1.3 2 2.2 1.3.8 3.7 3.5 5.1 5.8 3 4.7 10.6 10.6 20.9 16.2 3.8 2.1 7.5 4.8 8.3 6 1.3 1.9 2 2.2 4.9 1.5 2.6-.6 3.2-.5 2.8.6-.6 1.6-9.3 2-9.3.4 0-.5-.7-1-1.6-1-.9 0-2.5-.9-3.4-2l-1.8-2.1-3.6 2.1c-2 1.1-4.5 2-5.5 2s-2.6.9-3.6 2-2.7 2-3.7 2-2.8.9-4 2c-1.3 1.2-3.6 2-5.5 2-1.8 0-3.3.5-3.3 1 0 .6-.8 1-1.8 1s-2.4.9-3.2 2c-.8 1.1-2.2 2-3.2 2s-1.8.5-1.8 1c0 .6-.9 1-2 1s-2 .5-2 1c0 .6-.8 1-1.8 1s-2.4.9-3.2 2c-.8 1.2-2.6 2-4.2 2-1.5 0-2.8.5-2.8 1 0 .6-.9 1-2 1s-2 .5-2 1c0 .6-.9 1-2 1s-2 .5-2 1c0 .6-1.3 1-3 1-1.6 0-3 .5-3 1 0 .6-.8 1-1.8 1s-2.4.9-3.2 2c-1.2 1.6-2.6 2-7.2 2-5.1 0-5.8-.2-5.8-2zm4.7-3c-.3-1.1-.2-2 .3-2 .4 0 1 .9 1.3 2 .3 1.1 1 2 1.7 2 1.5 0 .3-4.1-1.8-5.7-.9-.7-1.1-1.3-.5-1.3.7 0 2.1 1.2 3.2 2.7 2.6 3.2 4 2.3 1.7-1.2-.9-1.4-1.4-2.5-1.1-2.5h1.3c.4 0 .7.3.7.8 0 .4.5 1.5 1.1 2.5.9 1.6 1.2 1.6 4.2.1 1.8-.8 3.2-1.9 3.2-2.3 0-1.8-2.8-3.1-6.8-3.1-2.6 0-4.1-.4-3.7-1 .3-.5 2.2-1 4.1-1 1.9 0 3.4-.5 3.4-1.1 0-1.9-6.4.1-8.6 2.8-1.2 1.4-2.7 2.2-3.3 1.9-.6-.4-1.1 0-1.1.9 0 1.8-4.7-3.8-9.7-11.2-4-6.1-5-5.3-1.3 1 1.7 2.8 4.5 8 6.2 11.5 1.8 3.4 3.9 6.2 4.6 6.2.9 0 1.2-.7.9-2zm19.3-5.4c0-.2-.7-.9-1.5-1.6-1.2-1-1.5-1-1.5.4 0 .9.7 1.6 1.5 1.6s1.5-.2 1.5-.4zm-45-41.4c0-1-.4-2.2-.9-2.7-1.6-1.9-6.2-14.8-6-16.9.3-2.7-1-6.6-2.2-6.6-.5 0-.9-1.2-1-2.7 0-1.6-.5-3.7-1-4.8-1.5-3.3-.4 8.2 1.5 15.5.9 3.5 3 8.9 4.6 11.9 1.7 3 3 6.1 3 6.8 0 .7.5 1.3 1 1.3.6 0 1-.8 1-1.8zm-3-20.4c0-1.3-2.3-.5-2.8 1-.2.7.2 1 1.2.6.9-.3 1.6-1.1 1.6-1.6zm42 .2c0-.5-.7-1-1.5-1s-1.5.5-1.5 1c0 .6.7 1 1.5 1s1.5-.4 1.5-1zm23.1-18.2c-2.1-2.5-5.7-4.6-4.6-2.6 2.9 4.8 4.8 6.9 5.5 5.8.4-.7 0-2.1-.9-3.2zm4.3-12.9c-.3-.6 0-1.5.7-2 1-.6.5-.8-1.6-.8-1.6 0-2.4.3-1.7.6.6.2 1.2 1.1 1.2 1.9 0 .8.5 1.4 1.1 1.4.5 0 .7-.5.3-1.1zm29.4-.7c.2-.7-.3-1.2-1.2-1.2-.9 0-1.6.7-1.6 1.6 0 1.7 2.2 1.4 2.8-.4zM220 599c0-1.2-2.8-2.5-3.6-1.7-.9.9.6 2.7 2.2 2.7.8 0 1.4-.5 1.4-1zM327.3 636.5c-.3-.9-.3-1.8-.1-2.1.9-.9 3.8.8 3.8 2.2 0 1.9-2.9 1.8-3.7-.1zM510.9 633.7c-7.9-4.8-16.1-10.4-18.6-12.7-1.2-1.1-2.7-2-3.3-2-.6 0-1.8-.7-2.6-1.5-2.3-2.3.5-1.9 3.6.5 1.4 1.1 3 2 3.7 2 .7 0 1.7.8 2.2 1.9.6 1 2.2 2.2 3.6 2.5 1.6.4 2.3 1.1 1.9 1.8-.5.7-.2.9.8.6.8-.4 2.1-.2 2.9.3 1.2.7 1.2.9-.1.9-1.2.1-1.1.3.3 1.1.9.6 2.5 1.2 3.5 1.4.9.2 4.6 1.7 8.2 3.4 6.3 2.9 6.4 3 2.9 3.1-2.3 0-5.4-1.1-9-3.3z"/><path d="M278.4 610.5c2-1.4 4.1-2.5 4.6-2.5 1.8 0 0 2.5-2.7 3.8-4.6 2.1-5.8 1.3-1.9-1.3zM253 609.1c0-1.2 4-5.1 5.2-5.1 1.7 0 .7 2-2.2 4-1.6 1.2-3 1.7-3 1.1zM267.3 608.5c-1.3-.6-2.1-1.4-1.8-1.7.3-.3-.1-1.7-.9-3.2-1.4-2.8-1.1-6.6.5-6.6.5 0 .9.7.9 1.5s.5 1.5 1 1.5c.6 0 1 1.8 1 4 0 6 1.6 4.8 2.3-1.6.7-6.6 1.2-7.4 3.1-4.9 1.1 1.6 1.1 2.1 0 3.3-2.3 2.3-1.2 5.1 1.2 3.1 1.8-1.5 3.4-.3 3.4 2.7 0 2.8-2.4 3.2-3.9.7-1-1.7-1.2-1.7-2.8.3-1.5 1.8-2.1 1.9-4 .9zM273 590c-3.5-3.5-4-4.6-3.8-7.7.2-2.2-.2-3.8-.9-4-.9-.3-1.3.6-1.3 2.9-.1 2.8-.2 3-1.1 1.5-.8-1.4-1.4-1.6-2.5-.6-1.1.9-1.7.9-2.9-.1-2.1-1.7-1.9-3 .5-3 3.2 0 2.3-2.5-1.5-4.3-4.3-2.1-4.5-4.4-.4-6.1 2.6-1.1 2.8-1.4 1.5-2.6-1.3-1-1.6-1-1.6.3 0 .8-1.3 1.7-3.1 2.1-4.6.9-4.9.8-4.2-1.1.4-1.2-.1-1-1.7.7-1.2 1.4-2.7 2.4-3.2 2.2-.6-.2-1.7.7-2.6 1.9-1.4 2-1.6 2-2.4.4-.7-1.1-.6-2.1.1-2.8 2-2 1.2-5.3-1.4-6.5-1.4-.7-3.1-1.2-3.7-1.2-.6 0-1.8-.8-2.7-1.8-.9-.9-2.8-2.3-4.3-3-1.6-.6-2.8-1.6-2.8-2.1s-.9-.7-2-.4c-1.6.4-2 0-2-1.9 0-2.7-2.4-5.4-5.4-5.9-1.1-.2-2.1-.9-2.3-1.6-.6-1.6 6.8-.5 8.2 1.2.6.6 1.6 1 2.3.8.7-.3 1.2.4 1.2 1.5s.6 2.3 1.3 2.5c.8.4.7.6-.3.6-.8.1-.2.8 1.4 1.6 3.4 1.8 3.8 1.8 3.4.3-.3-1.7 1.1-5.8 2-5.8 1.5.1 4.4 2.9 3.8 3.8-.3.5.3 1.7 1.4 2.7 1.1 1 2 2.8 2 3.9 0 1.5.3 1.7.9.8.9-1.6 2.4-.1 3.5 3.6.9 2.8 4 2.9 6 0 2.3-3.2 2-4.1-.9-3.4-2.3.6-2.5.4-1.9-1.9.4-1.5.2-2.5-.5-2.5-.6 0-1.1 1.1-1.1 2.5s-.4 2.5-1 2.5c-.5 0-1-1.2-1-2.6 0-2.1-.4-2.4-2-1.9-1.5.5-2 .2-2-1.4 0-1.1.5-2.3 1-2.6.6-.3 1-.1 1 .4 0 .6.6 1.1 1.3 1.1 2.1 0 1.6-2.9-.6-3.6-1.6-.5-1.7-.8-.6-1.5 1.2-.8 1.2-1.1-.1-1.9-.8-.5-2.6-1-4-1.1-1.7-.1-1.9-.3-.7-.6.9-.2 1.7-1.1 1.7-2 0-1.2-.7-1.4-3-.9-2.2.4-3 .2-3-.9 0-2 4.6-3 6.5-1.5 1.2 1 1.5.9 1.5-.9 0-1.7-.6-2.1-2.9-2.1-1.7 0-3.2-.4-3.6-1-.3-.5-1.3-.6-2.1-.3-1.1.4-1.5 0-1.2-1.3.2-1.4-.4-2-2.4-2.2-3.6-.4-3.5 1.1.2 3.8 3.3 2.3 3.9 4 1.5 4-.8 0-1.5-.6-1.5-1.2 0-1.3-4.9-4.7-8.5-5.9-1.5-.5-1.3-.7 1.3-.8 1.7-.1 3.2-.5 3.2-1.1 0-.5 1.1-1 2.5-1 1.5 0 2.5-.6 2.5-1.4 0-2.6-2.3-3-3.8-.8-2 3-3.2 2.7-3.2-.8 0-2.3-.5-3-1.9-3-1 0-2.4-.7-3.1-1.5-1.3-1.5-.4-3.9 1.1-2.9 2 1.2 6.9 2.3 6.4 1.3-.4-.5-1.3-.9-2.1-.9s-2.4-1-3.6-2.2c-1.2-1.2-2.3-1.7-2.5-1.2-.4 1.3-6.3.6-6.3-.7 0-.5.8-.9 1.9-.9 1 0 2.4-.7 3.1-1.5 1-1.2.5-1.7-2.9-3.2-2.3-1-4.1-2.1-4.1-2.4 0-1.1 5-1.7 5.6-.8.7 1.2 2.4 1.2 2.4 0 0-.5-1-1.1-2.2-1.4-3.3-.9-3.4-5.3-.2-7.4 1.9-1.2 2.7-1.3 3.9-.3 1.3 1.1 1.4.8.8-2.1-.3-1.9-1-3.5-1.5-3.7-1.4-.6-.9-5.2.6-5.2 2.4 0 2.3-4.2-.2-6.7s-3.2-5.3-.7-3.3c1.3 1 1.5.9 1.5-.8 0-2.5-1.9-3.9-3-2.2-1.1 1.7-2.3-.5-1.5-2.9.4-1.4-.1-2-1.9-2.5-1.5-.4-2.6-1.4-2.8-2.9-.2-1.3-.9-2.1-1.8-2-2.1.4-4.8-6.3-5.5-13-.1-1.8-1.2-5-2.4-7.2-1.1-2.2-2.1-5.2-2.1-6.8 0-1.6-1.2-6.3-2.6-10.5-2.8-8.4-3.2-10.1-4.2-18.2-.7-5.1-.8-5.3-2-3.2-1.1 1.9-1 3.6.4 10.2 1 4.4 1.4 8.3 1.1 8.7-.4.4-2.2-.8-4-2.5-1.8-1.8-4.3-3.2-5.6-3.2-2.7 0-6.1-1.7-6.1-3 0-.6.6-1 1.4-1 .8 0 3.2-2.1 5.3-4.6l3.9-4.5-.2-10.2c-.1-7.9-.6-11.3-2.3-15-2.5-5.7-2.6-7.4-.7-7.9 1.1-.2 1.1-1.1 0-5.3-.7-2.7-1.3-6.6-1.4-8.5 0-1.9-.6-5.7-1.3-8.4-1.4-5.4-2.5-5-4.6 1.5-2.2 6.9-1.6 13.9 1.8 20.4 1.7 3.3 3.4 8.1 3.7 10.8l.7 4.7h-3.7c-4.4 0-4.6-1.4-.6-3.5 3.7-1.9 3.1-3.5-1.3-3.6-2.7 0-2.9-.2-1.2-.9 1.9-.8 1.9-.9.1-.9-1.1-.1-1.7-.4-1.3-.7.3-.3-.6-1.6-2.1-2.9-5.3-4.4-10.2-5.9-10.2-3.1 0 1.7-2.4 2.8-4.4 2-1.3-.5-1.3-.1-.3 2.6.7 1.7 2 3.3 3.2 3.5 1.1.2 3.8.7 6 1.2l4 .7-3.4.4c-4.9.5-9.2-.5-12.1-2.8-1.5-1.2-1.8-1.8-.8-1.4 1.2.4 1.8.1 1.8-1 0-.9-.7-1.6-1.5-1.6-.9 0-1.8-.6-2.1-1.4-.3-.8-1.2-1.2-2-.9-1.6.6-1.9-1.2-.4-2.2.6-.3 1-2.6 1-5.1 0-3.2.4-4.4 1.5-4.4.8 0 1.5-.6 1.5-1.4 0-.8.5-1.6 1.1-1.8 1.3-.4 4.9-10.3 4.9-13.4 0-1.8 1-2.6 5.1-3.9 4.3-1.5 5.3-1.5 6-.4.9 1.5 1.3 3.5.9 5.9-.1.9.7.5 2-1 1.5-1.8 2-3.4 1.8-5.7-.4-3.1-.3-3.2 1.4-1.6 1.8 1.6 1.9 1.4 1.4-5.8-.7-10.2-1.5-13.5-4-15.9-16.2-15.4-17.7-16.4-28.5-18.5-3.2-.7-3.3-.9-2.7-4.3.3-2 .1-4.1-.4-4.7-1.2-1.4-2.9-12.5-1.9-12.5.4 0 1 .6 1.2 1.3.3.6.6-.2.6-2 .1-2.5-.2-3.1-1.4-2.7-1.9.8-2.1-3.2-.2-3.9.9-.4.8-.8-.3-1.6-1.2-.8-1.5-3.6-1.3-15.8.2-16.5.3-17.4 2.2-19.7.7-.9 1.1-2.5.8-3.6-.3-1.1-.1-2.3.4-2.6.6-.3.5-1.1-.2-2-.7-.8-1.1-4.3-.9-8.6.1-4 .2-8.7.1-10.5 0-1.8.4-4.4.9-5.8.6-1.5.7-3.1.4-3.7-.3-.5-.8-3.7-1-7.1-.3-3.4-1-6.5-1.7-6.9-.7-.4-1.2-1.1-1.2-1.5 0-1.3-4.8-6.3-5.9-6.3-1.6 0-3.8-3.9-3-5.2.4-.7.3-.8-.4-.4-1.9 1.1-1.4-.5.6-2 1.6-1.3 1.6-1.3 0-1.4-1.3 0-1.8-.8-1.8-2.7 0-2.2.2-2.5 1-1.3.6.9 1 1 1 .3 0-.6-.4-1.4-.8-1.7-.5-.3-.5-2.9-.1-5.8.3-2.9.6-8.8.5-13.1-.2-4.3.1-8 .6-8.3.4-.3.8 1.1.8 3s.5 3.8 1.2 4.2c1.8 1.1 5.8 1.3 5.8.3 0-.5-.4-.9-1-.9-.5 0-1-.9-1-2s-.6-2-1.3-2c-1.5 0-4-6.2-2.8-6.9.4-.4 1-1.3 1.3-2.1.8-2 3.8 4.8 3.1 6.9-.4 1.2-.3 1.3.4.3.5-.7 1.7-1 2.5-.7 1.6.6 4.8-1.8 4.8-3.6 0-.6-.7-.3-1.6.6-2.2 2.2-3.9 1.4-3.9-2-.1-1.6-.5-3-1.1-3.2-1.4-.5-.4-8 1.2-9.4 1.2-.9 1.4-.5 1.4 2.4 0 2 .7 4.2 1.5 5 .8.8 1.2 1.7.9 2-.3.2.4.7 1.5 1 2.5.6 3.3-1.5 2.5-5.9-.8-4.5.5-13.7 1.6-10.9.7 1.8.8 1.8 1.5-.7.4-1.6 1.2-2.8 1.7-2.8 2 0 7.8 8.7 7.8 11.9.1 1.4.2 1.4 1.1-.2.8-1.3.7-2.2-.1-3.2-.6-.8-1-2.2-.8-3.2.3-1.4.9-1 2.9 1.9 2.3 3.5 2.7 3.6 4.2 2.1 1.4-1.4 1.8-1.4 3.3-.2 1.6 1.3 1.7 1.2 1-1.1-1.6-6.1-1.7-7.9-.3-12l1.4-4.2.5 4.7c.5 3.6 1.2 5.3 3.4 7 1.5 1.2 2.5 2.6 2.1 3.1-.7 1.2 1.4 3.8 3.3 4.2.9.1.5-.7-1-1.9-2.4-2.2-2.4-2.2-.2-1.6 1.2.3 2.2.4 2.2.2 0-.1-1.6-2.9-3.5-6.1-4.1-6.7-4.3-9.8-1.3-15.1 4.2-7.3 9.7-11.3 9.2-6.7-.1 1.4-.7 3-1.2 3.7-.5.7-.6 2.1-.1 3.2.4 1.1.8 1.4.8.8.2-2.3.3-2.8 1.4-4.8.6-1.1 1.2-3.8 1.3-6 .3-5.5.3-5.2 1.7-6.7.6-.7 2.6-4 4.2-7.4 2.1-4.3 3.9-6.5 6-7.4 1.7-.7 3.4-1.8 3.8-2.4.6-.8 1-.7 1.4.2.2.6 1.1 1.2 1.9 1.2.8 0 1.4.5 1.4 1 0 .6-.5 1-1.1 1-.5 0-.8.4-.5.9.4.5.2 1.1-.3 1.3-.6.1-1.3 2.3-1.6 4.8l-.6 4.5 2.1-4.4c1.2-2.4 3-4.6 4.1-4.8 2.4-.7 2.5-3.2.2-4.9-1.7-1.3-1.7-1.3 0-1.4.9 0 1.7-.7 1.7-1.5s.9-1.5 1.9-1.5c1.1 0 2.3-.4 2.6-1 .3-.5 1.3-1 2.1-1 1.2 0 1.2.4.2 2.2-.7 1.3-2.1 2.9-3 3.6-1 .7-1.8 2.6-1.8 4.1 0 1.5-.8 5-1.7 7.7-1.7 4.8-1.7 4.8-2.3 1.9l-.6-3-1.8 3.8c-2.1 4.2-1.5 5.7 1.4 3.9 1.7-1 2-1 2 .5 0 1.1.3 1.4.8.7.4-.6 1.4-1.3 2.3-1.6.8-.3 2.6-2.9 3.9-5.7 2.5-5.1 4.8-7.1 3.4-2.9-1.7 5.4-3.6 8.8-5.4 9.8-1.2.6-2 2.1-2 3.6 0 3.3-1.7 6.4-3.4 6.4-.8 0-1.9 1.4-2.5 3.1-1.6 4.6-1.4 4.8 1.1.9l2.2-3.5.7 3 .7 3 .1-2.7c.1-3 5.1-11.2 5.1-8.4 0 1 .5 1.4 1 1.1.6-.4.8-1 .5-1.5-.9-1.4 1.8-6.1 3.2-5.6.7.3 1.3.1 1.3-.4 0-.6-.4-1-1-1-2.2 0-.8-4 2-6 1.7-1.2 2.8-2.5 2.5-3-.3-.5.4-1.1 1.5-1.5 1.1-.3 2-1.1 2-1.6 0-.6 1.3-1.5 2.9-2 1.6-.6 3.2-1.7 3.5-2.5.3-.8 1.3-1.4 2.2-1.4 1.5 0 1.6.2.2 1.8-2 2.3-3 5.2-1.8 5.2.6 0 1-.5 1-1.1 0-.8.5-.8 1.5.1 1.2 1 1.5 1 1.5-.4 0-.9.6-1.6 1.4-1.6.7 0 1.9-.7 2.6-1.5.7-.8 1.9-1.5 2.7-1.5.9 0 0 1.7-2.4 4.5-2.1 2.5-4.3 4.3-5 4.1-.8-.4-1.3.3-1.3 1.9 0 1.8-.5 2.5-2 2.5-1.1 0-2 .5-2 1.1 0 .5-.4.8-1 .4-1.1-.6-2.6.9-7.6 7.7-4.2 5.8-4.4 7.1-.4 3.3 1.6-1.6 3-3.4 3-4 0-1.4 4.8-6 5.5-5.3.3.2-.4 1.3-1.5 2.3-2 1.8-2.7 4.5-1.1 4.5.5 0 1.4-.7 2.1-1.5.7-.8 1.6-1.2 2.1-.9.5.3.6-.1.3-.9s1.2-3.2 3.5-5.5 4.1-4.7 4.1-5.5c0-.7 1.9-3 4.1-5 3.3-2.8 4.6-3.4 6.3-2.7 1.3.5 2 1.5 1.8 2.6-.2 1.8-.2 1.8.8.2.6-1 1.9-1.8 2.8-1.8.9 0-.4-1-3-2.3-3.1-1.4-4.8-2.8-4.8-3.9 0-2 2.5-2.4 3.6-.6.4.6.3.8-.4.4-.6-.3-1.3-.2-1.7.4-.3.5.3 1 1.4 1 1.2 0 2.1-.5 2.1-1.1 0-.6.8-1.8 1.7-2.7 1.6-1.6 1.6-1.6 1 .1-.6 1.5-.3 1.7 1.6 1.1 1.2-.3 2.7-1 3.3-1.5 1.4-1.1 13.8-1.9 12.7-.8-.4.4-1.9 1-3.3 1.2-1.4.3-3.8 1.3-5.5 2.2l-3 1.6 3.4-.5c2.4-.3 3.1-.2 2.3.6-.7.7-.8 1.7-.1 2.9.7 1.5.6 1.7-.6 1.3-.8-.3-1.2-1-.9-1.5.3-.5-1.1-.8-3-.7-2 .2-3.6.6-3.6.9 0 .7 5.3 1.8 10.2 2.2 3.9.3 4.4 1.4.9 2.2-2.6.6-3 1.1-2.7 3.1.3 1.3 0 2.6-.5 2.9-.5.4-.9 0-.9-.8 0-2.1-7.5-4.4-8.6-2.6-.3.5.5.9 1.7.9 1.3 0 3.5 1.1 4.9 2.5 2.4 2.3 2.7 2.4 4.8.9 1.2-.8 2.2-2.2 2.2-3.1 0-1.3.8-1.4 4.6-.8 3.5.5 6.1.1 11.1-1.6 5.3-1.9 6.8-2.1 8.4-1.1 1.1.7 2.4 1 2.9.7.6-.4 1-.2 1 .4 0 1.4-5.3 4.1-7.9 4.1-1.1 0-2.2.4-2.5.9-.3.5-2.7 1.2-5.3 1.6-2.9.4-6.9 2-10 4.1-2.9 1.9-6 3.4-6.9 3.4-1.2 0-1.4.3-.6 1.3.8 1 .6 1.6-.9 2.5-2 1.3-2.6 3.2-.9 3.2.5 0 2.8-1.8 5.2-4 2.3-2.2 4.8-3.8 5.5-3.6.7.3 1.3-.1 1.3-.8 0-1.1 8.4-4.6 11.2-4.6.6 0 .3 1.2-.7 2.6-2.4 3.6-1.2 4 2.8 1 2.1-1.7 5.8-3.1 9.6-3.7 3.3-.6 6.1-1.5 6.1-2 0-.4.7-.6 1.5-.3.8.4 1.5.2 1.5-.4 0-.5 1-1 2.3-1 1.2 0 4-.3 6.2-.6 2.2-.4 4.7-.2 5.5.3 1.3.9 1.2 1.3-.7 2.6-1.3.9-2.3 2.2-2.2 2.8 0 .9.2.9.6 0 1-2.6 16.3-.8 16.3 1.8 0 .5-1 .9-2.2.9-1.5 0-1.9.3-1.1 1.1 1.3 1.3 6.3.1 6.3-1.6 0-1.9-4-4.2-9-5-4.1-.7-4.3-.9-2.1-1.6 1.5-.6 3.6-.5 5.8.3 3.1 1.1 3.6 1.1 4.9-.6.8-1.1 1.7-1.6 2.1-1.3.3.4-.2 1.3-1.2 2.1-1.9 1.3-1.7 1.6 2.3 5.5 2.7 2.6 5.7 4.5 8.7 5.2 5 1.3 5.3 3.1.3 2-1.8-.4-10.5-.7-19.4-.7-15.4.1-16.2.2-19.6 2.6-2 1.3-3.4 2.8-3.1 3.3.2.4 1.1.3 1.9-.4.8-.6 1.7-.9 2-.6.3.3-1.3 1.6-3.5 2.9-3.4 1.9-5.2 3.8-3.7 3.8 1.2 0 7.6-3.1 8.1-4 .4-.6 1.1-.8 1.6-.4.5.3.7 1 .4 1.5-.3.5.1.6.9.3.9-.3 1.4-.9 1.2-1.3-.2-.3 3.3-.4 7.7-.3 8.2.4 8.2.4 5.2 2-1.6.9-4.6 2.1-6.5 2.8-4.8 1.7-5.3 3.7-.7 2.9 3.4-.7 5.8.7 3.7 2-2 1.2-1 2.6 1.1 1.5 1.1-.6 3-1 4.2-.8 1.2.2 2.7-.3 3.3-1.2 1-1.2 2.3-1.3 9.5-.1 4.6.7 10.4 1.5 12.9 1.8 2.5.3 5.2 1.3 6 2.3 1.5 1.8 6 3.7 6 2.5 0-.3-1.6-2.1-3.5-4.1-1.9-1.9-3.5-3.8-3.5-4.3 0-.4 3.7-.2 8.1.6 6.2 1.1 9.4 1.1 13.1.4 6-1.3 8.1-1.4 7.4-.2-.4.5.3.7 1.5.4 1.6-.5 1.8-.8.7-1.5-.9-.7-.7-.8.8-.4 2.3.7 5.9-1.5 5.9-3.6 0-.7 1.8-2.1 4-3.2 2.2-1 4.3-2.3 4.6-2.8.3-.5.9-.8 1.2-.6.3.1 1.8-1.3 3.3-3.2 1.5-1.9 2.4-2.7 2.1-1.7-.4.9-.2 1.7.4 1.7.6 0 1.3-.9 1.6-2 .3-1.1 1.3-2 2.3-2 1 0 2.7-.3 3.7-.7 1.7-.7 1.7-.6.1 1.1-2.2 2.1-2.3 2.7-.3 2 .8-.4 1.5-.2 1.5.4 0 1.3-8.4 6.2-11.8 6.8-3.1.6-2.8.3-3.7 3.2-.6 2.1-.4 2.3 1.4 1.7 1.2-.3 2.1-.2 2.1.3 0 1.6-2.3 2-4.2.8-1.3-.8-2.2-.5-4 1.1-1.3 1.2-3.6 2.5-5.3 2.9-4.8 1.1-5.9 2.4-3.5 4.1 1.9 1.3 2.7 1.3 7-.1 2.7-.9 5.6-1.6 6.4-1.6.9 0 1.6-.5 1.6-1.1 0-.6.7-.8 1.6-.5.8.3 1.3.2 1-.3-.3-.4.6-1.4 2-2.1 1.6-.9 2-1.6 1.3-2.1-.8-.4-.4-1.1 1-1.9 1.6-.8 2-1.7 1.6-3.1-.8-2.5 1.9-3.6 4.2-1.8 1.4 1.2 1.5 1.1.9-.7-.5-1.5-.2-2.4 1-2.8 1.1-.4 1.4-1.3 1.1-2.7-.6-2.4 1.7-3.7 3.7-2 2.2 1.8 3.1-.7 1.1-2.9-1.5-1.7-1.5-1.9.7-3.4 3.4-2.4.6-1.9-5.6.9-6.9 3.2-7.5 3.1-3.7-.2 1.7-1.5 3.1-3.3 3.1-4 0-.6.9-1.8 2-2.6 1.7-1.2 1.8-1.6.6-2-.8-.3-2 .1-2.6.9-.7.8-1.6 1.4-2.1 1.4-1.6 0-.9-2.5 1.6-5.2 2.3-2.7 4.3-3.8 3-1.8-.3.6.4 1 1.5 1 1.5 0 2 .5 1.7 1.3-.4 1 .2 1.3 1.9.9 1.3-.2 2.4-.8 2.4-1.3s.7-.9 1.5-.9 1.5-.5 1.5-1c0-.6 1.3-1.8 2.9-2.8 1.5-.9 2.8-2.1 2.8-2.7 0-.5 1.5-1.9 3.3-2.9l3.2-1.9-2.6 4.1c-1.4 2.3-2.6 4.5-2.5 4.9.3 1.9-.2 3.3-1.1 3.3-.5 0-.7-.8-.4-1.7.5-1.7.5-1.7-.6 0-.6.9-1.7 1.7-2.4 1.7-.8 0-1.6.7-2 1.5-.3.8-1.6 1.5-2.8 1.5-1.3 0-4.1 1.2-6.3 2.6-4.5 2.8-2.1 2.5 5.4-.7 4.5-2 6.4-1.8 4.3.3-1.8 1.8-1.5 4.8.5 4.8.9 0 1.3.3.9.7-.4.4-2.4.7-4.4.5l-3.7-.1 3.5 1.5c1.9.9 4.3 2.3 5.2 3.1 1 .9 2.5 1.2 3.9.8 2.1-.7 2.1-.7-.7-3.1-2.8-2.3-2.8-2.4-.8-3 1.1-.3 2.5-1.8 3.1-3.2.9-2.4 1-2.2 1 2.3 0 2.8.5 6.4 1.3 8 .7 1.7 1.2 3.8 1.1 4.8-.2 1.5.2 1.7 1.8 1.2 1.5-.5 2.1-.2 2.1.9 0 .9.5 1.6 1 1.6.6 0 1-1.2 1-2.6 0-1.4.4-2.3 1-1.9.5.3 1 .2 1-.4 0-.5 1-1.3 2.1-1.6 1.7-.6 1.9-.9.8-1.6-2.2-1.4 1-3 4.8-2.4 1.7.3 3.4.1 3.8-.5.3-.5 0-1-.7-1s.2-.8 2-1.7c2.8-1.4 3.6-1.4 6-.2 1.5.7 3 1.5 3.4 1.7.5.2.8-.3.8-1.1 0-1.1 1.3-1.4 5.3-1.3 4.6 0 5.3.3 5 1.7-.3 1-1.6 2.7-2.9 4-1.3 1.2-2.4 2.9-2.4 3.6 0 .9 1.3.2 3.3-1.6 4.5-4.3 5.4-3.8 1.6.9-1.8 2.2-4 4-4.9 4-.9 0-2.5 1-3.6 2.1l-1.9 2.1 4-1.7c2.2-1 4.9-1.9 6-2 1.1-.2 2.2-.4 2.5-.4.3-.1-.1-.5-.9-1-1.2-.8-.8-1.5 1.9-3.8 4.3-3.6 7-4.7 7-2.8 0 1.6-8.8 10.6-14.7 15-2.2 1.7-4.6 4.4-5.3 6-.8 1.7-1.6 3.5-1.8 4-1.3 2.5 3-2.2 5.4-5.9 2.5-3.9 8.4-7.8 8.4-5.5 0 .5-.7.9-1.5.9s-1.9.9-2.5 2c-.6 1.1-.8 2-.4 2s0 .8-.9 1.8c-1.1 1.2-1.4 2.6-1 4.2.6 2.2.4 2.3-.9 1.3-1.2-1.1-1.8-1-3.2.5-1.8 2.1-1 3.8 1.1 2 2-1.6 2.7-.3.8 1.6-1.9 1.9-3.5 2.1-3.5.4 0-.6-.8-.3-2 .7-2.4 2.2-1.9 3.3 1.4 3 2.9-.4 2.6 2.1-.4 3-1.8.6-3.5 4.5-1.9 4.5.5 0 .9-.4.9-1 0-.5.9-1 2-1 1.4 0 2 .7 2.1 2.3.1 1.2.5.4.8-1.8l.6-4 6.3-.1c6.1-.1 8.1.9 4.2 2.1-3 .9-2.4 2.6.8 2.3 1.5-.1 3.4.2 4.2.7 1.4.9 3.6 1.2 10.8 1.6 1.2.1 2.2.8 2.2 1.6s.5 1.1 1 .8c.6-.3 1 .3 1 1.4 0 1.3-.7 2.1-1.7 2.1-.9 0-2.7 1-4 2.1-2 2-2.3 2-2.9.5-.3-.9-1.2-1.6-1.9-1.6s-1.8-.7-2.5-1.5c-1.7-2-3-1.9-3 .3 0 2.3 1.9 4.2 4.2 4.2 2.3 0 2.3.4-.4 3.5-1.2 1.4-3 2.5-4 2.5-2.4 0-5.8 1.8-5.8 3 0 1.5 2 1.2 6.7-1.1 2.3-1.1 4.9-1.9 5.5-1.6.8.3.3.9-1.2 1.6-1.4.7-3.6 1.8-5 2.6s-3.2 1.5-4 1.5c-2.1 0-8 3.7-8 5 0 .7 2.1.9 6.3.4 3.4-.3 8.7-.8 11.7-1l5.5-.3-5 1.4c-2.7.7-6 1.4-7.3 1.4-1.9.1-2.2.5-1.6 2.4.9 3.2 2.7 5.9 1.9 3-.5-1.9 0-2.5 3.1-3.8 2-.8 5.3-1.5 7.3-1.4 3.2 0 3.3.1 1.4.9-3.5 1.4-2.7 2.3 1.2 1.7 3.3-.5 4.9.6 2.3 1.6-.7.2-1 .7-.7 1.1 1.1 1.2 7.1-1.6 6.5-3-.3-.8-.1-1.4.3-1.4 1.3 0 2.1 2.7 1.4 4.6-.4 1 .1 1.7 1.6 2.1 2 .5 2.7 2 3.4 7 .2 1.2.7 2.6 1.1 3 .9.8.2-7.4-1-11.4-.5-1.8-.2-2.3 1.3-2.3 2.3 0 5.8 7.6 4.7 10.4-.4.9-.1 1.6.6 1.6.9 0 1-1.6.5-6.2-.7-5.6-.6-6.1.8-4.9.9.7 2.2 1.1 2.9.8.8-.3-.1-1.1-1.9-1.8-3.9-1.6-4.4-3.2-.7-2.3 1.7.4 2.9.2 3.5-.7.7-1.2.9-1.2 1 .1.6 6 .4 7.8-1.3 10.2-2.3 3.3-2.3 4.1.1 3.3 1.1-.3 2.3 0 2.7.7.4.6.2 1.4-.4 1.6-.7.2-1.2 1.1-1.2 2.1 0 .9-.9 2.3-2 3.1-1.1.8-2 1.8-2 2.2 0 .4.9.8 2 .8s2-.4 2-1c0-.5.7-1 1.5-1 2.3 0 .7 9.8-2.2 13-1.4 1.5-2.3 1.9-2.3 1.1 0-1-.3-1.1-1.4-.2-1 .9-1.2 2-.6 4.1.7 2.3.5 3.2-.7 3.8-1.1.7-1.3 1.6-.8 3.3.8 2.3.8 2.3 1.5.4.8-1.9.8-1.9 1.7.4.8 1.9.5 2.9-1 4.4-1.6 1.6-1.7 2.1-.6 2.8.9.6 1 .9.2.9-1.5 0-2.2 14.2-.8 15.2.6.4.2.8-.7.8-1.1 0-1.8.8-1.8 2 0 1.1-.4 2-1 2-.5 0-1 1.2-1 2.8 0 1.5-.4 3.3-.8 4-1.3 2-17.1 9.2-20.3 9.2-1.6 0-2.9.5-2.9 1 0 .6-.9 1-2 1s-2 .5-2 1c0 .6-.9 1-2 1-1.3 0-2 .7-2 1.8s-1.3 2.3-3.5 3.1c-2.9 1-3.5 1.7-3.5 4.1 0 1.6-.4 3.2-1 3.5-.5.3-1 1.5-1 2.5s-.4 2-.8 2.2c-1.7.7-7.2 10.1-7.2 12.3 0 1.4-.8 4.7-1.9 7.4-1 2.8-1.6 5.2-1.4 5.5.3.3 0 2.9-.7 5.8-.6 2.9-1.6 7.6-2.2 10.3-.6 2.8-1.9 5.6-3 6.4-1.5 1-1.8 2.1-1.4 4.5.3 1.7.1 10.1-.4 18.5-.7 10.6-.7 15.8 0 16.5 1.5 1.5 1.2 4.6-.3 4.6-1.1 0-1.2 1.1-.5 5.7.5 3.1 1.4 6.3 2 7 .7.9.7 1.3 0 1.3-.6 0-.9.7-.5 1.6.3.9 0 1.9-.6 2.3-.8.5-1 1.8-.5 3.5l.7 2.8 2.3-2.8c1.3-1.5 2.4-3.3 2.4-4.1 0-1.8 4.7-3.5 7.2-2.7 1.7.5 1.9 1.2 1.5 4.1-.4 2-1.7 4.7-2.9 6.1l-2.3 2.5 2.3-1.2c2.2-1.2 2.3-1.1 1.3.8-1.4 2.5-8 4.6-11.5 3.7-2.4-.6-2.6-1-2.1-3.9.5-2.5.2-3.7-1.3-5-1.8-1.7-1.9-2.1-.6-6.4 1.3-4.4 1-11.3-.5-11.3-.4 0-1.2 3.9-1.9 8.8-2.2 17-2.3 18-.6 18.6.9.3 2 .4 2.5 0 .5-.3.9 0 .9.6 0 .7-.9 1.4-2 1.7-1 .3-2.2 1.4-2.5 2.4-.4 1.1-1.1 1.7-1.6 1.4-1-.7-1-.9-1.3 7-.2 6.1 1.5 12.5 3.3 12.5.6 0 1.1.5 1.1 1 0 .6-.7 1-1.6 1-.8 0-1.2.5-.9 1 1.1 1.7-.3 1.1-2.3-1-1.9-2-1.9-2-3.8 2-2.8 5.9-4.2 5.1-3.3-1.8.3-3.2 1.1-6.7 1.7-7.8.5-1 1.5-5.5 2.2-9.9 1.8-11.7 7.7-41.1 9.5-47.5 1-3.3 1.9-11 2.2-19.1.5-12.5.3-14.8-2.6-29.4-2.4-11.8-3.4-20.1-3.9-32.4l-.8-16.6-.8 11.3c-.5 6.2-1 11.1-1.2 10.9-.3-.2-.7-4.4-.9-9.3-.4-6.9-.9-9.5-2.5-11.6-1.2-1.6-1.9-3.2-1.6-3.7.3-.5-.4-1.1-1.5-1.4-1.4-.4-2-1.1-1.6-2 .3-.8-.8-2.8-2.6-4.5-3-2.9-3.6-3.1-8.7-2.6-6.2.6-6.2.6-14.5.3-3.3-.1-7.7.3-9.8 1-2.1.7-8.1 1.3-13.3 1.4-8.5 0-9.6-.2-11.9-2.3-1.4-1.3-2.5-3.1-2.5-4.1 0-.9-.6-1.9-1.2-2.2-2.3-.8 5.5-7.8 9.8-8.7 5.3-1.3 10.4-1.3 8.5-.1-1.1.7-.6 1.1 2 1.5 5.2.8 15.9.2 15.9-.9 0-1.4 4.9-3.5 8.1-3.5 3.3 0 4.2-1 2.8-3-.8-1.2-1.2-1.2-1.6-.2-.2.6-.9 1.2-1.4 1.2-.6 0-.8-.4-.4-1 .3-.5-.6-1.7-2-2.6-3.6-2.3-3.1-3.1 2.2-3.3 2.5 0 5.2-.6 5.9-1.2.7-.6 1.7-.8 2.3-.5.5.3 1.1 0 1.4-.7.5-1.4-.9-5.7-2-5.8-6.4-.7-13.4-3-14-4.6-.3-.7-1.5-1.3-2.8-1.3-2.7 0-8.5-2.8-8.5-4.1 0-.6-1.4-1.5-3-2.1-1.7-.5-3.5-1.9-4.1-2.9-.5-1-2-1.9-3.3-1.9-1.4 0-3.7-1.6-6-4-2-2.2-4.1-4-4.6-4s-1.2-1-1.6-2.2c-1-3.5-3.5-5.8-6.1-5.8-1.2 0-2.3-.5-2.3-1.1 0-.6-.7-.8-1.6-.5-.8.3-1.3.2-1-.3.8-1.2-3.2-2.1-6.5-1.4-2.1.4-3 .1-3.5-1.1-.3-.9-1.1-1.6-1.6-1.6s-1.8-1-2.9-2.3c-1-1.2-1.8-1.7-1.9-1.1 0 1-9.6-3.3-12.4-5.5-.6-.5-3.2-1.2-5.8-1.5-2.7-.4-4.8-1.1-4.8-1.6s-.6-.7-1.2-.5c-.7.3-2.5-.6-4-2s-3.8-2.5-5.2-2.5c-1.4 0-2.8-.4-3.1-1-.3-.5-1.6-1-2.8-1-1.2 0-3.5-.7-5.1-1.5-1.5-.8-3.7-1.5-4.7-1.5-1.1 0-1.9-.5-1.9-1.1 0-.7-1.1-.9-2.6-.6-2.3.4-2.5.2-2-2.2.3-1.4.3-2 0-1.3-.8 1.7-2.4 1.5-2.4-.2 0-1.8-3.1-2.9-5.4-2-.9.3-2.3 0-3.2-.7-.9-.7-3.6-1.2-6.9-1-3.6.2-7.6-.6-12.7-2.3-4.1-1.4-9.5-2.9-12-3.2-3.7-.5-4.5-1-4.1-2.3.3-1 .2-1.2-.4-.5-.4.6-1.6 1.3-2.5 1.7-2.2.8-2.4 4.7-.3 4.7.8 0 1.5-.4 1.5-1 0-.5 1-.9 2.3-.9 1.8.1 1.8.2.4.6-1.2.3-1.6 1-1.2 2.1.3.9.3 1.4 0 1-.3-.3-1.7.4-3.1 1.7-2 1.9-3 2.1-5.9 1.5-2.7-.6-3.5-.4-3.8.9-.3 1.2-.6 1-1.5-.9-.9-2.1-1.4-1.9-1.1.7.1.9-5.9 3.3-8.2 3.3-1.1 0-1.9.4-1.9 1 0 1.5-4.2 6-5.7 6-.7 0-1.3.3-1.3.8 0 .4-.9 1.8-2 3.2-1.9 2.5-1.9 2.5-3.5.5-1.6-1.9-1.6-1.9-1.2 1.2.2 1.8 0 3.3-.5 3.3-.4 0-.8-.4-.8-1 0-1.8-2.1-1-4.5 1.7-1.4 1.6-2.3 3.3-2 4 .2.6-.3 1.7-1.1 2.3-1.2 1-1.4.8-1.4-1.4 0-1.4-.5-2.6-1.1-2.6-1.2 0-.8 8.2.5 9.1.5.4-.1 2.3-1.3 4.3-1.3 2-1.9 3.6-1.4 3.6.4 0 .2.4-.6.9s-2 2.8-2.7 5.1c-1.2 4-1.2 4.1.6 2.5 1.1-1 2-1.2 2.4-.6.4.5.2 1.2-.4 1.6-1.5 1-1.2 2.3.8 2.8 1.1.3.7.5-1 .6-2 .1-2.6.6-2.5 2.1.1 1 .3 1.7.6 1.5.2-.3 1 0 1.6.5 1.3 1.1.9 5.7-.6 6.6-1.2.7-1.1 2.4.1 2.4.5 0 1.8-1.7 2.9-3.8 1.1-2 2-3 2.1-2.1 0 .9-.3 1.9-.7 2.3-.7.7-.9 1.6-1.7 7.1-.3 1.7-.9 4.2-1.5 5.7-1.1 3-5.1 7.4-5.1 5.7 0-.5-.4-.8-.9-.5-.8.6-2.1 6.1-2.2 9.8 0 2.2-1.5 3.2-2.5 1.7-.3-.6-1.5 1.3-2.6 4.3-1.1 2.9-2.9 7.8-4 10.8-1.1 3-2.3 6-2.8 6.5-1.5 2-3.6 14.9-4.6 29-.6 8.4-3.4 26.6-4.5 29-1.3 2.9-.5 28.6.9 31 1 1.7 1.1 1.2.8-3-.4-4.1-.3-4.6.5-2.5.6 1.4.8 4.2.6 6.4-.4 2.5.1 5.3 1.4 8.4 1.4 3.1 1.6 4.9.9 5.6-.5.5-1 1.9-.9 3 0 1.2.3 1.5.6.9.8-2.1 3-1.5 3.6 1 4.1 16.9 6.7 24.1 9.2 25.1.8.3 1.5 1.2 1.5 2.1 0 .8.7 1.5 1.5 1.5s1.5.9 1.5 1.9c0 1.1.3 2.6.6 3.5.4 1.1.1 1.6-1 1.6-1 0-1.6.9-1.6 2.5 0 1.4.5 2.5 1 2.5.6 0 1-.7 1-1.6 0-2 2.7-4.7 4-3.9 1.5.9 1.2 2.5-.5 2.5-.8 0-1.5.6-1.5 1.4 0 .8-.3 2.1-.6 3-.3.9-.1 1.6.4 1.6.6 0 1.3-.9 1.7-1.9.3-1.1 1.2-1.8 1.9-1.5 1.8.7.6 7.1-2.2 11.6-2.4 3.9-2.8 5.8-1.2 5.8 1.1 0 1.4-.7 2.4-5.2.4-1.9 1.2-2.6 2.6-2.5 1.7.1 2 .8 1.9 4.7-.2 4.5-.2 4.5-.9 1-.5-2.8-.8-3.1-1.5-1.7-.4 1.1-.1 3.5.9 6 .9 2.4 1.6 5 1.6 5.9 0 .9.6 1.8 1.3 2.1.6.2.9.8.5 1.2-1.1 1.1-4-1.6-3.4-3.2.3-.7.1-1.3-.4-1.3-1.3 0-1.7 3.2-.7 5.6.5 1.2 1.9 2.7 3.1 3.3 2.1 1.1 2.1 1.1-.1.5-1.7-.4-2.3-.1-2.3 1.1 0 2.3 1.9 5.7 2.9 5.1.5-.3 1.6 1.2 2.6 3.4s2.2 4 2.7 4c.4 0 .8 1.3.8 2.9 0 3.9 1.7 4.8 3.1 1.7.9-2 1.8-2.4 4.5-2.3 3.4.3 6.1 1.7 3.1 1.7-1.8 0-2.3 1.5-.8 2.4 1.4.9 3.1-1.8 2.5-4.1-.4-1.3-1.1-2-2-1.6-1.5.6-2-.4-2.8-5.9-.2-2.1-.1-3.8.5-3.8.5 0 .9 1.2.9 2.8 0 3.3 4.1 7.5 6.4 6.6 1-.4 2.6.2 3.8 1.2 1.2 1.1 1.8 1.3 1.3.5-.6-1.1-.4-1.3.9-.8 1 .4 2 .7 2.2.7.2 0 .4.7.4 1.6 0 .8.5 1.2 1 .9 2.1-1.3.9 1.4-1.2 3-1.8 1.2-2.1 1.9-1.2 3.3.6.9 2 2.1 3.2 2.7 2.3 1 3 3.5 1 3.5-.9 0-.9.3-.1 1.1.7.7 1.9.9 2.9.5 1.3-.5 1.5-.9.6-1.8-1.7-1.7-1.5-3.8.3-3.8.8 0 1.5.7 1.5 1.5 0 2.5 3 1.7 3.1-.7 0-1.6.5-1 1.6 2 .8 2.3 2.3 4.7 3.4 5.2 2 1.1 2.6 3 .8 3-.5 0-.7-.4-.4-1 .3-.5.2-1-.3-1-.8 0-2.2 2.2-2.2 3.6 0 .2 1.8.4 4 .4 2.7 0 4.2.6 4.9 1.8.9 1.4 1.2 1.5 2 .3s1.1-.9 1.6 1.2c.6 2.3 1.2 2.7 4.4 2.7 6 0 10.3 5.4 6.9 8.8-2.4 2.4.8 1.1 3.5-1.4 1.5-1.4 3.4-2.3 4.2-2 .8.3 1.7.1 2-.4 1-1.7 2.5-1.1 2.5.9 0 1-.8 2.2-1.7 2.6-1.7.7-1.6.8.2 1.5 1.7.7 1.7.9.3.9-2.2.1-2.4 2.1-.3 2.1.9 0 1.8.6 2.1 1.4.4 1 1.4 1.2 4.2.5 2.7-.6 4.3-.4 6 .7 1.3.9 3.2 1.2 4.4.8 1.2-.3 2.4-.1 2.8.6.5.8 1 .2 1.4-1.5.8-3 4.5-9.3 7.1-11.9 1.3-1.3 2-1.4 3.1-.5 1 .8 1.4.8 1.4 0 0-.6-.4-1.1-1-1.1-2 0-.9-1.5 2.3-3.1 1.7-.9 3.4-2.4 3.5-3.5.6-2.8 1.8-3.8 3.9-3 1.5.6 1.5.8.3 1.6-1.3.8-1.2 1 .3 1 .9 0 1.7-.6 1.7-1.4 0-2 3.3-2.5 4.6-.7 1.5 1.9 3.4.5 3.4-2.5 0-3.1 1-3 3.7.6 1.9 2.3 2 2.9.8 3.4-1.3.5-1.3.9-.3 2.6 1.5 2.3 2.8 2.6 2.8.6 0-.8.7-1.6 1.5-2 1.2-.4 1.5.3 1.5 3.3 0 2.2.6 4.4 1.5 5.1 1.5 1.3 1.5.3-.1-7.7-.2-1.3 0-2.3.6-2.3.5 0 1 .5 1 1.1 0 .5.4.8.9.5.5-.4 1.3.8 1.6 2.6.4 1.8 1.2 3.6 1.8 4 .6.4 1 2.7 1 5.3-.1 3.7.1 4.4 1.2 3.5 1-.9 1.6-.7 2.5.9.6 1.2 1.7 2.1 2.5 2.1.9 0 1.5 1 1.5 2.4 0 3.6 3.2 8.7 5 8 .8-.3 3.5-.8 6-1 2.5-.3 4.9-.9 5.4-1.4 1.6-1.6 2.6-1.1 2.6 1.1 0 1.6.3 1.9 1.3 1.1.7-.6 2.5-.9 3.9-.8 2.1.3 2.9-.3 3.9-2.6 1.3-3.3 3-2 2.1 1.6-.5 1.9-.3 1.9 2-.5 1.4-1.5 2.8-3.4 3.1-4.4.4-.9 1.1-1.3 1.7-1 .5.3 1-.1 1-1s.4-1.4.8-1.1c.4.2 1.7-.9 2.7-2.5 2.5-3.6 5.1-3.8 5.9-.3.7 2.8.7 2.8-6.1 11-2.4 2.8-4.3 5.7-4.3 6.3 0 1.9-6.2 8.1-8 8.1-.9 0-3.4 1.8-5.5 4s-4.4 4-5 4c-.7 0-2 .9-3 2-.9 1-3.4 2.4-5.4 3.1-2 .6-4.6 2-5.8 3.1-1.4 1.3-2.8 1.8-4.2 1.3-1.4-.4-3.1.2-5.3 1.8-3.2 2.4-11.5 4.1-18.1 3.9-1.9-.1-2.7.3-2.4 1.1.4 1-1.9 1.2-9.7 1.2-5.6-.1-10.8-.5-11.5-.9-.8-.5-4.6-.9-8.6-1-4-.1-6.8.2-6.2.6 1.2.8 1.2.8-2.1 3l-2.3 1.6 2.4 1.8c1.4 1.1 3.3 2.5 4.3 3.2 1.1.7 1.4 1 .7.7-2-.9-2.5 1.4-.9 4.7.9 1.7 1.6 3.3 1.6 3.5 0 .7-3.9.2-4.4-.6-.7-1.1-4.6-.2-4.6 1.1 0 .5.5.6 1 .3.6-.3 1-.1 1 .4 0 .6-1 1.1-2.2 1.1-1.3 0-3.4.3-4.8.5-2.1.5-2.2.4-.5-.3 1.7-.8 1.6-1-1.2-1.4-1.8-.2-3.7 0-4.2.5-1.2 1.2-3.1 0-3.1-2 0-1.4-.4-1.3-2.3.5-1.3 1.2-3.4 2.2-4.6 2.2-2 0-2.2.4-1.7 2.8 1.2 4.8 1.1 5.7-.3 5.4-1.8-.4-5.1.7-5.1 1.7 0 .5 1.8 1.1 4 1.5 5.2.8 5.1 2.1-.5 3.5-2.5.6-4.5 1.6-4.5 2.2 0 .8.5.8 1.5-.1 1.1-.9 1.9-.7 3.8 1.2 2.3 2.4 3.4 7.8 1.6 7.8-.5 0-.9.6-.9 1.3 0 1.9-4.5 4.1-6.7 3.3-1.6-.5-1.6-.5.1.9 1.1.8 1.7 1.7 1.4 2.1-.4.3-2.5-1.3-4.8-3.6zm4.2-5.8c-.7-.5-1-1.6-.6-2.5.7-1.8-1.1-2.4-2.1-.7-1.1 1.7.3 4 2.2 4 1.3 0 1.5-.2.5-.8zm-5.2-14.9c0-1.3-.3-1.3-1.5-.3-.8.7-1.2 1.6-.9 2.1.8 1.3 2.4.1 2.4-1.8zm-15-4.3c0-1.1-.4-2-1-2-.5 0-1 .9-1 2s.5 2 1 2c.6 0 1-.9 1-2zm26 .6c0-1.5-2.4-2.8-3.4-1.9-1.3 1.4-.5 3.3 1.4 3.3 1.1 0 2-.6 2-1.4zm-2-6.5c0-1.8-1.8-2.1-3-.6-1 1.3-.9 1.5.9 1.5 1.1 0 2.1-.4 2.1-.9zm-24.8-8.3c-.9-.9-1.5-.9-2.4 0-.9.9-.7 1.2 1.2 1.2s2.1-.3 1.2-1.2zm-10.8-7.3c-.6-1.6-2.4-2.1-2.4-.7 0 1.1 1.1 2.2 2.1 2.2.5 0 .6-.7.3-1.5zm59.6-2.3c0-1.9-2.3-3.2-3.7-2.1-2 1.7-1.5 2.9 1.2 2.9 1.4 0 2.5-.4 2.5-.8zm17-45.6c0-1.5-1.8-3.1-2.6-2.3-.7.7.7 3.7 1.7 3.7.5 0 .9-.6.9-1.4zm157.1-188.3c.7-1.9.6-2.9-.2-3.7-.9-.8-1-.7-.6.6.3 1 .2 2-.3 2.3-1 .6-1.4 3.5-.5 3.5.3 0 1-1.2 1.6-2.7zm3.9-11.8c0-.8-.9-1.5-2-1.5-1.3 0-2-.7-2-1.9 0-1.1-.4-2.3-1-2.6-.6-.3-1 .5-1 1.9 0 1.7.9 3 2.8 4 3.4 1.9 3.2 1.9 3.2.1zm51-77c-1.5-1.8-7.7-2-8.3-.2-.6 1.9.4 4.7 1.6 4 .6-.4.8 0 .4 1-.4 1.1.1 1.7 1.6 1.9 3 .5 6.5-4.5 4.7-6.7zm-16.5 3.5c.3-.5-.3-1-1.5-1s-1.8.5-1.5 1c.3.6 1 1 1.5 1s1.2-.4 1.5-1zm-303.9-17.6c-.8-2.2-1.8-1.2-2.2 2.2-.2 2.4-.1 2.5 1.3 1.1.9-.9 1.3-2.3.9-3.3zm319.3 1.5c-1.2-1.8-3.1-3.4-4.1-3.7-1-.2-1.8-.9-1.8-1.5 0-.8-.3-.8-1-.1-1.3 1.3-.2 4.4 1.5 4.4.7 0 2.3.9 3.6 2 3.6 2.9 4.3 2.4 1.8-1.1zm6.7-8.7c-2.9-2.9-4.6-2.4-2.4.7.8 1.2 1.8 1.8 2.1 1.4.4-.3.7-.1.7.6s.5.9 1.1.5c.7-.4.2-1.6-1.5-3.2zm-4.6-7.7c0-.8-.9-1.5-2.1-1.5-1.5 0-1.9-.5-1.5-1.7.6-1.9-2.3-4.6-6.8-6.3-2-.7-2.4-.6-1.9.5.3.8.9 1.5 1.4 1.5.5 0 1.2.8 1.6 1.8 1.7 4.9 9.3 9.6 9.3 5.7zm-31.1-3.7c-1.3-1.8-2.5-2.6-2.7-1.9-.4 1.3 2.5 5.1 4 5.1.5 0-.1-1.4-1.3-3.2zm38.7-8.3c-.3-.8-.1-1.5.3-1.5.5 0 .6-1 .3-2.2-.6-2.3-.6-2.3-1.3.2-1.1 3.8-1 5 .2 5 .6 0 .9-.7.5-1.5zm-3.3-4c-.5-2.2-3.3-5.7-3.3-4.1 0 .4-1.3-.2-2.9-1.3-4.7-3.4-4.6-2.4.3 1.7 2.4 2 4.5 4.3 4.5 5 .1.6.5 1.2 1 1.2.4 0 .6-1.1.4-2.5zm-94.2.5c2.2-.5 5.7-1.5 7.9-2 5.7-1.5 4.9-2.7-1.5-2.2-3.3.2-5.5 0-5.5-.6s.6-1.2 1.3-1.5c.6-.3-4.4-.4-11.3-.4-8.2 0-13.3-.4-14.8-1.2-1.8-.9-2.7-1-3.7-.1-.8.7-1.9.9-2.4.6-.5-.4-1.2-.2-1.6.4-.4.6.8 1 3 1 2.1 0 3.4.4 3 1-.7 1.1 6.3 4.3 7.7 3.4.5-.3 1.6 0 2.4.7 1.3 1 1.7 1 2.5-.2s1.1-1.1 2 .4c1.1 1.9 5.2 2.2 11 .7zm98.1-5.5c.3-1.4.1-2.5-.3-2.5-.5 0-.9 1.1-.9 2.5s.2 2.5.4 2.5.6-1.1.8-2.5zm-110.8-3.4c.3-.4 1.6-.6 3-.4 1.3.3 3.2.1 4.1-.4 1.2-.7-.5-1.2-6.2-1.6-4.3-.3-8.7-.9-9.6-1.3-.9-.3-1.7-.2-1.7.4 0 .6 1.8 1.3 4 1.7 2.2.4 4 1.1 4 1.6 0 1.1 1.7 1.2 2.4 0zm85-5.4c-.9-5.2-1.2-5.7-3.4-5.7-1.3 0-1.9-.4-1.4-1.1.4-.7.1-1-.7-.7-2.3.8-1.7 5.2.9 6.3 3.5 1.5 2.6 2.4-1.4 1.3-2-.5-3.8-.7-4.1-.4-.9.9.8 2.6 2.7 2.6 2.9 0 5.1 1.1 4.4 2.2-.4.6.3.5 1.5-.1 1.6-.9 1.9-1.8 1.5-4.4zm-375.7 1.4c-2.1-1-5.2-3.1-6.9-4.7l-3.1-2.9 2.4 3.3c2.7 3.8 6.4 6.1 9.4 6.1 1.4 0 .8-.6-1.8-1.8zm298.1-.8c-1.6-.2-4-.2-5.5 0-1.6.2-.3.4 2.7.4s4.3-.2 2.8-.4zm1.1-3.9c.2-.2-1-.4-2.6-.4-1.7 0-3.3-.4-3.5-.8-.1-.5-2.8-1.1-5.8-1.5-5.2-.5-5.5-.4-5.6 1.8-.2 2.4-.1 2.4 8.5 1.8 4.7-.2 8.8-.7 9-.9zm-208.7-9.6c-.9-.9-1.2-.7-1.2 1.2s.3 2.1 1.2 1.2c.9-.9.9-1.5 0-2.4zm5.8-2.9c0-1.1-.4-1.7-1-1.4-.5.3-1 1.3-1 2.1s.5 1.4 1 1.4c.6 0 1-.9 1-2.1zm166.5-4.9c.4-.6-.8-1-2.9-1-1.9 0-3.8.5-4.1 1-.4.6.8 1 2.9 1 1.9 0 3.8-.4 4.1-1zm82.3-5.3c2-1.6 1.4-2.9-1-2.2-3.5 1-6.8 2.7-6.8 3.6 0 1.1 6.1 0 7.8-1.4zM479 132c0-.5-.6-1-1.4-1-.8 0-1.8.5-2.1 1-.3.6.3 1 1.4 1 1.2 0 2.1-.4 2.1-1zm-177.4-1.1c.7-1.3-1.6-2.1-2.9-1.1-.7.6-2.5 1.2-4.2 1.5-1.8.3-1.1.4 1.8.4 2.7 0 5-.4 5.3-.8zm-151.1-3.7-2.8-2.7 2.3 3.3c1.2 1.8 2.5 3.1 2.8 2.7.3-.3-.7-1.8-2.3-3.3zm341.6 1.1c.6-1.5 1.5-3.1 2.2-3.5.6-.4.9-1 .6-1.3-.4-.3-1.7.6-3 2-1.3 1.3-3 2.5-3.6 2.5-2.7 0-.9 2.6 2 2.9.4.1 1.2-1.1 1.8-2.6zm-13.1.7c0-.5-.9-1-1.9-1-1.1 0-2.3.5-2.6 1-.4.6.5 1 1.9 1s2.6-.4 2.6-1zm-221-1.8c0-.8-3.6-4.2-4.5-4.2-.2 0-.2.7.2 1.6.5 1.4 0 1.5-2.8 1.1-3.2-.6-3.2-.5.6.8 4.7 1.6 6.5 1.8 6.5.7zm260-2.4c0-.5-.7-.8-1.5-.4-.8.3-1.5 0-1.5-.6s-.3-.8-.6-.5c-.9.9 1.6 3.8 2.7 3.1.5-.3.9-1 .9-1.6zm-85.1-3c.5-1.3.7-2.5.5-2.7-.7-.7-3.4 2.1-3.4 3.5 0 2.2 2 1.6 2.9-.8zM313.3 114c.7-2.7-1.8-1.4-3.4 1.8-2.3 4.6-2.3 4.8.4 2.4 1.4-1.3 2.7-3.2 3-4.2zm115.3 2.3c-.4-.4-1.1-.1-1.6.7-1.6 2.5-1.1 3.5.7 1.7.9-.9 1.3-2 .9-2.4zm-23.1.6c-3.3-1-7.2-1.9-8.6-1.9-1.4 0-3.6-.9-4.9-2-2.5-2.1-3.5-2.6-2.6-1.1.9 1.3-2.2 2.2-5.2 1.4-2.6-.6-2.7-.6-.9 1.4 1.4 1.6 2.7 2 6 1.6 2.3-.2 6.5.3 9.2 1.1 2.8.8 6.8 1.4 9 1.4 4 0 3.9 0-2-1.9zm-101-4.9c-.3-.5-1.8-1-3.3-.9-2.4 0-2.5.1-.7.9 2.8 1.2 4.7 1.2 4 0zm-45.1-4.4c-.2-3.5.3-5.1 2.1-7.2 1.3-1.6 2.2-3.1 1.9-3.4-1.2-1.1-5.2 5.4-5.8 9.3-.6 3.5.1 5.3 2 5.7 0 0-.1-2-.2-4.4zm124 2.9c-.5-1.1-.2-1.3 1-.9.9.3 1.6.1 1.6-.5s-.6-1.1-1.2-1.1c-.7 0-2.4-.9-3.8-1.9-1.8-1.5-2.9-1.7-4.3-.9-1.1.5-2.8.7-3.9.5-1.2-.3-1.8-.1-1.5.6.2.7 2 1.3 4 1.5 2.3.2 3.7.8 3.7 1.7 0 1.2 1.3 1.9 4.2 2.4.4 0 .5-.6.2-1.4zm-184-1.6c1.2 1.1 1.6 1.1 1.6.1s.3-1 1.5 0c.8.6 2 1 2.7.8.7-.3-.3-1.3-2.2-2.3-1.9-.9-4.2-2.4-5.1-3.2-1.4-1.2-1.9-1.2-3.3.2-.9 1-1.6 1.2-1.6.5 0-2.1-5.2-8-7.1-8-1 0-2.5-1-3.3-2.1l-1.5-2.2-.6 2.6c-.9 3.3-.4 3.9 6.1 8.8 6.4 4.7 9.6 6.1 10.6 4.6.4-.7 1.2-.7 2.2.2zm46.6-5.8c-.8-1.7-.8-2.1.4-2.1.8 0 1.6.3 1.9.8.2.4.2.2.1-.5-.3-1.2.2-3.1 2.8-11.3.6-1.8 2.4-4.8 3.9-6.5 1.6-1.6 2.9-3.4 2.9-3.8 0-.5.8-.6 1.8-.3 1.9.6 5-.9 3.9-2-.3-.4-1.3-.1-2.2.6-1.2 1-1.5 1-1.5-.4 0-.9.5-1.6 1-1.6.6 0 1-.5 1-1 0-.7-.6-.7-1.9-.1-2.9 1.6-9.8 12.3-11.7 18.3-.9 2.9-2.5 6.2-3.5 7.3-1.8 2-1.8 2.2-.2 4.5 1.9 2.7 3 1.2 1.3-1.9zm9.7-2.5c-.2-.6-.9-.1-1.6 1.2-.6 1.2-.9 2.8-.5 3.4.8 1.3 2.7-2.8 2.1-4.6zm182.9 4.5c-.5-.8-5.6-.3-5.6.5 0 .2 1.4.4 3.1.4 1.6 0 2.8-.4 2.5-.9zm-233.9-1.5c-1-.8-1.8-1.7-1.8-2 .3-2.2-.1-2.7-1.9-2.1-1.1.4-2 .2-2-.4 0-.6-.7-1.1-1.5-1.1s-1.5-.4-1.5-1c0-.5-.6-1-1.2-1-.7.1-.1 1.1 1.3 2.3 1.4 1.2 2.9 3 3.3 4.1.3 1.1 1.2 1.6 2.1 1.2.8-.3 1.7-.1 2 .4.4.6 1.2 1 1.8 1 .7 0 .4-.7-.6-1.4zm103.7-3.7c-.8-1.4-2.4.8-2.4 3.6 0 1.8.1 1.8 1.6-.3.8-1.2 1.2-2.7.8-3.3zM417 103c-1.3-.8-1.2-1 .3-1 .9 0 1.7-.4 1.7-1 0-1.3-4.7-1.3-5.5-.1-.3.6.3 1.4 1.2 2 2.3 1.3 4.3 1.4 2.3.1zm-45-1c0-1.3-2.8-2.5-3.8-1.6-.3.4 0 1.1.8 1.6 2 1.3 3 1.2 3 0zm-177.5-3c-2.8-3-.6-4.6 3.4-2.6 2.6 1.4 3 1.4 2.5.1-.4-.8-1.2-1.5-1.9-1.5-1.4 0-2.9-4.5-2-6 .3-.5 0-2.2-.7-3.7-1.5-3-1.3-9.3.3-9.3.5 0 .9 1.7 1 3.8.1 3.5.2 3.4 1.4-1.8 1.6-7 3.6-11.9 4.2-10.2 1 2.6 2 1 1.9-3.1-.1-3.6-.3-4.1-1.3-2.8-.6.9-.9 1.9-.7 2.3.3.5-.6 1.3-2 1.9-1.4.7-2.8 2-3.1 3.1-.4 1-1.8 3.2-3.2 4.8-2.4 2.9-2.5 3.5-2 12.5.6 9.3-.1 11.5-2.3 7.5-.6-1.1-1.8-2-2.6-2-1 0-.5.9 1.5 2.6 1.7 1.4 3.1 3.2 3.1 3.9 0 1.4 3.1 3.7 3.9 2.9.2-.2-.4-1.3-1.4-2.4zm128.5.5c0-.2-1.3-1.1-3-2-3.3-1.7-8-2-8-.5 0 .6 1.2 1 2.8 1 1.5 0 3.4.5 4.2 1 1.6 1 4 1.3 4 .5zm-78-3.1c0-.8.6-2.7 1.3-4.2.8-1.7 1.1-4 .6-6.2l-.6-3.5-.2 3.1c0 1.7-.8 4.8-1.6 6.7-1.7 4.2-2 7.1-.5 6.2.6-.3 1-1.3 1-2.1zm10.4-5.1c.4-1.3.4-2.3-.1-2.3-1.2 0-3.3 5.1-3.2 7.9.1 2.6.1 2.6 1.4-.4.7-1.6 1.6-4 1.9-5.2zm15.6 4.4c0-.7-.9-2.3-2-3.5-1.9-2.1-2-2.3-.4-4.7 1.5-2.3 1.5-2.5 0-2.5-.9 0-1.6.8-1.6 1.9 0 1.1-.6 2.1-1.2 2.4-.9.3-.3 1.3 1.5 2.8 1.5 1.4 2.7 3 2.7 3.7 0 .7.2 1.2.5 1.2s.5-.6.5-1.3zM185 89c0-1.1-.4-2-.9-2-1.1 0-2.2 2.6-1.4 3.4 1.2 1.2 2.3.5 2.3-1.4zm21.8-2.8c.6-1.8-1.5-1.4-2.2.4-.4 1-.1 1.4.6 1.2.6-.2 1.4-1 1.6-1.6zM479.1 84c1 0 1.9-.4 1.9-1 0-1.5-3.4-1.2-5.6.6-1.7 1.4-1.7 1.5-.1 1 1-.3 2.7-.6 3.8-.6zm-25.3-3.9c-1.5-.5-2.1.7-1.3 2.6.7 1.7.8 1.7 1.5-.2.4-1.1.3-2.2-.2-2.4zm-5.8.4c1.3-1.4 2-2.8 1.7-3.2-.8-.7-5.7 3.5-5.7 4.9 0 1.5 1.6.8 4-1.7zm-243-5.4c0-2.1-1.8-6.7-2-5.1-1.2 8.8-1.2 9 .4 8.4.9-.4 1.6-1.8 1.6-3.3zM350.5 77c-.3-.5-1.6-1-2.8-.9-2.1 0-2.1.1-.2.9 2.8 1.2 3.7 1.2 3 0zm-19.5-.9c4.4-.8 4.4-.9-2-.9-3.6 0-7.6.4-9 .8-2 .7-1.7.8 2 .8 2.5 0 6.5-.3 9-.7zm-61.7-2.5c2.5-.8 2.1-2.5-.5-1.9-1.9.4-2 .3-.8-.6 1.2-.9 1.1-1.1-.9-1.1-1.6 0-2.1.4-1.8 1.5.4.8.2 1.7-.3 2-1.8 1.1-1.1 2.6.8 1.6.9-.5 2.5-1.2 3.5-1.5zM258 63.1c0-2.5-1.8.1-2.5 3.4l-.6 3 1.5-2.5c.8-1.4 1.5-3.2 1.6-3.9z"/><path d="M198.4 475.5c-1-1.8-1.6-8-2.9-32.5-.2-3.6-.7-8.5-1-11-.4-2.5-.5-4.3-.2-4 1.3 1.4 3.8 14.8 3.8 20.3.1 3.4.5 7.8 1.1 9.7.5 1.9.8 7.1.6 11.5-.2 6.6-.5 7.6-1.4 6zM341.6 466.5c-.5-1.3-.9-1.5-2-.6-1 .8-1.6.9-2.1.1-.3-.5-.1-1 .6-1 1 0 1-.3.1-1.2-.7-.7-1.2-2-1.2-3.1s-1.1-2.2-2.7-2.8c-3.2-1.1-7.3-6.8-7.3-10 0-1.7.5-2 2.3-1.6 1.2.2 5.5 1.2 9.5 2.1 4 .9 12.3 1.7 18.5 1.8l11.2.3 1.3 2.9c1.5 3.4 1.1 4.1-1.6 2.7-2.3-1.2-3.3-.5-2.5 1.6.5 1.2.1 1.4-1.5.8-1.6-.4-2.2-.2-2.2.9 0 .8-.5 1.8-1.2 2.2-.8.5-.9.2-.5-1.1.4-.9.3-2.3-.3-3-1.6-2-5.7.4-6.4 3.7-.3 1.6-1 2.8-1.6 2.8-.7 0-.9-.8-.5-2 .9-2.8-.6-2.5-2.9.5-1 1.4-2.3 2.5-2.9 2.5-.5 0-1.5.7-2.2 1.6-1.1 1.6-1.2 1.5-1.9-.1zM330.6 442.5c-1.5-.8-3.3-1.5-3.8-1.5s-3.3-1.6-6.2-3.5c-2.9-1.9-5.8-3.5-6.3-3.5-.6 0-2.2-.9-3.6-2-2-1.6-4.3-2.1-9.4-2.3l-6.8-.2-.3 3.3c-.4 3.7-2.5 3.9-3 .4-.4-2.4-3.7-3.1-4.5-.9-.3.9-1 .9-2.8-.3-1.3-.8-4.4-1.5-6.9-1.5-4.4-.1-4.5-.2-5.5-4-.5-2.2-1.4-4.3-1.9-4.7-1.3-.9-1.5-10.7-.3-13.5.6-1.3 2.1-3 3.4-3.8 1.2-.9 2.3-2.5 2.3-3.6 0-1.6.3-1.9 1.3-1.1 1 .8 1.6.6 2.5-.9.7-1.2 2.3-1.9 4.1-1.9 1.6 0 3.1-.6 3.5-1.5.3-.8 1-1.5 1.5-1.5.6 0 2.2-1.2 3.8-2.6 1.5-1.4 2.9-2.1 3.1-1.5.2.6 1.1 1.1 1.9 1.1 1 0 1.3-.6.8-1.7-.5-1.4-.3-1.5.6-.6.9.9 1.7.8 3.5-.4 2.2-1.4 2.4-1.3 3 1.1.3 1.5 1.3 3 2.1 3.4 1.3.8 1.3 1.3-.1 4.7-.9 2.1-2.4 4.4-3.4 5.1-1.4 1.1-1.4 1.3-.2 1.3 2.1 0 5.3-2.6 4.6-3.7-.3-.5.2-.9 1.2-.8 1.3.1 1.7-.7 1.8-3.4.1-1.9.6-4.7 1.2-6.2 1.3-3.2.2-4.4-2.8-2.8-2.7 1.4-2.6-.2.2-2.6 1.2-1 1.8-1.3 1.4-.6-.6 1-.1 1.1 2.1.6 3.3-.9 5.2-3.1 5.3-6.1 0-1.3.5-2.3 1-2.3 1.8 0 1.1-2.2-1.5-4.6-2.5-2.3-5.6-7-7.5-11.1-.5-1.3-1.4-2.3-2-2.3-.5 0-1-.7-1-1.6 0-1.1.9-.8 3.6 1.4 4.7 3.9 7.4 3.3 7.4-1.7 0-6.7 2.7-8.1 15.6-8.1h9.6l4 4c3.2 3.1 3.9 4.5 3.5 6.6-.3 1.6 0 2.8.9 3.1.8.3 1.4 1.3 1.4 2.2 0 1 .3 2.1.7 2.4.3.4.8 1.9.9 3.4.2 1.4.9 3 1.6 3.4 1 .7.9.9-.4.9-1 0-1.8.6-1.8 1.4 0 .9-.7 1.2-1.8.9-1.3-.3-1.8.2-2 2.2-.1 2.1.2 2.6 1.4 2.1.9-.3 2.4-.6 3.5-.6 1.4 0 2.5-1.2 3.5-3.7 1.5-3.4 1.5-3.8-.3-5.1-1.6-1.2-.9-1.3 5.4-.9 4.6.2 7.4 0 7.7-.7.3-.7.8-.7 1.4.2.5.7 3.2 2.5 6.1 4 5.4 2.9 8 6.4 8.2 11.1.2 2.3.2 2.4.6.4.6-3.1 2.3-2.9 2.3.2 0 2.9-3.4 5.2-5.4 3.6-1-.8-1.8-.6-3 .8-1.7 1.9-1.6 2 2.1 4 2.1 1.1 3.4 2 2.8 2.1-.5 0 .5.9 2.2 2 2.3 1.4 3.1 2.5 2.7 3.7-.5 1.5-.4 1.5.5.3.9-1.3 1.1-1.2 1.6.2.4.9 1.4 1.4 2.3 1.2 2.1-.5 6.4 3 6 4.8-.2.8.8 1.4 2.5 1.6 1.5.2 2.7-.1 2.7-.7s-.4-1.1-1-1.1c-.5 0-1-.5-1-1.1 0-.6.9-.9 2-.6 1.1.3 2 .3 2 .1 0-1.1-4.4-5.3-5.2-4.8-.4.3-.8 0-.8-.7 0-.6-.8-.9-2-.6-1.1.3-1.7.1-1.4-.4.3-.6.1-1.5-.4-2.2-.5-.7-.6-3.2-.3-5.7l.7-4.5.8 4.3c.4 2.4 1.2 3.9 1.8 3.6.5-.3.8-1.5.5-2.5-.5-2 1.7-2.7 2.8-.9.3.6 1.7 1 2.9 1 1.3 0 3.9 1.3 5.7 3 1.9 1.6 3.9 3 4.6 3 2.6 0 5.9 17.4 4 21.4-.7 1.4-1.5 2.6-1.9 2.6-.5 0-.8.9-.8 1.9 0 3-1.5 3.3-5.7 1.5-2.1-.9-4.6-1.6-5.5-1.5-1 .1-1.8-.3-1.8-.9 0-.6-.4-.9-.9-.6-.5.4-1.1 0-1.3-.6-.3-.8-2.1-1.3-4.3-1.3-3.3 0-4-.4-4.5-2.5-.4-1.8-1.5-2.7-4.4-3.3-2.7-.7-4-.6-4.5.2-1.5 2.3-20.6 5.7-33.5 6-3.9.1-4 0-1.7-1.6 1.6-1.1 2.5-1.2 3-.4.5.8 2.7.7 8.1-.2 6.9-1.1 7.5-1.4 7.8-3.8.3-2.4 0-2.6-7.5-3.7-4.3-.7-12.2-1.2-17.5-1.2-9.5 0-9.8.1-9.8 2.3 0 3.4 1.2 4.5 5.9 5.6 4.5 1 6.5 2.1 3.8 2.1-.9 0-7.4-.9-14.5-2-13.7-2.2-18.2-1.8-18.2 1.7 0 1-.3 2.9-.6 4.3-.5 2.4-.5 2.4 1 .6 1.6-1.9 1.6-1.9 1.6.2 0 1.3.6 2.2 1.5 2.2.8 0 1.5.7 1.5 1.5s.5 1.5 1.2 1.5c.6 0 3.1.9 5.4 2.1 3.1 1.5 4.1 2.5 3.7 3.6-.4 1.1-.2 1.4.5.9.6-.4 2.9.5 5.1 1.9 2.3 1.4 4.5 2.5 5.1 2.5.6 0 .8.5.5 1-.9 1.5-5.6 1.2-8.9-.5zM379 416c0-.6-.7-1.3-1.5-1.6-2-.8-4.8.3-4 1.6.8 1.3 5.5 1.3 5.5 0zm10.7-8.2c.4-2.8-1.1-3.9-2.1-1.5-.3.6-.3 0 0-1.4.6-3.1-2.4-5.9-6.3-5.9-1.3 0-2.3-.4-2.3-1 0-.5-1-1-2.2-1.1-2.2-.1-2.2-.1.2-.8 2.4-.7 2.4-.8-1.2-2-2.8-.9-4.6-1-7.1-.2-1.9.6-4.5.8-6.2.3-4.7-1.2-15.7-.3-15.2 1.3.4 1-.3 1.1-3.1.4-2-.5-3.9-.9-4.2-.9-.9 0-.6 5.5.4 6.1 1.4 1.1-.3 2.9-2.7 2.9-2 .1-2.1.2-.5 1.4 1 .7 1.5 1.6 1.1 1.9-.8.9-.8.9 18.6 2 5.7.4 10.7.9 11 1.2.3.4 5.2.5 11 .3l10.4-.3.4-2.7zm-54.7-1.2c0-.9-.7-1.2-2.1-.9-1.6.4-1.7.8-.7 1.4 1.9 1.3 2.8 1.1 2.8-.5zm2.6-7.7c.6-1.1-1.1-1.1-5.6-.3-1.7.4-2.7 1-2.1 1.4 1.4.8 6.9.1 7.7-1.1zm-34.6-6c0-1.1-.4-1.7-1-1.4-.5.3-1 1.5-1 2.6s.5 1.7 1 1.4c.6-.3 1-1.5 1-2.6zm21.5.7c2.2-1 4.4-2.5 4.8-3.3.6-1 1.8-1.2 3.8-.8 2.3.5 2.9.3 2.9-1 0-1.5-.7-1.6-4.7-1-2.7.4-5.7 1.2-6.8 1.8-1.1.6-2.9 1.1-4 1.1-1.1.1-2 .7-1.9 1.4.3 3.8.5 4.3 1.2 4 .4-.2 2.5-1.2 4.7-2.2zm-29.5-1.8c0-1.3-2.3-.5-2.8 1-.2.7.2 1 1.2.6.9-.3 1.6-1.1 1.6-1.6zm84.4-2.2c.7-2.5-.1-3.6-2.5-3.6-1 0-1.9-.4-1.9-1 0-.5-.7-1-1.5-1s-1.5.3-1.5.8c0 1.2-10.3 1.5-22 .7-7.5-.6-8.7-.5-10.2 1.2-3.8 4.2 1.1 5.1 26.4 4.9 11.6-.1 12.7-.3 13.2-2zm-27-16.2c.9-2.5.7-7.2-.4-7.9-.6-.4-1 .6-1 2.2 0 1.5-.3 3.8-.6 5.1-.7 2.5 1.1 3.1 2 .6zM333 364c0-.6 1.1-.8 2.6-.4 1.9.5 2.9.1 4.1-1.6 1-1.4 2.2-2 3.4-1.7 1.1.3 1.9.1 1.9-.4s1.2-.9 2.8-1c2.4-.1 2.2-.2-1.1-1.1-3.1-.8-4.6-.7-7.6.7-2.5 1.1-5.1 1.5-7.5 1.1-2.4-.4-3.5-.2-3.1.4.3.5-.1 1-.9 1-2.1 0-2 1 .2 2.6 2 1.6 5.2 1.8 5.2.4zM235.2 437.8c-.1-2.8.2-3.8 1.4-3.8 1.1 0 1.3.6.9 2s-.2 2 .9 2c1.2 0 1.4-.7.9-3.2-.3-1.8-.9-3.8-1.4-4.3-.4-.6-.4-1.7 0-2.4 1.6-2.6 4.3 3.2 3.9 8.6-.3 4.6-.4 4.8-3.4 4.8-2.9.1-3.1-.2-3.2-3.7z"/><path d="M344.8 437.4c-.5-.4-.8-1.9-.8-3.3 0-1.8.3-2.2 1.1-1.4.6.6.9 2.1.7 3.3-.1 1.2-.6 1.8-1 1.4zM228.8 432.5c-1.4-2.1-2-8.5-.9-8.5.6 0 1.4.6 1.7 1.4.7 1.9.1 8.3-.8 7.1zM222.5 422.8c-.4-1.3-.7-2.8-.6-3.5.1-.6-.3-1.4-.9-1.8-1.3-.8-1.3-3.5 0-3.5.6 0 1 .7 1 1.5 0 1.8 1.7 2 2.2.3.3-.7.7-.6 1.1.5.3.9.2 1.7-.3 1.7s-.6 1.6-.3 3.5c.6 3.9-1 4.9-2.2 1.3zM481.5 399.9c-5.4-1.3-9.5-3-9.5-4 0-1.1 1.4-1.2 2.4-.2.3.4 2.3 1.2 4.4 1.9 3.1 1.1 4 1.1 5.9-.1 1.2-.8 2.9-1.5 3.7-1.5.8 0 1.7-.8 2-1.8.8-2.3 6.6-8 6.6-6.4 0 2.1-4.4 8.1-6.8 9.1-1.2.6-2.5 1.8-2.8 2.6-.4.8-.9 1.5-1.3 1.4-.3-.1-2.4-.5-4.6-1zM168 399.1c0-.5.6-1.1 1.2-1.3.7-.3 1.3-1.3 1.3-2.3 0-1.2 1.3-2.2 4-3.2 4.8-1.6 7.4-1.1 5.5 1.3-3.2 3.7-12 7.8-12 5.5zM417.7 396.2c-1.8-2-2.2-3.2-.9-3.2.4 0 1.2 1.1 1.9 2.5 1.3 3 1.2 3.1-1 .7zM147.8 390.2c-5.3-5.5-9.7-12.2-8.1-12.2.5.1 2.4 1.4 4.3 3 1.9 1.7 3.8 3 4.3 3 2.1 0 9.7 6.3 9.7 8 0 1.6-2.6 4-4.3 4-.2 0-2.9-2.6-5.9-5.8zM395.6 393.1c-.6-1.8-1-2-1.7-1-.9 1.6-1.4 1.2-2.3-1.8-.9-3 .7-3.6 3.3-1.3 1.5 1.2 2.1 2.7 1.9 4.2l-.4 2.3-.8-2.4zM499.3 363.8c-.6-4-3.3-12.7-5.8-19.3-2.6-6.7-4.9-14.6-5.2-17.7-.3-3.2-1-5.8-1.5-5.8-1.5 0 4.3-7.8 6.2-8.3 2.5-.7 6 2.8 6.1 6.1.1 5.7 1.1 11.1 3.9 22.8 1.7 6.7 3 12.8 3 13.7 0 .8-.9 3.9-2.1 6.8-1.2 3-2.4 6.2-2.8 7.2-.4 1.2-1.1-.9-1.8-5.5zm-.6-19c-.2-.7.3-1.8 1.2-2.5 1.5-1 1.5-1.4-.1-4-.9-1.5-1.5-4.2-1.2-5.8.2-1.7.1-2.2-.2-1.2-.3.9-1 1.7-1.5 1.7-1.3 0-1.1-2.4.3-3.8.9-.9.9-1.2 0-1.2-.8 0-1.2-1.9-1.2-5.5 0-3-.4-5.5-1-5.5-.5 0-.7-.7-.4-1.5.7-1.7.3-1.8-2.1-.9-2.1.9-4.8 6.1-3.5 6.9.6.3.8 1.6.5 2.8-.8 3 5 20.7 6.8 20.7.4 0 .5-.6.2-1.2-.3-.7 0-.5.7.5 1.5 2 2.1 2.2 1.5.5zM134.6 361.9c-.9-3.5-2.8-8.6-4.2-11.4-1.7-3.7-2.4-6.9-2.4-11.3 0-7.4.6-9.1 3-8.5 1.5.4 1.8 1.5 1.9 6.1 0 3.4-.5 5.9-1.2 6.4-.9.5-.9.8 0 .8.7 0 .9 1.3.6 4-.4 2.6-.2 4 .5 4 1.6 0 5.7 13.9 4.5 15.1-.6.6-1.6-1.3-2.7-5.2zM378.5 366c-3.8-.4-7.4-.5-7.8-.3-.4.3-1.4-.1-2.2-.7-.8-.7-3.1-1-5.2-.8-4 .3-6.4-1.5-2.5-2 1.6-.2 2.2-1 2.2-2.7 0-3 4.6-8.4 8.5-10 4-1.6 14.3-.5 17.9 1.9 2.1 1.3 2.6 2.3 2.2 3.9-.4 1.2-.9 2.9-1.1 3.9-.6 2.6-3.5 7.8-4.3 7.7-.4-.1-3.8-.5-7.7-.9zm2.7-4c.2-.6 1.8-1.1 3.6-1.3 1.7-.1 3-.6 2.8-1.2-.2-.5-1-.8-1.7-.6-2.2.6-6.1.5-10.1-.3-4.3-.8-6.2.9-3.3 3.1 2.2 1.5 8.2 1.8 8.7.3zM137 353c-.1-1.9-.3-4.2-.4-5-1.1-5.5-1.6-12.3-1-11.7 1 1 3.4-4.8 3.4-8.4 0-1.5.5-3.1 1-3.4.6-.4 2.6-2.9 4.4-5.7 1.9-2.8 3.7-4.5 4.1-3.9.3.6.4 1.5 0 2-.3.5 0 1.3.6 1.7.7.4.7.9.1 1.3-1.4.9-7.1 13.8-8.3 18.5-.5 2.3-1.6 7.3-2.3 11.1-1.1 5.4-1.5 6.2-1.6 3.5zM305.1 350.5c-.1-1.6 1-5.3 2.3-8.2 1.3-2.8 2.2-5.3 2-5.6-.3-.3 1.1-1.5 3.1-2.7 1.9-1.2 4-3 4.5-4.1.6-1 1.8-1.9 2.7-1.9.9 0 2.6-.8 3.7-1.7 1.2-1-1.2 1.7-5.3 5.9-7.8 8-9.6 10.7-11.7 17.3-1.2 3.8-1.3 3.8-1.3 1zM160.2 333.4c-1.2-.8-2.2-2.1-2.2-2.9 0-.7-.6-1.6-1.2-1.8-.8-.4-.7-.6.3-.6 1-.1 1.6-.9 1.5-1.8-.1-1.3.7-1.8 2.6-1.8 2.1-.1 3 .7 4.7 4.3 1.2 2.4 1.9 4.8 1.6 5.3-.9 1.4-4.8 1.1-7.3-.7zM138 305c.6-1.1 1.6-2 2.2-2 .6 0 .3.9-.7 2s-2 2-2.2 2c-.2 0 .1-.9.7-2zM247.5 297.5c-1.6-.7-2.4-1.4-1.7-1.4.6-.1 1.2-.8 1.2-1.6s.9-1.5 2-1.5 2 .7 2 1.5-.6 1.5-1.2 1.5c-.9 0-.8.3.2 1 2.4 1.5.7 1.9-2.5.5z"/><path d="M229.7 291.1c-2.6-1.4-4.3-2.7-3.7-2.9.5-.2 1-.8 1-1.3 0-.6-.4-.7-1-.4-.5.3-1-.1-1-1 0-1.1.5-1.5 1.4-1.2 1.8.7 4.1-2.7 5.6-8.3 1.1-4 4.6-8.7 11-14.6 4.5-4.1 15.6-9.3 23-10.8 1.4-.2 4.8-.9 7.7-1.5 2.9-.6 8.3-1.2 12.1-1.3 6.3-.3 6.8-.4 5.3-1.8-2-1.8-2.1-4.4-.3-4.6 3.6-.4 3.7-.4 2.2-1.3-.8-.6-1.7-.8-2.1-.5-.4.2-1 0-1.3-.5-.4-.5-2.5-1.2-4.9-1.6-2.3-.4-6.2-1.3-8.7-2.2-4-1.3-4.5-1.3-5.7.3-1 1.3-2 1.5-5 .9-2.1-.4-5.1-.9-6.8-1.1-2.7-.4-2.8-.3-.7.6 1.2.5 2.2 1.2 2.2 1.6 0 .6-5.5-.1-9.2-1.2-1.1-.3-1.7.2-2 1.8-.2 1.9-.9 2.3-4 2.3-4.5 0-5.6 1-2.9 2.5 3.2 1.7 2.5 2.6-1.7 2.2-2.4-.2-4.4.1-5.3 1-.8.8-2.2 1.9-3.3 2.5-1.7.9-1.6 1.1.8 1.7 4 1 3.1 2.6-1.4 2.6-2.2 0-4 .4-4 .9s-.7 1.1-1.4 1.4c-1 .4-1.3.1-.9-.9.3-.7.9-1.4 1.4-1.4.5 0 .9-.4.9-1 0-.5-.6-1-1.3-1-.8 0-2.1-.8-3.1-1.8-1.5-1.8-1.5-2 .5-3.8 1.2-1 2.3-1.8 2.5-1.6 1.1.7 2.4 0 2.4-1.3 0-.8.7-1.5 1.5-1.5.9 0 1.8-.7 2.2-1.6.3-.8 1.1-1.3 1.8-1 .9.3 1.1-.3.9-1.7-.2-1.2-.2-1.6.2-1 .7 1.6 5.4-1.2 5.4-3.2 0-1.7 2.7-2.7 3.4-1.2.3.9.5.9.5 0 .2-2.7 2.1-1.1 2.1 1.7 0 1.7.5 3 1 3 .9 0 1.4-2.1 1.1-4.2-.2-1.2 4.7-4 5.9-3.3.5.3 1 .2 1-.4 0-.5-.5-1.3-1-1.6-2.1-1.3.2-2.4 5.3-2.3 9.1.1 11.8-.2 11.3-1.1-.3-.4 3.6-1.1 8.7-1.5 5-.4 10.3-.8 11.7-1 1.4-.2 3.3-.4 4.3-.4 1-.1 1.6-.6 1.3-1.1-.3-.5 1.6-.6 4.2-.3s4.9.9 5.1 1.4c.5 1.3 4.3 4.8 5.3 4.8.4 0-.1-.9-1.2-2-1.2-1.2-1.8-2.6-1.4-3.1.4-.7.9-.8 1.3-.1.3.5 1.7 1.2 3.1 1.3 1.8.3 3.1 1.7 4.8 4.9l2.2 4.4v-3.2c0-1.8.4-3.2.9-3.2s.9 3.7.9 8.2c0 7.4-.1 8.1-1.4 6.4-1.2-1.7-1.4-1.8-1.4-.3 0 .9-.4 1.7-1 1.7-.5 0-1-.7-1-1.5s-.5-1.5-1.1-1.5c-.6 0-.9.7-.5 1.5.6 1.7-.2 1.9-2.4.5-.9-.5-1.9-.5-2.7.2-.7.5-1.9.8-2.7.5-.8-.3-1.7.1-2 .9-.3.7-1.4 1.3-2.5 1.1-1.1-.1-2 .1-2 .6-.3 2.8.2 3.6 2.1 3.9 1.4.2 2.5 1.3 2.9 2.8.4 1.6.7 1.9.8.8.1-1 .5-1.8 1.1-1.8.5 0 .7.6.5 1.3-.4 1 3.3 4 5.8 4.5.4.1 1.7 1.1 2.9 2.2 2.6 2.4 7.7 2.7 8.3.5.3-.8.7-2.2 1-3 .3-1.1.9-1.3 2.2-.6 1 .5 3.1 1.3 4.7 1.6 1.5.3 2.6.9 2.2 1.2-.3.3-.1 1.2.5 1.9 1 1.2 1.2 5.8.6 12.4-.1 1.4-1 2.8-2 3.2-.9.4-2.1 1.8-2.6 3-1.2 3.2-5.7 7.8-7.6 7.8-.8 0-1.5.5-1.5 1 0 .6-1.1 1.5-2.5 2s-3.1 1.4-3.8 2c-.6.6-2.3 2-3.7 3.1l-2.5 2.1-.7-3.4c-.4-1.8-.5-3.8-.3-4.5.6-1.9-6.3-2.9-7.8-1.1-3.8 4.5-13.3 7.2-15.6 4.4-1.2-1.4-.9-1.6 2.3-1.6 2.5 0 3.6-.4 3.6-1.5 0-1.9-6-2.1-7.8-.3-.9.9-1.2.9-1.2 0 0-.7-.5-1.2-1.1-1.2-.6 0-.9.6-.6 1.3.6 1.7-4.4 1-5.5-.7-.6-.8-.8-.8-.8 0 0 1.7-4.3 2.6-5.2 1.1-.6-.9-.8-.9-.8.1 0 .8-1.7 1.2-4.7 1.3-2.7 0-4.2.3-3.5.6 1.7.7 1.5 2.3-.3 2.3-.8 0-1.5-.7-1.5-1.5s-.4-1.5-1-1.5c-.5 0-1 .7-1 1.6 0 1.3-.7 1.5-4 .9-4.6-.8-8 .1-8 2.1 0 .8-.4 1.4-1 1.4-.5 0-1-.6-1-1.4 0-1.1-.9-1.3-3.7-.9-2.1.3-4 .9-4.3 1.3-.3.4-2.6-.5-5.3-1.9zm69.3-7.8c0-.7-.4-1.3-1-1.3-.5 0-1-.7-1-1.6 0-1.1-.8-1.4-3.2-1.2-2.5.2-3.3.8-3.3 2.3 0 1.1.7 2.3 1.5 2.6 2.4 1.1 7 .5 7-.8zm-12.1-1.3c.3 0 0-.5-.6-1.1-.7-.7-3.3-.8-7.7-.4-6.8.8-8.4 2.1-2.1 1.7 1.9-.2 3.5.2 3.5.7 0 .6 1.2.6 3.2 0 1.8-.5 3.5-.9 3.7-.9zm-14.9-3c0-.5-1.2-2.6-2.6-4.7-1.9-2.8-2.5-4.8-2.2-7.5.3-3.6.3-3.6-2.7-3.1-1.6.3-3.9 1.4-5.1 2.4-1.1 1.1-2.3 1.9-2.7 1.9-.7 0-3.6 2.2-6.3 4.8-2.7 2.6-1.5 3.9 4.4 5 3.1.7 6.6 1.3 7.7 1.6 4 .8 9.5.6 9.5-.4zm24.9-4.8c.6-1.2.4-2.8-.6-5.2-1.3-2.9-1.7-3.2-2-1.5-.3 1.1-.8 3.5-1.3 5.3-.7 2.8-.6 3.2 1 3.2 1.1 0 2.4-.8 2.9-1.8zm-46.4-9.2c-.3-.5-.1-1 .4-1 .6 0 1.1-.4 1.1-1 0-1.3-1.1-1.3-3 0-1.3.9-1.3 1.1 0 2 1.9 1.2 2.3 1.2 1.5 0zm7.3-4.1c2.8-1 3-1.2 1.7-2.6-1.4-1.3-1.8-1.3-4 .1-2.4 1.6-3.3 3.6-1.6 3.6.4 0 2.2-.5 3.9-1.1zm11.6-4.4c1.6-.9 3.8-1.5 5-1.4 1.2.1 3.7.1 5.6.1l3.4-.2-2.3-1.6c-2.3-1.6-9.6-1.4-12.4.3-.7.4-1.9.8-2.7.8-5.3.5-5.3.4-4 2 1.6 1.9 3.7 1.9 7.4 0zm64.6-.1c0-.2-1.2-.4-2.6-.4-1.4 0-2.3.4-2 .9.6.8 4.6.4 4.6-.5zm-37-11.3c0-1.1-3.9-2.5-4.7-1.8-.3.3-.2 1 .2 1.6.8 1.3 4.5 1.5 4.5.2zm18-15.3c0-1.9-1.8-4.4-2.5-3.6-.4.3 0 1.5.7 2.7 1.5 2.4 1.8 2.6 1.8.9zM402.5 289.1c-.3-.6-2.6-2-5-3.2-2.5-1.2-4.5-2.6-4.5-3.1 0-1.4 11.8-1 12.3.5.2.6.7.9 1.1.5.4-.3.3-1.5-.3-2.6-.9-1.6-2.2-1.9-8.8-2-4.3 0-8.2.3-8.8.7-1.1.9-6.5 2.1-6.5 1.4 0-1.3 3.6-7.2 5.8-9.5 1.4-1.6 2.1-2.8 1.5-2.8-.6 0-2.5 1.6-4.2 3.5-3.7 4.2-5.6 4.6-3.3.6 1.6-2.8 1.6-3-.7-4.8-2.1-1.7-2.2-2.2-1-4.1.7-1.2 2.6-2.7 4.1-3.3 2.5-1 3.2-2 3-4-.1-.4.8-.5 1.8-.2 1.2.3 2 0 2-.7 0-.8.9-1 2.5-.6 1.7.4 2.4.2 2.3-.6-.3-1.2 2-2.2 7.6-3.3 3.7-.8 1.7-2.4-2.2-1.9-2.5.4-2.5.3.3-.6 3.6-1.2 5.5-.6 5.5 1.5 0 1.7-2 2.7-5.6 2.9-1.3.1-2.3.6-2.2 1.1.2.6 1 .8 1.8.6.8-.2 6.5-.8 12.7-1.4 8.7-.8 12.5-.7 17.4.3 10.4 2.2 18.5 9.2 20.9 18 .6 2.1 1.9 4.9 3.1 6.4 2.1 2.6 1.9 3-1.3 2.7-2.4-.3-2.3 1.4.1 3.8 2 2 2 2-.1 2.7-1.5.4-2.6.1-3.4-1.1-1-1.3-2-1.6-4-1.1-1.5.4-4.9.2-7.5-.5-4.9-1.3-6.6-2.9-3-2.9 3.6 0 5.8-5.2 4-9.6l-1.1-2.9-1.9 4.3c-1 2.3-2.3 4.2-2.9 4.2-.6 0-.8.5-.5 1 .3.6-1 2.6-3.1 4.5-3.9 3.7-6 4.5-5 1.9.3-.9.6-1.7.6-2 0-.2.7 0 1.7.3 1.1.4 1.4.3.9-.5-1.1-1.8-5.6-1.5-5.6.3 0 .8-.9 1.5-2.1 1.5-1.1 0-1.7-.4-1.4-1 .3-.5.1-1-.4-1-.6 0-1.1.5-1.1 1.1 0 .8-1.5 1-4.4.7-4.5-.5-6.2.7-5.7 4 .2 1.4-4.5 1.7-5.4.3zM414 274c-.7-2.8-1-6-.7-7 .4-1.6 0-2-1.7-2-1.2 0-2.7.5-3.4 1.2-.7.7-1.2.8-1.2.3 0-.4-.9 0-2 1s-2 1.4-2 1c0-.4-.9 0-1.9.9-1.7 1.5-1.8 2.2-.8 4 1.8 3.1 3.2 3.7 11.9 5 .3.1 1 .4 1.4.9 1.5 1.4 1.6-.3.4-5.3zm34.6-4.7c-.9-3.8-8.5-10.6-13.3-12.1-5.1-1.5-19.6-1.6-19.1-.1.4 1.3-.1 1.2 9 1.9 6.2.5 8.7 1.3 13 3.9 2.9 1.8 6.1 4.6 7 6.2 2.2 3.8 4.2 3.9 3.4.2zM397.9 246.1c-.1-.3-.1-1 0-1.4.1-.4-.6-1-1.4-1.3-.8-.4-1.5-1-1.5-1.4 0-1.7 3.1-1.8 8.7-.3 6.6 1.8 8.9 3.3 5.2 3.3-1.4 0-2.9.3-3.3.7-.9.9-7.6 1.2-7.7.4zM219.7 243.6c1.2-2.1 7.2-8.6 7.8-8.6 1.1 0-5.7 8.9-7.2 9.4-.9.4-1.1.1-.6-.8zM392.1 239.1c-.7-1.1-2-2.1-3.1-2.1-2.7 0-3.1-1.2-1.5-4.1.8-1.3 1.8-3.2 2.1-4.1 1.2-3.4 2.4-1.8 2.4 3.2 0 3.8.4 5 1.5 5 1.7 0 1.9.9.6 2.9-.7 1.1-1.1.9-2-.8zM379.8 236.9c-1.9-2-2.4-4.9-1-4.9s4.2 3.5 4.2 5.3c0 2.2-1 2-3.2-.4z"/><path d="M325.2 234.1c.1-1.6.6-2.7 1-2.5 1.2.7 1 5.4-.2 5.4-.6 0-.9-1.3-.8-2.9zM233 231c.8-.5 2.6-.9 4-.9 2.3 0 2.3.1.5.9-1.1.5-2.9.9-4 .9-1.7.1-1.7-.1-.5-.9zM240.5 229c-.8-1.3 2.3-2 4.7-1 1.4.5 1.7.9.8 1-.8.1-2.3.3-3.2.5-1 .2-2 0-2.3-.5zM532 149.1c0-1 4.2-2.3 4.9-1.5.7.6-2 2.4-3.6 2.4-.7 0-1.3-.4-1.3-.9zM541.8 143.8c.9-.9 1.5-.9 2.4 0 .9.9.7 1.2-1.2 1.2s-2.1-.3-1.2-1.2zM506 143.1c.8-.5 3.8-1.1 6.5-1.5 2.8-.4 6.2-.9 7.6-1.2 2-.4 2.8 0 3.1 1.4.5 1.7.2 1.8-4.1 1-2.8-.5-5.7-.4-7.5.2-3.7 1.3-7.8 1.3-5.6.1zM527.5 142c-.3-.5.3-1 1.4-1 1.2 0 2.1.5 2.1 1 0 .6-.6 1-1.4 1-.8 0-1.8-.4-2.1-1zM518.1 133.6c-1-1.2-.8-1.6 1-2.1 1.3-.4 3-1.5 3.8-2.4 1.2-1.3 1.4-1.3.6-.1-.5.8-1.6 2.1-2.5 2.8-1.3 1.2-1.3 1.3 0 1.2 2.9-.4 5 0 5 1 0 1.5-6.6 1.2-7.9-.4zM533 134.3c-3.1-.6-4.3-2.3-2.8-4 1.4-1.8 4.8-1.6 4.8.2 0 .8.5 1.5 1.1 1.5.6 0 .8-.7.4-1.7-.5-1.4-.3-1.5.5-.7 1.4 1.4 1 4.6-.5 4.9-.5.1-2.1 0-3.5-.2zM145.7 119.9c-.3-1.3-.1-1.9.6-1.6 1.5.5 2.2 3.7.9 3.7-.5 0-1.2-.9-1.5-2.1zM165.8 99.5c0-1.1-.1-2.6-.1-3.2.1-.7-.5-1.3-1.3-1.3s-1.4-.5-1.4-1.1c0-.6.7-.9 1.5-.5 1.6.6 2.2-1.9.6-2.8-1.4-.9.1-5.8 2-6.3 1.2-.3 2.1-1.8 2.5-4.2.5-2.3 2.1-4.9 4.5-7.3 2.1-2.1 4.1-4.8 4.4-6.1.3-1.2 1.6-2.7 2.8-3.3 1.2-.5 2.1-1.5 2-2.2-.2-.7.4-1.2 1.2-1.2.8 0 1.5-.5 1.5-1.1 0-.5.4-.7 1-.4.5.3.7 0 .5-.7-.4-.9 1-2.3 3.5-3.7 2.2-1.2 4.7-2.9 5.5-3.7 1-1.1 3.6-1.6 8.2-1.6 4.4-.1 7.2-.6 8.1-1.5 2-2 .7-2.8-2.3-1.5-4.1 1.9-6.5 1.4-3-.5 3.5-2 6.4-1.8 8.2.5 1.6 2.2 1.7 4.5.1 3.9-.7-.2-2.8.6-4.5 2-1.8 1.3-3.3 2.2-3.3 1.8 0-.3-1.7.4-3.7 1.5-2.1 1.1-5 2-6.5 2-1.6 0-2.8.3-2.8.8 0 .4-1.2 1.5-2.7 2.4-1.6 1-2.2 1.8-1.4 1.8 1.1 0 1.1.3.1 1.6-.8.8-2.3 2-3.4 2.6-2 1.1-2 1.1-.2-1.8l1.9-2.9-2.7 2.5c-1.5 1.4-4.4 5.6-6.3 9.3-2 3.8-4.9 8.2-6.6 10-3.5 3.7-4.8 6.8-5.3 12.1-.4 4.4-2.3 7.3-2.6 4.1zM366 94.6c0-.3.4-1.6 1-3 .9-2.4.6-2.7-3.3-4.6-3.7-1.9-3.9-2.1-1.2-1.6 1.7.2 3.8.8 4.8 1.2 1.5.5 1.8.3 1.6-1.2-.5-2.7.9-4.4 2.9-3.8 1.4.5 1.5.4.2-.5-1.7-1.1-1.6-1.3 2.5-3.4 2.4-1.3 2.6-1.6 1-1.6-1.1-.1-4.1.6-6.7 1.4-4.2 1.2-4.8 1.2-4.8 0 0-.8-.9-1.5-2-1.5-2.3 0-2.7-1.5-.5-2.4.8-.3 1.5-1.2 1.5-2s.6-1.6 1.3-1.9c.9-.3.9-.9 0-2.5-1-1.6-.9-2.1.2-2.6 2.2-.8 1.8-2.5-.5-2.3-1.1.1-2 .5-2 1s-1.2.6-2.7.2c-1.6-.4-4.9-.7-7.5-.6-2.8.1-4.8-.2-4.8-.9 0-.5 1.3-1 2.9-1 1.7 0 3.3-.4 3.6-1 .3-.6-.3-.9-1.4-.7-1.1.1-2-.2-2.1-.8 0-.5 1.1-1.1 2.6-1.3 1.5-.2 2.8-1.1 3.1-2.2.3-1 1.3-2 2.4-2.3 1-.3 2.3-1.6 2.8-2.9.6-1.2 1-1.6 1-.9.1 1 .4 1.2 1.1.5 1.2-1.2.2-4.7-1.1-3.8-.5.3-.9 0-.9-.5 0-1.5 2-1.4 2.5.2.3.6 1.6 1.3 3 1.3 1.4.1 2.2-.2 1.9-.8-.3-.5-.1-1.4.4-2.1 1.7-2.2 1-4.4-1.3-4-1.5.3-2.5-.3-3.5-2.1-.7-1.4-2-2.6-2.7-2.6-1 0-1.2-.7-.8-2 .7-2.1-.1-2.4-5.7-2-1.4.1-2.9-.3-3.3-.9-1-1.7-3.8-1.3-3.1.4.3.9 0 1.5-1 1.5-.8 0-1.8.8-2.1 1.8-.4.9-1.5 2.8-2.5 4.1-2.3 3-2.4 6.6-.3 5.7 1.3-.5 1.4-.2.4 1.5-.6 1.1-.8 2.3-.5 2.6 1.5 1.5 3.3-1.2 5.6-7.8 1.3-4.1 2.5-7.6 2.6-7.7.2-.2 1.2-.1 2.4.3 2.4.8 2.2 1.8-2.2 11.3l-2.9 6.3-4.7-.3c-3.8-.2-4.9.1-5.7 1.6-.5 1-2.1 2.6-3.4 3.5-2.4 1.5-2.4 1.5-1.1-.9.7-1.4 2-3 2.9-3.7.9-.7 1.2-1.3.8-1.3-.5 0-2.4 1.2-4.3 2.6-1.9 1.5-3.7 2.4-4 2.2-.3-.3.7-1.5 2.2-2.7 2.2-1.7 2.5-2.4 1.5-3.4-.8-.8-1.4-.9-1.9-.1-.4.6-1.8 1.5-3.1 1.9-1.9.6-2.3.4-1.8-.8.3-.8 0-2-.6-2.6-.8-.8-.8-1.1 0-1.1.6 0 1.3.5 1.5 1.2.2.6 1 .8 1.7.4.8-.6.9-1.1.2-2-.6-.7-.8-1.6-.5-1.9.4-.3.1-2-.4-3.7-1-2.6-.8-3.7 1.3-7.3 1.3-2.4 2.7-6 3.1-8.2.6-3.5.8-3.7 1.5-1.6.8 2.1 1 2.2 2.6.5 1-.9 1.6-2.7 1.5-3.9-.3-2 0-2.1 6-1.7 6 .4 18.2 3.7 22.9 6.3 1.7.9 1.9 1.3.8 2-1.9 1.2-.2 1.1 2.1-.1 1.5-.8 1.8-.7 1.4.3-.3.8.2 1.7 1 2 .9.4 1.6 1.4 1.6 2.4 0 1.3.2 1.5.8.5.6-.9 1.6-1 3.4-.3 1.7.6 2.9.6 3.6-.1.8-.8 1.4-.4 2.1 1.5 1.5 4 10 8.2 11.6 5.7 1.1-1.7 3.6.1 2.9 2.2-.4 1.5-.2 1.9.7 1.6.8-.3 2.3 1 3.6 3.1 2.2 3.5 2.3 3.5 2.3 1 0-3.4-2.3-7.9-5.2-10.1-1.3-.9-1.9-2-1.4-2.5.5-.4 1.1-.2 1.3.5.3.6 1 1.2 1.6 1.2 1.4 0 8.1 7.7 8.3 9.4 0 .6.2 1.9.2 2.9.1.9.9 1.7 1.7 1.7 2.1 0 1.9 1.8-.4 2.5-1 .3-2.1 1.8-2.4 3.3-.3 1.5-.9 3.5-1.2 4.5-.5 1.2-.2 1.7.9 1.7 3.6 0 1.3 1.8-3.1 2.5-6.7 1-11.6 3.8-19.2 10.9-3.6 3.4-8.3 7.4-10.3 8.9-2.4 1.9-4.2 4.5-5.4 7.8-1 2.7-2.2 4.9-2.6 4.9-.4 0-.8-.2-.8-.4zm5.1-44.6c2.8-1.6 2.3-3.2-.6-1.8-1.4.6-2.5 1.5-2.5 2 0 1.1.7 1 3.1-.2zM339 37.8c0-.4-.9-.8-2.1-.8-1.5 0-1.9.4-1.5 1.6.3.9.6 2.1.6 2.7.1 1.3 3-2.2 3-3.5zm45.5 1.9c-1-.5-2.9-2.2-4.1-3.6-1.5-1.7-2.3-2.1-2.4-1.2 0 1.8 6.2 7.1 7.4 6.4.5-.3 0-1-.9-1.6zM330 38.3c0-1 .3-2.9.6-4.3.5-2.3.4-2.3-.7-.6-1.5 2.5-2 6.6-.8 6.6.5 0 .9-.8.9-1.7zm39.3-6.9c-.7-.3-1-1.1-.7-1.8.3-.8-.5-1.5-2-1.8-1.4-.3-2.6-.4-2.6-.2 0 .1-.3 1-.7 2-.4 1-.2 1.5.3 1.1.6-.3 1.6-.2 2.4.4.8.5 2.2.8 3 .8.9 0 1.1-.2.3-.5zm-5.1-7.6c-.4-.4-1.9-1-3.4-1.3-3.5-.9-3.9 1.7-.6 3.2 2.3 1 5.4-.5 4-1.9z"/><path d="M378.5 93.1c-.3-.6-.3-1.5 0-2.1.3-.5.1-1-.4-1-.6 0-1.1.5-1.1 1 0 1.4-3.8 1.2-4.3-.2-.5-1.5.6-4 3.1-7 2.2-2.6 12.9-7.8 14.6-7.2 1.3.5 10.7-5.2 11.4-6.9.2-.4.8-.4 1.3-.1 1.2.7-.8 3.4-2.6 3.4-.6 0-2 .9-3 2-1.8 1.9-1.7 2 .1 2 1.1 0 2.5.5 3.2 1.2 1.7 1.7 1.5 4.8-.3 4.9-2.9.3-3.3.4-4.2 1.3-.4.5 1 .6 3.4.3s4.6-.1 4.9.4c.8 1.4 2.4 0 1.7-1.6-.3-.8-.1-1.5.5-1.5.5 0 1.2.9 1.5 2 .6 2.5-4.2 6.2-10.3 7.8-6.8 1.7-18.7 2.5-19.5 1.3zm9.7-3.3c-.9-.9-1.5-.9-2.4 0-.9.9-.7 1.2 1.2 1.2s2.1-.3 1.2-1.2zM364.7 82.3c-1.3-1.2-.7-2.3 1.3-2.3 1.1 0 2 .7 2 1.5 0 1.5-2.1 2.1-3.3.8zM460 77.4c0-1.7.6-2.8 2-3.1 2.6-.7 2.6-2.3.1-2.3-1.1 0-2.3-.4-2.6-1-.4-.6 1.1-1 3.7-1 2.9 0 3.8.3 2.9.9-.8.5-1.1 1.6-.8 2.5.6 1.5.8 1.5 2.5-.1 1-1 1.7-2.1 1.5-2.5-.2-.4.3-.5 1.1-.2 2.1.8 2 1.3-1 3.6-1.4 1.2-2.3 2.7-2 3.5.3.8.1 1.1-.4.8-.6-.3-1-.1-1 .4 0 .6-1.3 1.1-3 1.1-2.6 0-3-.4-3-2.6z"/><path d="M386 75c0-2 13.1-10 16.4-10 1.9 0-2.1 4.1-7.6 7.7-4 2.7-8.8 3.9-8.8 2.3zM410.5 73.1c1.1-1 17.5-5.1 17.5-4.4 0 .2-.7 1.1-1.5 2-.8.8-1.3 2-.9 2.6.3.7-.1.4-.9-.6-1.3-1.5-1.9-1.7-3.7-.7-2.7 1.4-11.8 2.4-10.5 1.1zM341.5 66c-.4-.6.6-1 2.2-1 2.2 0 2.5.2 1.3 1-1.9 1.2-2.7 1.2-3.5 0zM285.5 61.5c-1.9-1.4-1.9-1.4.5-1.6 3.5-.3 4.1-.4 7.4-1.8 1.7-.7 4.1-1 5.5-.8 2.6.3 2.6.3-.4 1.1-2.4.6-7.3 2.6-10.5 4.3-.3.2-1.5-.3-2.5-1.2zM319.5 58.9c-2.2-.4-5.8-.9-8-1l-4-.2 3.5-.7 3.5-.7-3.3-.8c-2.1-.5-3-1.1-2.4-1.7 1.2-1.2 9.3.8 10.8 2.7.5.7 2.6 1.8 4.5 2.3 4.1 1.2 1 1.3-4.6.1zM417.2 55.1c.7-.9 1.3-1.7 1.4-1.9.3-.6 5.4 1.8 5.4 2.5 0 .5-1.8.9-4 .9-3.6.1-3.9 0-2.8-1.5zM434 54.7c0-1 1.1-2.2 2.5-2.7s2.5-1.5 2.5-2.1c0-.6-.7-.9-1.5-.5-.8.3-1.5.1-1.5-.4 0-.6 1.1-1 2.5-1s2.5-.5 2.5-1.2c0-.6.2-.9.5-.6.9.9-3.8 8.8-4.8 8.1-.5-.3-1.3.1-1.8.8-.7 1.1-.9 1-.9-.4zM291.5 47c-.3-.5-1.2-.7-2-.3-.9.3-1.5-.1-1.5-.9 0-1.9 7.5-4.3 11.8-3.9 2 .2 1.4 3.1-.7 3.1-1 0-2.4.7-3.1 1.5-1.4 1.7-3.6 2-4.5.5zM264 38.8c0-.9-.8-2.1-1.7-2.7-1.6-.8-1.5-1.1 1-2 3.5-1.3 9-1.4 8.2-.2-.3.5-1.9 1.2-3.5 1.6-1.7.4-2.8 1-2.6 1.4.3.4.1 1.3-.5 2.1-.7 1.3-.9 1.2-.9-.2zM273.4 37.5c2.1-1.6 8.4-3.1 9.3-2.2.7.8-6.5 3.7-9.1 3.7-2-.1-2.1-.1-.2-1.5zM390.4 34.9c-1.9-2.1-1.9-2.1.6-1.8 1.4.2 2.6 1.2 2.8 2.2.5 2.3-1.1 2.2-3.4-.4zM276 30.9c0-.7-.7-2-1.5-2.9-2.1-2.3-2.8-10-1-10 .9 0 1.2.6.9 1.5-.4.8-.3 2.7.1 4.2.5 2.1.8 2.4 1.6 1.2s1-1.2 1.9.1c1.3 2 .8 6.2-.7 6.8-.7.2-1.3-.2-1.3-.9zM262.3 22c-1.1-1.7-1.1-1.8.7-1.2 2 .7 2.8 2.4 1.3 2.9-.4.2-1.4-.6-2-1.7z"/></g><path d="M344 665.2c0-.5.7-1.3 1.6-1.6 1-.4 1.4-.1 1.2.6-.5 1.5-2.8 2.3-2.8 1zM296.5 650c-1.7-.7-1.4-.9 1.3-.9 2-.1 3.1.3 2.7.9-.7 1.2-1.3 1.2-4 0zM347.8 648.3c.6-.2 1.2-1.3 1.2-2.4 0-1 .7-1.9 1.5-1.9.9 0 1.2.6.8 1.8-.7 1.9-2.3 3.2-3.8 3.1-.5 0-.4-.3.3-.6zM337 637.5c0-1 .7-1.5 1.8-1.3 2.1.4 1.9 2.2-.2 2.6-1 .2-1.6-.3-1.6-1.3zM319 634.5c0-1.4.4-2.5.9-2.5 1.2 0 2.3 2.9 1.5 4.1-1 1.8-2.4.9-2.4-1.6zM322 631c0-.8.5-2.2 1-3 .9-1.3 1-1.3 1 0 0 .8-.5 2.2-1 3-.9 1.3-1 1.3-1 0zM285.2 616.4c.9-.9 2.1-1.3 2.8-.9 1.4.9-.5 2.5-3 2.5-1.2 0-1.2-.3.2-1.6zM290.2 609.5c-1.1-1.3-1-1.5.7-1.5 1.4 0 1.9.5 1.5 1.5-.7 1.8-.6 1.8-2.2 0zM290.1 569.3c-1-1.1-1.1-2-.3-3.6.8-1.7 1.1-1.8 1.1-.5.1.9.5 1.8 1 2 .4.2.6 1 .2 1.9-.5 1.5-.8 1.5-2 .2zM332.7 548.6c-.3-.8 0-1.7.8-2 .9-.3 1.3.2 1.2 1.5-.2 2.2-1.3 2.5-2 .5zM229.2 548.1c.2-.7.7-1.2 1.1-1.2 1.2.1.9 1.5-.3 2-.7.2-1.1-.2-.8-.8zM218.7 528.4c-.8-.8.1-2.4 1.3-2.4.4 0 1 .7 1.4 1.5.5 1.5-1.4 2.1-2.7.9zM218.2 435.8c.5-1.5 2.8-2.3 2.8-1 0 .5-.7 1.3-1.6 1.6-1 .4-1.4.1-1.2-.6zM152.1 358.1c-1-.6-1-1-.1-1.6 1.3-.8 2.4-.1 1.9 1.4-.3.6-1 .7-1.8.2zM487.3 319c.6-1.1 1.5-2 1.9-2 1.2 0-.3 2.8-1.8 3.4-1.1.4-1.2.2-.1-1.4zM409 290c0-.5.4-1 1-1 .5 0 .7-.8.4-1.7-.5-1.4-.4-1.5.4-.4 1.1 1.5.5 4.1-.9 4.1-.5 0-.9-.4-.9-1zM425 250c-3-.4-5-.8-4.5-.9 2.1-.6 10.1.1 11.5 1 1.7 1 1.8 1-7-.1zM412.3 249.3c.9-.2 2.5-.2 3.5 0 .9.3.1.5-1.8.5-1.9 0-2.7-.2-1.7-.5zM415.8 134.2c.9-1.1 2-1.7 2.5-1.5.9.5-1.8 3.3-3.2 3.3-.6 0-.3-.8.7-1.8zM145.6 119.8c-.3-1.3-.6-3.9-.6-5.8.1-2.9.2-3.2 1.1-1.7.6 1 .8 2.5.5 3.4-.4.8-.1 2.2.5 3 .8.9.9 1.7.2 2.4s-1.2.3-1.7-1.3zM168 104.5c0-1.4.5-2.5 1-2.5.6 0 1 1.1 1 2.5s-.4 2.5-1 2.5c-.5 0-1-1.1-1-2.5zM186.6 102.5c-1.6-1.2-1.7-1.5-.4-1.5.8 0 2.1.7 2.8 1.5 1.6 1.9.1 1.9-2.4 0zM418 92.2c0-1.1 7-5.5 7.7-4.8.2.2-.8 1.3-2.4 2.3-4.4 3.1-5.3 3.5-5.3 2.5zM348 87.5c-6.3-1.3-6.4-1.3-2-1.4 5.8-.1 12 .9 12 2s-1.6 1-10-.6zM322.5 82.9c.7-1 5.5-1.8 5.5-.9 0 .4-1.3 1-2.9 1.2-1.7.2-2.8.1-2.6-.3zM344.8 83.1c-3.1-.3-6-.9-6.4-1.4-1.4-1.4 10.4-.7 13.2.8 3.2 1.6 3.1 1.7-6.8.6zM183 80c2.1-2.9 4-3.2 4-.7 0 .7-.4.7-.9-.2-.8-1.2-1.2-1-2.2 1.2-.7 1.5-1.6 2.7-2.1 2.7s0-1.4 1.2-3zM364.2 82.3c-1.8-.7-.4-2.3 1.9-2.3 1.2 0 1.9.5 1.7 1.2-.5 1.4-1.8 1.8-3.6 1.1zM403 78.5c-.9-1.1-1-1.9-.2-2.7 1.3-1.3 2.8-.4 3.5 2.2.6 2.4-1.5 2.7-3.3.5zM408.8 69.4c1.9-1 3.6-2.3 3.9-3.1.6-1.5 2.3-.7 2.3 1.1 0 .8-1 1.6-2.2 1.9-1.3.3-3.4.8-4.8 1.2-1.8.5-1.6.2.8-1.1zM304 68.5c0-.3 1.8-1.4 4-2.5 3.1-1.6 3.8-1.7 3.4-.5-.4.8-.7 1.5-.8 1.5 0 0-1.6.4-3.4.9-1.7.5-3.2.8-3.2.6zM459.5 67.9c-.7-1.1 5.5-7.3 6.4-6.3.3.4 0 .9-.6 1.1-.7.3-1.3 1.5-1.3 2.8 0 2.3-3.5 4.2-4.5 2.4zM353 66.5c-1.1-1.3-.7-1.5 2.6-1.4 2.2 0 3.2.3 2.4.6-.8.3-2 1-2.6 1.4-.7.6-1.6.3-2.4-.6zM341.9 65.9c-1-.6-.7-.9 1.4-.9 2.9 0 3.5.5 1.4 1.3-.8.3-2 .1-2.8-.4zM418 65.8c0-.4.4-.8.9-.8s1.7-.3 2.7-.7c1.1-.4 1.5-.2 1.2.7-.5 1.5-4.8 2.2-4.8.8zM450 66.1c0-1.3 2.1-3.4 7.3-7.4 2-1.6 4.6-4.4 5.8-6.3 1.9-3.2 4.9-4.6 4.9-2.4 0 .6-.6 1-1.4 1-1.6 0-2.6 2.1-2.6 5.5 0 1.3-.7 3.1-1.6 4-2.2 2.2-3.2 1-1.1-1.3 1-1 1.7-2.2 1.7-2.6 0-1.3-3.8 1.4-8.4 6-2.5 2.5-4.6 4.1-4.6 3.5zM219.7 65.3c-.4-.6.6-3.4 2.1-6.3 1.5-3 2.8-4.6 3-3.7.4 2.1-4.3 11.3-5.1 10zM194 62.6c0-.7.7-1.9 1.5-2.6 1.6-1.3 2-.3.9 2.4-.8 2-2.4 2.1-2.4.2zM226.3 61.9c1.3-5.3 3.8-9.9 5.3-9.9 1.2 0 1.4.4.6 1.3-.5.6-1.3 2.6-1.6 4.3-.4 1.8-1.7 4-2.8 5-2.1 1.9-2.1 1.9-1.5-.7zM412.4 61.4c.3-.9.6-2 .6-2.6 0-.6.6-.5 1.5.2 1.2 1 1.3 1.6.4 2.6-1.6 1.9-3.3 1.8-2.5-.2zM326 60l-2.5-.8 2.5-.1c1.4 0 3.2.4 4 .9 1.3.9 1.3 1 0 .9-.8-.1-2.6-.5-4-.9zM336 58.1c0-1.1.5-2.3 1.2-2.7.7-.5.8-.3.3.6-.5.9-.4 1.1.3.6.7-.4 1.2-1.5 1.2-2.5 0-1.8 3.5-3.5 5.2-2.5 1.4.9.9 2.4-.8 2.4-.9 0-1.8.9-2.1 2-.3 1.1-.9 1.8-1.3 1.5-.5-.3-1.6.2-2.4 1.1-1.5 1.4-1.6 1.4-1.6-.5zM280 55c2-1.3 4.3-1.3 3.5 0-.3.6-1.6 1-2.8 1-1.8 0-1.9-.2-.7-1zM409.6 54.1c-.6-.9 5.3-3.5 6.1-2.7.2.2.1 1.1-.3 2-.6 1.7-4.9 2.2-5.8.7zM236 50c-.9-1.8-.8-2 1.5-2s2.4.2 1.5 2c-.6 1.1-1.3 2-1.5 2-.2 0-.9-.9-1.5-2zM281 51c0-.6 1.7-1 3.7-1 4.3 0 4.1.5-.4 1.3-1.9.4-3.3.2-3.3-.3zM298.7 50.3c-.3-.5 1.8-.9 4.6-.9 3.8-.1 4.5.1 2.7.6-3.4 1.1-6.8 1.2-7.3.3zM422.7 49c.3-1.1 1-2.3 1.6-2.7.7-.4.8 0 .4 1.1-.4 1-.7 2.2-.7 2.7s-.4.9-.9.9-.7-.9-.4-2zM311.6 47.1c-.3-.5.1-1.1.9-1.5 1.5-.6 2.9.7 1.8 1.8-.9.9-2.1.8-2.7-.3zM359.2 45.7c.9-.9 2.1-1.7 2.7-1.7 1.4 0 2.2 1.7.8 1.7-.7 0-2.1.4-3.2.9-1.9.7-1.9.7-.3-.9zM243.2 43.5c-.9-2-.9-2.3.3-1.8.8.3 1.2.9.9 1.4-.8 1.4.9 1 3-.6 2.3-1.7 3.6-1.9 3.6-.6 0 .7-5.4 4.1-6.5 4.1-.1 0-.7-1.1-1.3-2.5zM318.5 44c.4-.6-.6-1-2.4-1-1.6 0-3.3-.4-3.6-1-.4-.6.9-1 3.2-1 3.2 0 3.9.4 4 2 .1 1.1-.3 2-.8 2-.6 0-.7-.4-.4-1zM441.7 42.6c-.4-1-.5-2.1-.2-2.4.9-.9 1.7.6 1.3 2.5-.3 1.7-.4 1.7-1.1-.1zM273 41c0-.5.7-1 1.5-1s1.5.5 1.5 1c0 .6-.7 1-1.5 1s-1.5-.4-1.5-1zM258 38.5c0-.8.9-1.5 1.9-1.5 1 0 2.1.7 2.5 1.5.4 1.1-.1 1.5-1.9 1.5-1.6 0-2.5-.6-2.5-1.5zM437.2 37.8c.5-1.5 2.8-2.3 2.8-1 0 .5-.7 1.3-1.6 1.6-1 .4-1.4.1-1.2-.6zM295.6 36.7c.5-1.3.9-4.2 1.4-9.2l.1-2 .9 2c1.3 3 1.2 7.9-.2 9.3-1.6 1.6-2.9 1.5-2.2-.1zM389.5 34c-1.1-1.2-2-2.7-2.1-3.5-.3-2 3-1.9 4.6 0 .7.8.9 1.5.4 1.5-.4 0-.3.5.4 1.2s1.2 1.6 1.2 2c0 1.5-2.7.8-4.5-1.2zM325.4 27.7c.1-5 1-6.1 1.9-2.5.3 1.1 0 3.3-.7 4.7-1.3 2.4-1.4 2.3-1.2-2.2zM282.6 24.3c-.3-2.5-.4-4.9 0-5.2.9-1 2.4 2.3 2.4 5.6 0 5-1.7 4.7-2.4-.4zM288.7 28.4c-.4-.4-.3-1.2.2-1.8.5-.6 1.1-2.4 1.4-4.1.4-2.9.4-2.9.5.5.2 3.7-1 6.5-2.1 5.4zM258 24.6c-.6-.9-1-2.1-.8-2.8.3-.8.9-.4 1.7 1 1.5 2.8.9 3.9-.9 1.8zM268 21.8c0-2.5.3-2.9 1-1.8 1.3 2 1.3 5 0 5-.5 0-1-1.5-1-3.2zM373.5 21.9c-1.2-1.9.5-2.3 2.2-.6 1.6 1.6 1.6 1.7.1 1.7-.9 0-2-.5-2.3-1.1zM286 19.3c.1-2.1 1.5-3 2.7-1.8 1 1 .9 1.4-.3 1.9-2 .8-2.4.8-2.4-.1z"/></svg>